<svg width="50" height="50" viewBox="0 0 50 50" fill="none" xmlns="http://www.w3.org/2000/svg">
<path fill-rule="evenodd" clip-rule="evenodd" d="M33.7089 45.8334H16.2908C11.4809 45.8334 7.58171 42.1125 7.58171 37.5225V27.3606C7.58171 25.8851 6.96749 24.4701 5.87419 23.4267C3.3411 21.0095 3.6704 17.0043 6.56756 14.9937L19.8774 5.75632C22.9313 3.63689 27.0684 3.63689 30.1223 5.75632L43.4321 14.9937C46.3293 17.0043 46.6586 21.0095 44.1255 23.4267C43.0322 24.4701 42.418 25.8851 42.418 27.3606V37.5225C42.418 42.1125 38.5188 45.8334 33.7089 45.8334ZM20.3123 28.1251C20.3123 27.2621 21.0119 26.5626 21.8748 26.5626C22.7378 26.5626 23.4373 27.2621 23.4373 28.1251V34.3751C23.4373 36.9639 25.536 39.0626 28.1248 39.0626C30.7137 39.0626 32.8123 36.9639 32.8123 34.3751V33.3334C32.8123 33.0458 33.0455 32.8126 33.3332 32.8126H35.4165C36.2794 32.8126 36.979 32.113 36.979 31.2501C36.979 30.3871 36.2794 29.6876 35.4165 29.6876H33.3332C31.3196 29.6876 29.6873 31.3199 29.6873 33.3334V34.3751C29.6873 35.238 28.9878 35.9376 28.1248 35.9376C27.2619 35.9376 26.5623 35.238 26.5623 34.3751V28.1251C26.5623 25.5362 24.4637 23.4376 21.8748 23.4376C19.286 23.4376 17.1873 25.5362 17.1873 28.1251V29.1667C17.1873 29.4544 16.9542 29.6876 16.6665 29.6876H14.5832C13.7202 29.6876 13.0207 30.3871 13.0207 31.2501C13.0207 32.113 13.7202 32.8126 14.5832 32.8126H16.6665C18.68 32.8126 20.3123 31.1803 20.3123 29.1667V28.1251Z" fill="#0043CE"/>
</svg>
