<svg width="61" height="56" viewBox="0 0 61 56" fill="none" xmlns="http://www.w3.org/2000/svg">
<path d="M17.166 9.5H17.666V9V5.25C17.666 2.64887 19.8149 0.5 22.416 0.5H38.916C41.5171 0.5 43.666 2.64887 43.666 5.25V9V9.5H44.166H55.416C58.0171 9.5 60.166 11.6489 60.166 14.25V50.25C60.166 52.8511 58.0171 55 55.416 55H5.91602C3.31489 55 1.16602 52.8511 1.16602 50.25V14.25C1.16602 11.6489 3.31489 9.5 5.91602 9.5H17.166ZM39.666 9.5H40.166V9V5.25C40.166 4.55113 39.6149 4 38.916 4H22.416C21.7171 4 21.166 4.55113 21.166 5.25V9V9.5H21.666H39.666ZM56.166 35H56.666V34.5V14.25C56.666 13.5511 56.1149 13 55.416 13H5.91602C5.21715 13 4.66602 13.5511 4.66602 14.25V34.5V35H5.16602H26.166H26.666V34.5V33.75C26.666 32.8261 27.4922 32 28.416 32H32.916C33.8399 32 34.666 32.8261 34.666 33.75V34.5V35H35.166H56.166ZM5.16602 38.5H4.66602V39V50.25C4.66602 50.9489 5.21715 51.5 5.91602 51.5H55.416C56.1149 51.5 56.666 50.9489 56.666 50.25V39V38.5H56.166H35.166H34.666V39V39.75C34.666 40.6739 33.8399 41.5 32.916 41.5H28.416C27.4922 41.5 26.666 40.6739 26.666 39.75V39V38.5H26.166H5.16602Z" fill="#0092D6" stroke="white"/>
</svg>
