<svg width="48" height="60" viewBox="0 0 48 60" fill="none" xmlns="http://www.w3.org/2000/svg">
<path d="M47.5029 46H47.2287L47.1514 46.4066C46.3683 50.5244 43.5693 53.8255 39.7985 55.906C35.3511 58.3597 29.6891 59.5 24 59.5C18.3109 59.5 12.6489 58.3597 8.2015 55.906C3.76448 53.458 0.5 49.4186 0.5 44.25V41.9678C0.5 38.9742 2.9742 36.5 5.96777 36.5H42.0322C45.0261 36.5 47.5029 38.9745 47.5029 41.9678V46ZM20.991 40.2904L20.857 40H20.5371H5.96777C4.85435 40 4 40.8543 4 41.9678V44.25C4 48.0878 6.18043 50.7961 9.89225 52.844C12.3256 54.1866 15.4061 55.112 18.6853 55.5991L19.0763 55.6571L19.223 55.2901L23.1781 45.3995L23.258 45.1997L23.1678 45.0042L20.991 40.2904ZM27.4629 40H27.143L27.009 40.2904L24.8322 45.0042L24.742 45.1997L24.8219 45.3995L28.777 55.2901L28.9237 55.6571L29.3147 55.5991C32.5939 55.112 35.6744 54.1866 38.1077 52.844C41.8196 50.7961 44 48.0878 44 44.25V42.5H44.0029V42V41.9678C44.0029 40.853 43.1443 40 42.0322 40H27.4629ZM9.5 15C9.5 7.01852 16.0185 0.5 24 0.5C31.9815 0.5 38.5 7.01852 38.5 15C38.5 22.9815 31.9815 29.5 24 29.5C16.0185 29.5 9.5 22.9815 9.5 15ZM35 15C35 8.89822 30.1018 4 24 4C17.8982 4 13 8.89822 13 15C13 21.1018 17.8982 26 24 26C30.1018 26 35 21.1018 35 15Z" fill="#0092D6" stroke="white"/>
</svg>
