<svg width="67" height="67" viewBox="0 0 67 67" fill="none" xmlns="http://www.w3.org/2000/svg">
<path d="M42.4765 11.3509L42.9827 11.5946L43.166 11.0635L46.2334 2.1778C46.2334 2.17779 46.2334 2.17778 46.2334 2.17777C46.3554 1.82439 46.5874 1.51935 46.8953 1.30736C47.2031 1.09548 47.5706 0.987664 47.9441 0.999686C48.1186 1.00586 48.2912 1.03811 48.4562 1.09537L48.457 1.09566C56.7869 3.97031 63.3637 10.5456 66.2383 18.8769L66.2384 18.8773C66.3135 19.0945 66.3451 19.3244 66.3314 19.5539C66.3177 19.7834 66.2589 20.0079 66.1584 20.2146C66.0579 20.4214 65.9176 20.6063 65.7456 20.7588C65.5736 20.9113 65.3733 21.0285 65.156 21.1036L56.2733 24.1709L55.7424 24.3542L55.986 24.8604C57.7922 28.6132 58.834 32.8087 58.834 37.25C58.834 53.1014 45.9354 66 30.084 66C14.2326 66 1.33398 53.1014 1.33398 37.25C1.33398 21.3986 14.2326 8.49997 30.084 8.49997C34.5265 8.49997 38.7227 9.54359 42.4765 11.3509ZM49.4035 5.39996L48.9037 5.17364L48.7246 5.69224L42.2471 24.451L41.9118 25.422L42.8829 25.0869L61.6416 18.6123L62.1603 18.4333L61.934 17.9334C59.4098 12.3573 54.9786 7.92454 49.4035 5.39996ZM28.334 12.6142V12.0673L27.7893 12.1162C15.6565 13.2055 6.03953 22.8225 4.95025 34.9553L4.90134 35.5H5.44824H27.834H28.334V35V12.6142ZM32.3797 12.1192L31.834 12.0692V12.6172V36.3183V36.5254L31.9804 36.6719L48.7558 53.4473L49.143 53.8345L49.4935 53.4138C53.1398 49.0374 55.334 43.4069 55.334 37.25C55.334 33.1534 54.3389 29.3121 52.602 25.8936L52.4048 25.5054L51.9932 25.6474L39.6562 29.9043L39.6558 29.9044C39.3455 30.0118 39.0112 30.0297 38.6911 29.956C38.3711 29.8824 38.0782 29.7202 37.846 29.488C37.6137 29.2558 37.4515 28.9629 37.3779 28.6428L36.8906 28.7549L37.3779 28.6428C37.3043 28.3228 37.3222 27.9885 37.4295 27.6781L37.4296 27.6778L41.6894 15.3409L41.8315 14.9293L41.4433 14.732C38.6708 13.3229 35.6176 12.4162 32.3797 12.1192ZM5.44824 39H4.90134L4.95025 39.5447C6.10747 52.4341 16.8871 62.5 30.084 62.5C36.2409 62.5 41.8714 60.3058 46.2478 56.6595L46.6685 56.309L46.2813 55.9218L29.5059 39.1464L29.3595 39H29.1523H5.44824Z" fill="#0092D6" stroke="white"/>
</svg>
