<svg width="55" height="68" viewBox="0 0 55 68" fill="none" xmlns="http://www.w3.org/2000/svg">
<path d="M23.2395 0.879883C16.8945 0.879883 11.7195 6.05488 11.7195 12.3999C11.7195 16.6524 14.037 20.3536 17.4795 22.3449V44.5749L10.0545 37.1049C7.81578 34.8661 4.14828 34.8661 1.90953 37.1049C-0.329219 39.3436 -0.329219 43.0111 1.90953 45.2499L18.2445 61.6299C21.7545 65.1399 26.5133 67.1199 31.4745 67.1199H41.9595C49.0977 67.1199 54.9195 61.298 54.9195 54.1599V35.4399C54.9195 32.273 52.3264 29.6799 49.1595 29.6799C47.9614 29.6799 46.8477 30.0343 45.9195 30.6699C45.132 28.4255 43.0227 26.7999 40.5195 26.7999C39.0964 26.7999 37.8364 27.3736 36.8295 28.2399C35.8283 26.5355 33.9889 25.3599 31.8795 25.3599C30.822 25.3599 29.8545 25.6693 28.9995 26.1699V22.3449C32.442 20.3536 34.7595 16.6524 34.7595 12.3999C34.7595 6.05488 29.5845 0.879883 23.2395 0.879883ZM23.2395 3.75988C28.0264 3.75988 31.8795 7.61301 31.8795 12.3999C31.8795 14.9649 30.7714 17.2599 28.9995 18.8349V12.3999C28.9995 9.23301 26.4064 6.63988 23.2395 6.63988C20.0727 6.63988 17.4795 9.23301 17.4795 12.3999V18.8349C15.7077 17.2599 14.5995 14.9705 14.5995 12.3999C14.5995 7.61301 18.4527 3.75988 23.2395 3.75988ZM23.2395 9.51988C24.8483 9.51988 26.1195 10.7911 26.1195 12.3999V21.3099C26.097 21.4618 26.097 21.608 26.1195 21.7599V33.9999C26.1083 34.4443 26.3052 34.8661 26.6483 35.1474C26.9858 35.4286 27.4414 35.5355 27.8745 35.4399C28.0208 35.4005 28.1558 35.3386 28.2795 35.2599C28.3077 35.2486 28.3414 35.2318 28.3695 35.2149C28.4539 35.1474 28.527 35.0743 28.5945 34.9899C28.8533 34.7255 28.9939 34.3711 28.9995 33.9999V31.1199C28.9995 29.5111 30.2708 28.2399 31.8795 28.2399C33.4883 28.2399 34.7595 29.5111 34.7595 31.1199V33.9999C34.7652 34.0899 34.782 34.1799 34.8045 34.2699C34.827 34.4105 34.872 34.5455 34.9395 34.6749C34.9958 34.8043 35.0745 34.928 35.1645 35.0349C35.232 35.1024 35.3108 35.1643 35.3895 35.2149C35.4345 35.2486 35.4795 35.2768 35.5245 35.3049C35.6539 35.3724 35.7889 35.4174 35.9295 35.4399C36.1208 35.4793 36.3233 35.4793 36.5145 35.4399C36.6608 35.4005 36.7958 35.3386 36.9195 35.2599C36.9477 35.2486 36.9814 35.2318 37.0095 35.2149C37.0939 35.1474 37.167 35.0743 37.2345 34.9899C37.4933 34.7255 37.6339 34.3711 37.6395 33.9999V32.5599C37.6395 30.9511 38.9108 29.6799 40.5195 29.6799C42.1283 29.6799 43.3995 30.9511 43.3995 32.5599V35.4399C43.3995 35.4849 43.3995 35.5299 43.3995 35.5749V36.8799C43.3939 37.3974 43.6639 37.8811 44.1139 38.1455C44.5639 38.4043 45.1152 38.4043 45.5652 38.1455C46.0152 37.8811 46.2852 37.3974 46.2795 36.8799V35.6649C46.2852 35.5918 46.2852 35.513 46.2795 35.4399C46.2795 33.8311 47.5508 32.5599 49.1595 32.5599C50.7683 32.5599 52.0395 33.8311 52.0395 35.4399V54.1599C52.0395 59.7455 47.5452 64.2399 41.9595 64.2399H31.4745C27.2727 64.2399 23.2395 62.5749 20.2695 59.6049L3.93453 43.2249C2.79828 42.0886 2.79828 40.3111 3.93453 39.1749C5.07078 38.0386 6.84828 38.0386 7.98453 39.1749L17.7045 48.8499C17.7552 48.9286 17.817 49.0074 17.8845 49.0749C17.9127 49.1086 17.9408 49.1368 17.9745 49.1649C18.1658 49.328 18.402 49.4349 18.6495 49.4799C18.8408 49.5193 19.0433 49.5193 19.2345 49.4799C19.3245 49.4574 19.4202 49.4293 19.5045 49.3899C19.5495 49.3618 19.5945 49.3336 19.6395 49.2999C20.0502 49.0636 20.3202 48.6474 20.3595 48.1749C20.3595 48.158 20.3595 48.1468 20.3595 48.1299C20.3595 48.1018 20.3595 48.068 20.3595 48.0399C20.3652 47.978 20.3652 47.9218 20.3595 47.8599V21.6699C20.382 21.518 20.382 21.3718 20.3595 21.2199V12.3999C20.3595 10.7911 21.6308 9.51988 23.2395 9.51988Z" fill="#0092D6"/>
</svg>
