<svg width="73" height="65" viewBox="0 0 73 65" fill="none" xmlns="http://www.w3.org/2000/svg">
<path d="M49.6268 0.917489C48.1607 1.00361 46.7014 1.38317 45.3378 2.06499L37.4065 5.94343H14.9093L2.11807 2.81593C1.97758 2.78029 1.83251 2.76607 1.68776 2.77374C1.34105 2.79112 1.01228 2.93315 0.761974 3.17369C0.51167 3.41423 0.356676 3.7371 0.325525 4.08284C0.294373 4.42859 0.38916 4.77396 0.592437 5.05537C0.795714 5.33678 1.0938 5.53529 1.43182 5.61436L14.5606 8.82343H31.5143L19.1421 14.8731L19.2687 14.8197C17.2144 15.5901 16.648 18.3523 18.1662 19.8991C22.4583 24.6375 29.2752 26.2126 35.2803 23.8422L43.7543 20.5853L61.2368 38.065C62.5605 39.3887 62.5605 41.4747 61.2368 42.7984C59.9131 44.1221 57.8299 44.1221 56.5062 42.7984C56.2343 42.5374 55.871 42.3934 55.4941 42.3972C55.1173 42.401 54.7569 42.5524 54.4904 42.8189C54.2239 43.0854 54.0725 43.4458 54.0687 43.8226C54.0649 44.1995 54.2089 44.5628 54.4699 44.8347C55.7937 46.1584 55.7937 48.2416 54.4699 49.5653C53.1462 50.889 51.0602 50.889 49.7365 49.5653L48.7296 48.5584C48.4578 48.2974 48.0944 48.1533 47.7176 48.1572C47.3407 48.161 46.9804 48.3124 46.7139 48.5789C46.4474 48.8454 46.296 49.2057 46.2921 49.5826C46.2883 49.9595 46.4324 50.3228 46.6934 50.5947C48.0171 51.9184 48.0171 54.0016 46.6934 55.3253C45.3697 56.649 43.2837 56.649 41.9599 55.3253L40.9531 54.3184C40.6812 54.0574 40.3179 53.9134 39.941 53.9172C39.5642 53.921 39.2038 54.0724 38.9373 54.3389C38.6708 54.6054 38.5194 54.9658 38.5156 55.3426C38.5118 55.7195 38.6558 56.0828 38.9168 56.3547C40.2405 57.6784 40.2405 59.7616 38.9168 61.0853C37.5931 62.409 35.5099 62.409 34.1862 61.0853L32.3974 59.2937L33.4662 58.225C35.5747 56.1164 35.5747 52.6835 33.4662 50.575C32.4119 49.5207 31.0244 48.9915 29.6384 48.9915C29.6149 48.9915 29.5916 48.9969 29.5681 48.9972C29.5856 47.5886 29.0646 46.1733 27.9931 45.1019C26.9388 44.0476 25.5541 43.5212 24.1681 43.5212C24.0899 43.5212 24.0127 43.5404 23.9346 43.5437C23.9974 42.0806 23.4902 40.599 22.3765 39.4853C21.3222 38.431 19.9375 37.9047 18.5515 37.9047C18.4734 37.9047 18.3962 37.9238 18.3181 37.9272C18.3803 36.4648 17.8731 34.9819 16.7599 33.8687C15.7057 32.8145 14.3209 32.2881 12.9349 32.2881C11.549 32.2881 10.1642 32.8145 9.10995 33.8687L7.78526 35.1934L2.02245 34.1894C1.92791 34.1714 1.8318 34.1629 1.73557 34.164C1.37399 34.1674 1.02687 34.3066 0.763203 34.554C0.499533 34.8015 0.338602 35.1391 0.312386 35.4997C0.28617 35.8604 0.396586 36.2177 0.621698 36.5007C0.84681 36.7837 1.17014 36.9716 1.52745 37.0272L6.26089 37.8484C5.82772 39.6256 6.28576 41.5774 7.66995 42.9615C8.78296 44.0746 10.2641 44.5817 11.7256 44.5197C11.6634 45.9821 12.1705 47.4649 13.2837 48.5781C14.3974 49.6918 15.879 50.199 17.3421 50.1362C17.2793 51.5993 17.7865 53.0809 18.9003 54.1947C19.9882 55.2826 21.4275 55.7988 22.8574 55.764C22.8232 57.1856 23.3128 58.6044 24.3734 59.665C25.8824 61.174 28.0663 61.5843 29.9618 60.9334L32.1499 63.1215C34.5702 65.5418 38.5328 65.5418 40.9531 63.1215C42.1248 61.9498 42.7018 60.414 42.739 58.869C44.8164 59.4179 47.1096 58.9816 48.7296 57.3615C49.9014 56.1898 50.4784 54.654 50.5156 53.109C52.5923 53.6567 54.8868 53.2209 56.5062 51.6015C57.8926 50.2151 58.3901 48.3357 58.1881 46.5165C60.0073 46.7185 61.8866 46.2211 63.2731 44.8347C64.8137 43.2941 65.3644 41.1294 64.9437 39.1337L65.8184 38.259L71.1087 37.4631C71.4679 37.4122 71.7947 37.2277 72.0237 36.9463C72.2527 36.665 72.3671 36.3076 72.344 35.9455C72.3209 35.5835 72.162 35.2435 71.8991 34.9935C71.6362 34.7435 71.2886 34.602 70.9259 34.5972C70.8439 34.5968 70.762 34.6033 70.6812 34.6169L64.4515 35.5506L63.5881 36.414C63.48 36.2869 63.393 36.1487 63.2731 36.0287L45.5599 18.3184C45.4877 18.2434 45.4076 18.1765 45.3209 18.1187C45.1409 17.8415 44.8711 17.6346 44.5567 17.5327C44.2423 17.4308 43.9024 17.4401 43.594 17.5591L34.2284 21.1619L34.2228 21.1647C29.2992 23.1082 23.7558 21.8148 20.2699 17.9416L20.2446 17.9134L20.2165 17.8853C20.0313 17.7001 20.0404 17.6072 20.2812 17.5169L20.3459 17.4916L38.0928 8.81218C38.4271 8.7768 38.7385 8.62556 38.9731 8.38468L46.6203 4.64405L46.6259 4.64124C49.2958 3.30628 52.4171 3.55488 54.8581 5.22061L55.5162 6.01093L55.6793 6.12343C58.3212 7.93969 61.5265 8.44937 64.5134 7.61968L71.1959 6.19936C71.3856 6.16486 71.5665 6.0926 71.7278 5.98687C71.889 5.88114 72.0274 5.7441 72.1348 5.58387C72.2421 5.42364 72.3161 5.24349 72.3525 5.05411C72.3889 4.86473 72.3868 4.66997 72.3465 4.48138C72.3062 4.2928 72.2284 4.11424 72.1178 3.95628C72.0071 3.79833 71.8659 3.6642 71.7025 3.56186C71.539 3.45951 71.3567 3.39104 71.1663 3.3605C70.9759 3.32995 70.7813 3.33796 70.594 3.38405L63.7849 4.83249L63.7428 4.84374C61.583 5.44368 59.3602 5.08734 57.4174 3.79186L56.7593 3.00155L56.6018 2.89186C54.9481 1.73422 53.0396 1.07367 51.0921 0.928739C50.6053 0.892506 50.1155 0.888782 49.6268 0.917489ZM12.9349 35.1119C13.565 35.1119 14.194 35.3753 14.7237 35.905C15.7832 36.9644 15.7832 38.4258 14.7237 39.4853L13.2837 40.9253C12.2242 41.9848 10.7657 41.9848 9.7062 40.9253C8.84539 40.0645 8.69569 38.9409 9.2337 37.9806C9.50768 37.8046 9.7139 37.5408 9.8187 37.2325L11.1462 35.905C11.6759 35.3753 12.3049 35.1119 12.9349 35.1119ZM18.5515 40.7284C19.1815 40.7284 19.8105 40.9918 20.3403 41.5215C21.3997 42.581 21.3997 44.0424 20.3403 45.1019L18.9003 46.5419C17.8408 47.6013 16.3794 47.6013 15.3199 46.5419C14.2605 45.4824 14.2605 44.021 15.3199 42.9615L16.7599 41.5215C17.2897 40.9918 17.9215 40.7284 18.5515 40.7284ZM24.1681 46.345C24.7981 46.345 25.4271 46.6084 25.9568 47.1381C26.8117 47.993 26.9654 49.1071 26.4406 50.0631C26.2249 50.2223 26.0085 50.3798 25.8134 50.575L24.3481 52.0375L24.3256 52.0628C24.1686 52.2354 24.0444 52.4271 23.9121 52.614C22.9452 53.1729 21.8065 53.0284 20.9365 52.1584C19.8771 51.099 19.8771 49.6376 20.9365 48.5781L22.3765 47.1381C22.9062 46.6084 23.5381 46.345 24.1681 46.345ZM29.6384 51.8153C30.2684 51.8153 30.9002 52.0815 31.4299 52.6112C32.4894 53.6707 32.4894 55.1293 31.4299 56.1887L29.9899 57.6287C28.9305 58.6882 27.4691 58.6882 26.4096 57.6287C25.7212 56.9403 25.5882 55.592 26.0834 54.5772C26.2413 54.4514 26.4071 54.3407 26.5531 54.1947L27.9931 52.7547C28.1882 52.5595 28.3459 52.3433 28.5049 52.1275C28.8682 51.9275 29.2516 51.8153 29.6384 51.8153Z" fill="#0092D6"/>
</svg>
