<svg width="61" height="64" viewBox="0 0 61 64" fill="none" xmlns="http://www.w3.org/2000/svg">
<path d="M42.8184 7H43.2628L43.3149 6.55865C43.6815 3.45482 46.2509 1 49.416 1H53.916C57.3411 1 60.166 3.82489 60.166 7.25V11.75C60.166 15.1751 57.3411 18 53.916 18H49.416C45.9909 18 43.166 15.1751 43.166 11.75V11V10.5H42.666H37.416C34.2148 10.5 31.666 13.0488 31.666 16.25V29.75V30.25H32.166H42.666H43.166V29.75C43.166 26.3249 45.9909 23.5 49.416 23.5H53.916C57.3411 23.5 60.166 26.3249 60.166 29.75V34.25C60.166 37.6751 57.3411 40.5 53.916 40.5H49.416C45.9909 40.5 43.166 37.6751 43.166 34.25V33.75H42.666H32.166H31.666V34.25V47.75C31.666 50.9512 34.2148 53.5 37.416 53.5H42.666H43.166V53V52.25C43.166 48.8249 45.9909 46 49.416 46H53.916C57.3411 46 60.166 48.8249 60.166 52.25V56.75C60.166 60.1751 57.3411 63 53.916 63H49.416C46.2509 63 43.6815 60.5452 43.3149 57.4414L43.2628 57H42.8184H37.416C32.3343 57 28.166 52.8318 28.166 47.75V34.25V33.75H27.666H18.666H18.166V34.25C18.166 37.6751 15.3411 40.5 11.916 40.5H7.41602C3.99091 40.5 1.16602 37.6751 1.16602 34.25V29.75C1.16602 26.3249 3.99091 23.5 7.41602 23.5H11.916C15.3411 23.5 18.166 26.3249 18.166 29.75V30.25H18.666H27.666H28.166V29.75V16.25C28.166 11.1682 32.3343 7 37.416 7H42.8184ZM46.6726 9.0381L46.666 9.07835V9.11914V11.75C46.666 13.2959 47.8701 14.5 49.416 14.5H53.916C55.4619 14.5 56.666 13.2959 56.666 11.75V7.25C56.666 5.70411 55.4619 4.5 53.916 4.5H49.416C47.8701 4.5 46.666 5.70411 46.666 7.25V8.38965V8.43044L46.6726 8.47069C46.7035 8.65857 46.7035 8.85022 46.6726 9.0381ZM46.6726 55.5381L46.666 55.5784V55.6191V56.75C46.666 58.2959 47.8701 59.5 49.416 59.5H53.916C55.4619 59.5 56.666 58.2959 56.666 56.75V52.25C56.666 50.7041 55.4619 49.5 53.916 49.5H49.416C47.8701 49.5 46.666 50.7041 46.666 52.25V54.8896V54.9304L46.6726 54.9707C46.7035 55.1586 46.7035 55.3502 46.6726 55.5381ZM11.916 27H7.41602C5.87012 27 4.66602 28.2041 4.66602 29.75V34.25C4.66602 35.7959 5.87012 37 7.41602 37H11.916C13.4619 37 14.666 35.7959 14.666 34.25V29.75C14.666 28.2041 13.4619 27 11.916 27ZM53.916 27H49.416C47.8701 27 46.666 28.2041 46.666 29.75V34.25C46.666 35.7959 47.8701 37 49.416 37H53.916C55.4619 37 56.666 35.7959 56.666 34.25V29.75C56.666 28.2041 55.4619 27 53.916 27Z" fill="#0092D6" stroke="white"/>
</svg>
