<svg width="70" height="70" viewBox="0 0 70 70" fill="none" xmlns="http://www.w3.org/2000/svg">
<path d="M33.5595 0.439941V26.3599H36.4395V0.439941H33.5595ZM30.6795 5.10588C17.4646 7.00956 7.00489 17.4694 5.09977 30.6799H8.00227C9.85987 19.0591 19.0529 9.87298 30.6795 8.01682V5.10588ZM39.3195 5.10588V8.01682C50.946 9.87298 60.1377 19.0591 61.9938 30.6799H64.8991C62.9955 17.4694 52.5343 7.00956 39.3195 5.10588ZM30.6795 19.7731C25.4163 21.2692 21.2702 25.4211 19.7726 30.6799H22.7904C24.0965 27.0123 27.0089 24.1011 30.6795 22.7965V19.7731ZM39.3195 19.7731V22.7965C42.9915 24.1011 45.9024 27.0123 47.2085 30.6799H50.2263C48.7287 25.4211 44.5827 21.2692 39.3195 19.7731ZM35.0051 30.6799C32.6204 30.6799 30.6795 32.6167 30.6795 34.9999C30.6795 37.3831 32.6204 39.3199 35.0051 39.3199C37.3883 39.3199 39.2463 37.3831 39.2463 34.9999C39.2463 32.6167 37.3897 30.6799 35.0051 30.6799ZM0.439453 33.5599V36.4399H26.3595V33.5599H0.439453ZM43.6395 33.5599V36.4399H69.5595V33.5599H43.6395ZM5.09977 39.3199C7.00489 52.5305 17.4646 62.9903 30.6795 64.894V61.9831C19.0529 60.1269 9.86124 50.9407 8.00508 39.3199H5.09977ZM19.7726 39.3199C21.2702 44.5788 25.4163 48.7307 30.6795 50.2268V47.2034C27.0075 45.8987 24.0965 42.9876 22.7904 39.3199H19.7726ZM47.2029 39.3199C45.8983 42.9919 42.9871 45.9029 39.3195 47.209V50.2268C44.5783 48.7292 48.7302 44.5831 50.2263 39.3199H47.2029ZM61.9826 39.3199C60.1264 50.9465 50.9403 60.1382 39.3195 61.9943V64.8996C52.53 62.996 62.9898 52.5348 64.8935 39.3199H61.9826ZM33.5595 43.6399V69.5599H36.4395V43.6399H33.5595Z" fill="#0092D6"/>
</svg>
