<svg width="68" height="65" viewBox="0 0 68 65" fill="none" xmlns="http://www.w3.org/2000/svg">
<path d="M34.0009 0.76001C15.7534 0.76001 0.880859 13.5456 0.880859 29.5544C0.880859 38.8413 5.96586 46.93 13.7846 52.2119C13.7734 52.5213 13.7959 53.0275 13.3909 54.535C12.8846 56.4081 11.8609 59.0406 9.79086 62.0106L8.31711 64.12H10.8934C19.8034 64.12 24.9615 58.3094 25.7602 57.3756C28.4152 58 31.1434 58.3375 34.0009 58.3375C52.2427 58.3375 67.1209 45.5519 67.1209 29.5488C67.1209 13.5456 52.2484 0.76001 34.0009 0.76001ZM34.0009 3.64001C50.6734 3.64001 64.2409 15.2613 64.2409 29.5544C64.2409 43.8419 50.6734 55.4631 34.0009 55.4631C31.4527 55.4631 28.9721 55.1706 26.4184 54.5744L24.7084 54.175L23.5721 55.5025C22.5877 56.6556 19.2746 60.0419 13.8184 60.9925C14.8646 59.1138 15.6521 57.2013 16.164 55.2831C16.569 53.7981 16.6421 53.0163 16.659 52.33L16.7265 50.7269L15.3934 49.8269C8.00211 44.8263 3.76086 37.435 3.76086 29.5544C3.76086 15.2613 17.3284 3.64001 34.0009 3.64001ZM33.894 13.72C33.2977 13.72 32.7634 14.0856 32.544 14.6425L29.2759 23.1306L20.1859 23.62C19.5896 23.6538 19.0777 24.0531 18.8921 24.6156C18.7121 25.1781 18.8921 25.8025 19.3534 26.1794L26.4184 31.9169L24.0784 40.7088C23.9209 41.2825 24.1402 41.8956 24.6184 42.2444C25.1021 42.5931 25.749 42.6156 26.2496 42.2894L33.8884 37.345L41.5327 42.2894C42.0277 42.6156 42.6802 42.5931 43.1584 42.2444C43.6421 41.8956 43.8559 41.2825 43.704 40.7088L41.3584 31.9169L48.4234 26.1794C48.8846 25.8025 49.0702 25.1781 48.8846 24.6156C48.7046 24.0531 48.1871 23.6538 47.5965 23.62L38.5065 23.1306L35.2327 14.6425C35.019 14.0856 34.4902 13.72 33.894 13.72ZM33.8884 19.165L36.1552 25.0375C36.3577 25.5663 36.8527 25.9263 37.4209 25.96L43.7152 26.2975L38.8215 30.2688C38.3827 30.6288 38.1915 31.2081 38.3377 31.7594L39.9634 37.84L34.6759 34.42C34.1977 34.1106 33.5846 34.1106 33.1065 34.42L27.819 37.84L29.439 31.7594C29.5852 31.2081 29.3996 30.6288 28.9609 30.2688L24.0671 26.2975L30.3559 25.96C30.924 25.9263 31.419 25.5663 31.6215 25.0375L33.8884 19.165Z" fill="#0092D6"/>
</svg>
