<svg width="32" height="32" viewBox="0 0 32 32" fill="none" xmlns="http://www.w3.org/2000/svg" transform="scale(-1, 1)" style="transform: scale(-1, 1);">
  <path d="M17.6862 5.99089C17.9459 5.99846 18.1925 6.1068 18.3737 6.29298L27.707 15.6263C27.8945 15.8139 27.9998 16.0682 27.9998 16.3333C27.9998 16.5985 27.8945 16.8528 27.707 17.0404L18.3737 26.3737C18.2816 26.4697 18.1712 26.5463 18.0491 26.5991C17.9269 26.6519 17.7955 26.6797 17.6625 26.6811C17.5294 26.6824 17.3975 26.6572 17.2743 26.607C17.1511 26.5567 17.0392 26.4823 16.9451 26.3882C16.851 26.2941 16.7767 26.1822 16.7264 26.0591C16.6761 25.9359 16.6509 25.8039 16.6523 25.6709C16.6536 25.5378 16.6815 25.4064 16.7343 25.2843C16.7871 25.1622 16.8637 25.0518 16.9596 24.9596L24.5859 17.3333H5.00001C4.8675 17.3352 4.73594 17.3107 4.61297 17.2613C4.49 17.2119 4.37808 17.1385 4.28371 17.0455C4.18934 16.9525 4.1144 16.8416 4.06326 16.7193C4.01211 16.5971 3.98577 16.4659 3.98577 16.3333C3.98577 16.2008 4.01211 16.0696 4.06326 15.9474C4.1144 15.8251 4.18934 15.7142 4.28371 15.6212C4.37808 15.5281 4.49 15.4548 4.61297 15.4054C4.73594 15.3559 4.8675 15.3315 5.00001 15.3333H24.5859L16.9596 7.70704C16.8154 7.56654 16.7169 7.38575 16.6771 7.18835C16.6372 6.99094 16.6579 6.78612 16.7365 6.60067C16.815 6.41523 16.9476 6.2578 17.1171 6.149C17.2866 6.0402 17.4849 5.9851 17.6862 5.99089Z" fill="white"/>
</svg>
