<svg width="35" height="34" viewBox="0 0 35 34" fill="none" xmlns="http://www.w3.org/2000/svg">
<g clip-path="url(#clip0_437_1062)">
<rect x="0.000976562" y="0.5" width="35" height="33" fill="#E1E7FE"/>
<path d="M14.279 24.3349C12.4359 24.3349 10.7743 23.2881 10.0688 21.6826C9.36339 20.0772 9.75304 18.2291 11.0561 17.0001L12.9902 15.1765L14.279 16.3917L12.3458 18.2144C11.655 18.8658 11.3852 19.8151 11.6381 20.7049C11.8909 21.5947 12.628 22.2897 13.5717 22.5281C14.5154 22.7665 15.5223 22.5121 16.2132 21.8607L18.1464 20.038L19.4352 21.254L17.502 23.0768C16.6489 23.885 15.4884 24.338 14.279 24.3349ZM14.9234 20.6456L13.6346 19.4304L20.0796 13.3538L21.3684 14.5689L14.9244 20.6447L14.9234 20.6456ZM22.0137 18.8229L20.724 17.6077L22.6572 15.785C23.3574 15.1356 23.6344 14.1819 23.3829 13.2867C23.1314 12.3915 22.39 11.6923 21.4406 11.455C20.4912 11.2176 19.4797 11.4786 18.7908 12.1386L16.8566 13.9614L15.5678 12.7462L17.502 10.9226C19.2839 9.25712 22.1586 9.26305 23.9328 10.9359C25.707 12.6087 25.7133 15.3191 23.9469 16.9993L22.0137 18.822V18.8229Z" fill="#516CF7"/>
</g>
<defs>
<clipPath id="clip0_437_1062">
<rect y="0.5" width="35" height="33" rx="16.5" fill="white"/>
</clipPath>
</defs>
</svg>
