<svg width="24" height="24" viewBox="0 0 24 24" fill="none" xmlns="http://www.w3.org/2000/svg">
<path fill-rule="evenodd" clip-rule="evenodd" d="M10.8031 4.13625C12.5688 2.3706 15.4315 2.3706 17.1971 4.13625C18.9628 5.9019 18.9628 8.76459 17.1971 10.5302L11.8638 15.8636C10.8345 16.8929 9.16573 16.8929 8.13646 15.8636C7.10718 14.8343 7.10718 13.1655 8.13646 12.1363L13.4698 6.80292C13.7627 6.51003 14.2376 6.51003 14.5305 6.80292C14.8233 7.09581 14.8233 7.57069 14.5305 7.86358L9.19712 13.1969C8.75363 13.6404 8.75363 14.3594 9.19712 14.8029C9.6406 15.2464 10.3596 15.2464 10.8031 14.8029L16.1365 9.46959C17.3163 8.28972 17.3163 6.37678 16.1365 5.19691C14.9566 4.01704 13.0436 4.01705 11.8638 5.19691L6.53045 10.5303C4.6142 12.4465 4.6142 15.5533 6.53045 17.4696C8.44669 19.3858 11.5535 19.3858 13.4698 17.4696L18.8031 12.1363C19.096 11.8434 19.5709 11.8434 19.8638 12.1363C20.1567 12.4291 20.1567 12.904 19.8638 13.1969L14.5305 18.5302C12.0284 21.0323 7.97182 21.0323 5.46979 18.5302C2.96776 16.0282 2.96775 11.9716 5.46979 9.46959L10.8031 4.13625Z" fill="#8A8686"/>
</svg>
