<svg width="28" height="28" viewBox="0 0 28 28" fill="none" xmlns="http://www.w3.org/2000/svg">
<path fill-rule="evenodd" clip-rule="evenodd" d="M11.2 2.8C11.2 1.2536 12.4536 0 14 0C15.5464 0 16.8 1.2536 16.8 2.8V25.2C16.8 26.7464 15.5464 28 14 28C12.4536 28 11.2 26.7464 11.2 25.2V2.8ZM0 10.5777C0 9.03135 1.2536 7.77774 2.8 7.77774C4.3464 7.77774 5.6 9.03135 5.6 10.5777V25.2C5.6 26.7464 4.3464 28 2.8 28C1.2536 28 0 26.7464 0 25.2V10.5777ZM25.1999 7.77774C23.6535 7.77774 22.3999 9.03135 22.3999 10.5777V25.2C22.3999 26.7464 23.6535 28 25.1999 28C26.7463 28 27.9999 26.7464 27.9999 25.2V10.5777C27.9999 9.03135 26.7463 7.77774 25.1999 7.77774Z" fill="#00D62E"/>
</svg>
