<svg width="20" height="24" viewBox="0 0 20 24" fill="none" xmlns="http://www.w3.org/2000/svg">
<path fill-rule="evenodd" clip-rule="evenodd" d="M1.34461 14.0048V13.7758C1.3782 13.0985 1.59529 12.4422 1.97349 11.8747C2.603 11.1929 3.03394 10.3574 3.22109 9.45586C3.22109 8.75909 3.22109 8.05237 3.28195 7.35559C3.59638 4.00114 6.91318 1.68188 10.1894 1.68188H10.2705C13.5468 1.68188 16.8636 4.00114 17.1881 7.35559C17.249 8.05237 17.1881 8.75909 17.2389 9.45586C17.4285 10.3595 17.859 11.1976 18.4865 11.8846C18.8675 12.4471 19.0849 13.101 19.1153 13.7758V13.9948C19.138 14.9048 18.8246 15.7922 18.2329 16.4933C17.451 17.313 16.3901 17.8229 15.2508 17.9266C11.9102 18.285 8.53965 18.285 5.19899 17.9266C4.06104 17.8185 3.00159 17.3092 2.21692 16.4933C1.63439 15.7917 1.32518 14.9096 1.34461 14.0048Z" stroke="#868E96" stroke-width="1.56818" stroke-linecap="round" stroke-linejoin="round"/>
<path d="M7.67578 21.3905C8.19775 22.0457 8.96426 22.4697 9.80568 22.5687C10.6471 22.6677 11.494 22.4335 12.159 21.9181C12.3636 21.7656 12.5476 21.5883 12.7068 21.3905" stroke="#868E96" stroke-width="1.56818" stroke-linecap="round" stroke-linejoin="round"/>
</svg>
