<svg width="21" height="16" viewBox="0 0 21 16" fill="none" xmlns="http://www.w3.org/2000/svg">
<path d="M19.528 7.63539C19.267 7.59249 18.8495 7.5496 18.6408 7.5067C16.4489 7.20643 15.5617 7.12064 14.6223 6.99196C13.161 6.82037 12.9001 6.77748 12.9001 6.73458C12.9001 6.73458 12.9523 6.64879 13.0045 6.6059C13.3698 6.26273 15.1442 4.24665 15.1442 4.20375C15.1442 4.11796 14.7788 4.33244 12.6913 5.87668C12.2738 6.13405 11.9607 6.34853 11.9607 6.34853C11.9607 6.34853 11.8563 5.83378 11.7519 5.23324C11.5954 4.24665 11.3344 2.87399 11.1779 2.01609C11.0213 1.11528 10.9691 0.857909 10.9169 0.643432C10.8126 0.343163 10.7082 0 10.7082 0C10.7082 0 10.656 -4.15475e-08 10.656 0.0428954C10.6038 0.0857908 10.0297 3.08847 9.61224 5.27614C9.50787 5.83378 9.40349 6.34853 9.3513 6.34853C9.29911 6.39142 9.19474 6.26273 8.15098 5.53351C6.95065 4.6756 6.95065 4.6756 6.58534 4.41823C6.27221 4.20375 6.11565 4.16086 6.22003 4.24665C6.27221 4.37534 7.15941 5.27614 7.73347 5.91957C8.41192 6.64879 8.51629 6.77748 8.46411 6.77748C8.46411 6.77748 8.30754 6.82038 8.15098 6.82038C7.6291 6.86327 3.2975 7.37802 2.56687 7.5067C2.30593 7.5496 1.78405 7.59249 1.36655 7.67828C0.949042 7.72118 0.531539 7.80697 0.531539 7.80697C0.427163 7.84987 0.531538 7.84987 1.62748 7.97855C2.77562 8.10724 3.24531 8.15013 4.44563 8.32172C5.0197 8.36461 6.16784 8.53619 7.00284 8.62198C7.83785 8.70777 8.56848 8.79356 8.56848 8.83646C8.56848 8.83646 8.30754 9.17962 7.83785 9.65147C6.95066 10.5523 6.27221 11.2386 6.22003 11.3244C6.16784 11.4102 6.37659 11.3244 7.26378 10.7239C9.29911 9.35121 9.40349 9.30831 9.45568 9.35121C9.45568 9.35121 9.56005 9.82306 9.61224 10.3807C9.71662 10.9383 9.82099 11.6676 9.92537 12.0536C10.3951 14.6273 10.656 16 10.656 16H10.7082C10.7082 16 10.9169 15.0134 11.0213 14.4987C11.0213 14.3271 11.1257 14.0697 11.1257 13.8552C11.3344 12.8257 11.491 11.7962 11.6998 10.6381C11.8041 9.95174 11.9085 9.35121 11.9607 9.35121C11.9607 9.35121 12.3782 9.60858 12.9001 9.90885C14.5179 10.9812 15.1964 11.4102 15.1964 11.3244C15.1964 11.3244 14.1004 10.1233 13.3176 9.30831C13.1088 9.05094 12.9001 8.83646 12.9001 8.83646C12.9001 8.83646 14.1526 8.66488 15.666 8.4933C17.1795 8.32172 18.9539 8.10724 19.6323 8.02145C20.3108 7.93566 20.8848 7.84987 20.937 7.84987C20.9892 7.80697 20.7283 7.76407 19.528 7.63539ZM10.7082 8.96515C9.92537 8.96515 9.3513 8.4504 9.3513 7.84987C9.3513 7.20643 9.97756 6.73458 10.7082 6.73458C11.491 6.73458 12.0651 7.24933 12.0651 7.84987C12.0651 8.4504 11.491 8.96515 10.7082 8.96515Z" fill="#65B65E"/>
</svg>
