<svg width="30" height="31" viewBox="0 0 30 31" fill="none" xmlns="http://www.w3.org/2000/svg">
<rect width="30" height="30" transform="translate(0 0.5)" fill="#0A66C2"/>
<path fill-rule="evenodd" clip-rule="evenodd" d="M10.0003 8.83341C10.0003 9.75389 9.25413 10.5001 8.33366 10.5001C7.41318 10.5001 6.66699 9.75389 6.66699 8.83341C6.66699 7.91294 7.41318 7.16675 8.33366 7.16675C9.25413 7.16675 10.0003 7.91294 10.0003 8.83341ZM10.0003 12.5834V23.8334H6.66699V12.5834H10.0003ZM12.5003 12.5834H15.8337V13.2846C16.355 13.1003 16.9159 13.0001 17.5003 13.0001C20.2617 13.0001 22.5003 15.2387 22.5003 18.0001V23.8334H19.167V18.0001C19.167 17.0796 18.4208 16.3334 17.5003 16.3334C16.5799 16.3334 15.8337 17.0796 15.8337 18.0001V23.8334H12.5003V18.0001V12.5834Z" fill="white"/>
</svg>
