<svg width="44" height="44" viewBox="0 0 44 44" fill="none" xmlns="http://www.w3.org/2000/svg">
<path fill-rule="evenodd" clip-rule="evenodd" d="M14.6667 2.29175C15.4261 2.29175 16.0417 2.90736 16.0417 3.66675V6.41675H27.9583V3.66675C27.9583 2.90736 28.5739 2.29175 29.3333 2.29175C30.0927 2.29175 30.7083 2.90736 30.7083 3.66675V6.41675H34.5C36.7091 6.41675 38.5 8.20761 38.5 10.4167V15.1251H5.5V10.4167C5.5 8.20761 7.29086 6.41675 9.5 6.41675H13.2917V3.66675C13.2917 2.90736 13.9073 2.29175 14.6667 2.29175ZM5.5 17.8751H38.5V36.3334C38.5 38.5426 36.7091 40.3334 34.5 40.3334H9.5C7.29086 40.3334 5.5 38.5426 5.5 36.3334V17.8751Z" fill="#F39C12"/>
</svg>
