<svg width="20" height="20" viewBox="0 0 20 20" fill="none" xmlns="http://www.w3.org/2000/svg">
<path d="M4.79167 0C2.1527 0 0 2.15271 0 4.79167C0 7.43063 2.1527 9.58333 4.79167 9.58333C7.43063 9.58333 9.58333 7.43063 9.58333 4.79167C9.58333 2.15271 7.43063 0 4.79167 0ZM4.79167 1.25C6.75508 1.25 8.33333 2.82825 8.33333 4.79167C8.33333 6.75508 6.75508 8.33333 4.79167 8.33333C2.82825 8.33333 1.25 6.75508 1.25 4.79167C1.25 2.82825 2.82825 1.25 4.79167 1.25ZM4.7819 2.07438C4.61628 2.07697 4.45846 2.14519 4.34311 2.26405C4.22775 2.38292 4.16429 2.54271 4.16667 2.70833V4.79167C4.1667 4.95742 4.23256 5.11637 4.34977 5.23356L5.18311 6.06689C5.2407 6.12688 5.30968 6.17476 5.38601 6.20775C5.46234 6.24074 5.54448 6.25817 5.62763 6.25902C5.71078 6.25986 5.79326 6.24411 5.87025 6.21268C5.94723 6.18125 6.01717 6.13477 6.07597 6.07597C6.13477 6.01717 6.18125 5.94723 6.21268 5.87025C6.24411 5.79326 6.25986 5.71078 6.25902 5.62763C6.25817 5.54448 6.24074 5.46234 6.20775 5.38601C6.17476 5.30968 6.12688 5.2407 6.06689 5.18311L5.41667 4.53288V2.70833C5.41787 2.62468 5.40226 2.54164 5.37078 2.46413C5.33929 2.38662 5.29257 2.31622 5.23337 2.2571C5.17418 2.19798 5.10371 2.15134 5.02616 2.11996C4.94861 2.08857 4.86555 2.07307 4.7819 2.07438ZM9.92513 2.5C10.1018 2.895 10.2349 3.31333 10.3166 3.75H14.7917C15.5958 3.75 16.25 4.40417 16.25 5.20833V5.83333H10.3166C10.2345 6.27 10.1014 6.68833 9.92513 7.08333H16.25V14.7917C16.25 15.5958 15.5958 16.25 14.7917 16.25H5.20833C4.40417 16.25 3.75 15.5958 3.75 14.7917V10.3166C3.31333 10.2345 2.895 10.1014 2.5 9.92513V14.7917C2.5 16.285 3.715 17.5 5.20833 17.5H14.7917C16.285 17.5 17.5 16.285 17.5 14.7917V5.20833C17.5 3.715 16.285 2.5 14.7917 2.5H9.92513ZM10 8.75C9.72373 8.75 9.45878 8.85975 9.26343 9.0551C9.06808 9.25045 8.95833 9.5154 8.95833 9.79167C8.95833 10.0679 9.06808 10.3329 9.26343 10.5282C9.45878 10.7236 9.72373 10.8333 10 10.8333C10.2763 10.8333 10.5412 10.7236 10.7366 10.5282C10.9319 10.3329 11.0417 10.0679 11.0417 9.79167C11.0417 9.5154 10.9319 9.25045 10.7366 9.0551C10.5412 8.85975 10.2763 8.75 10 8.75ZM13.5417 8.75C13.2654 8.75 13.0004 8.85975 12.8051 9.0551C12.6097 9.25045 12.5 9.5154 12.5 9.79167C12.5 10.0679 12.6097 10.3329 12.8051 10.5282C13.0004 10.7236 13.2654 10.8333 13.5417 10.8333C13.8179 10.8333 14.0829 10.7236 14.2782 10.5282C14.4736 10.3329 14.5833 10.0679 14.5833 9.79167C14.5833 9.5154 14.4736 9.25045 14.2782 9.0551C14.0829 8.85975 13.8179 8.75 13.5417 8.75ZM6.45833 12.5C6.18207 12.5 5.91711 12.6097 5.72176 12.8051C5.52641 13.0004 5.41667 13.2654 5.41667 13.5417C5.41667 13.8179 5.52641 14.0829 5.72176 14.2782C5.91711 14.4736 6.18207 14.5833 6.45833 14.5833C6.7346 14.5833 6.99955 14.4736 7.1949 14.2782C7.39025 14.0829 7.5 13.8179 7.5 13.5417C7.5 13.2654 7.39025 13.0004 7.1949 12.8051C6.99955 12.6097 6.7346 12.5 6.45833 12.5ZM10 12.5C9.72373 12.5 9.45878 12.6097 9.26343 12.8051C9.06808 13.0004 8.95833 13.2654 8.95833 13.5417C8.95833 13.8179 9.06808 14.0829 9.26343 14.2782C9.45878 14.4736 9.72373 14.5833 10 14.5833C10.2763 14.5833 10.5412 14.4736 10.7366 14.2782C10.9319 14.0829 11.0417 13.8179 11.0417 13.5417C11.0417 13.2654 10.9319 13.0004 10.7366 12.8051C10.5412 12.6097 10.2763 12.5 10 12.5Z" fill="#0092D6"/>
</svg>
