<svg width="20" height="16" viewBox="0 0 20 16" fill="none" xmlns="http://www.w3.org/2000/svg">
<path d="M16.6668 6.75004C16.4458 6.75004 16.2339 6.83784 16.0776 6.99412C15.9213 7.1504 15.8335 7.36236 15.8335 7.58337V13.4167C15.8335 13.6377 15.7457 13.8497 15.5894 14.006C15.4331 14.1622 15.2212 14.25 15.0002 14.25H3.3335C3.11248 14.25 2.90052 14.1622 2.74424 14.006C2.58796 13.8497 2.50016 13.6377 2.50016 13.4167V6.75004C2.50016 6.52903 2.58796 6.31707 2.74424 6.16079C2.90052 6.0045 3.11248 5.91671 3.3335 5.91671H5.00016C5.18188 5.92619 5.36172 5.87594 5.51219 5.77361C5.66267 5.67129 5.77551 5.52252 5.8335 5.35004L6.2835 3.98337C6.3394 3.81786 6.44591 3.67409 6.58797 3.57241C6.73003 3.47072 6.90046 3.41626 7.07516 3.41671H11.6668C11.8878 3.41671 12.0998 3.32891 12.2561 3.17263C12.4124 3.01635 12.5002 2.80439 12.5002 2.58337C12.5002 2.36236 12.4124 2.1504 12.2561 1.99412C12.0998 1.83784 11.8878 1.75004 11.6668 1.75004H7.03349C6.50979 1.75102 5.99961 1.91644 5.57497 2.22296C5.15033 2.52948 4.83267 2.96161 4.66683 3.45837L4.40016 4.29171H3.3335C2.67045 4.29171 2.03457 4.5551 1.56573 5.02394C1.09689 5.49278 0.833496 6.12867 0.833496 6.79171V13.4584C0.833496 14.1214 1.09689 14.7573 1.56573 15.2261C2.03457 15.695 2.67045 15.9584 3.3335 15.9584H15.0002C15.6632 15.9584 16.2991 15.695 16.7679 15.2261C17.2368 14.7573 17.5002 14.1214 17.5002 13.4584V7.62504C17.5058 7.51215 17.4884 7.39929 17.4491 7.29333C17.4098 7.18736 17.3493 7.09051 17.2713 7.00866C17.1934 6.92681 17.0996 6.86167 16.9957 6.81721C16.8917 6.77275 16.7799 6.7499 16.6668 6.75004ZM9.16683 5.91671C8.50756 5.91671 7.86309 6.1122 7.31493 6.47848C6.76676 6.84475 6.33952 7.36534 6.08723 7.97443C5.83494 8.58352 5.76893 9.25374 5.89754 9.90034C6.02616 10.5469 6.34363 11.1409 6.80981 11.6071C7.27598 12.0732 7.86992 12.3907 8.51653 12.5193C9.16313 12.6479 9.83335 12.5819 10.4424 12.3296C11.0515 12.0773 11.5721 11.6501 11.9384 11.1019C12.3047 10.5538 12.5002 9.90931 12.5002 9.25004C12.5002 8.36599 12.149 7.51814 11.5239 6.89302C10.8987 6.2679 10.0509 5.91671 9.16683 5.91671ZM9.16683 10.9167C8.83719 10.9167 8.51496 10.819 8.24088 10.6358C7.9668 10.4527 7.75318 10.1924 7.62703 9.88785C7.50088 9.5833 7.46788 9.24819 7.53219 8.92489C7.5965 8.60159 7.75523 8.30462 7.98832 8.07153C8.22141 7.83844 8.51838 7.67971 8.84168 7.6154C9.16498 7.55109 9.50009 7.5841 9.80463 7.71024C10.1092 7.83639 10.3695 8.05001 10.5526 8.32409C10.7357 8.59817 10.8335 8.92041 10.8335 9.25004C10.8335 9.69207 10.6579 10.116 10.3453 10.4286C10.0328 10.7411 9.60886 10.9167 9.16683 10.9167ZM18.3335 1.75004H17.5002V0.916707C17.5002 0.695694 17.4124 0.483732 17.2561 0.327452C17.0998 0.171171 16.8878 0.083374 16.6668 0.083374C16.4458 0.083374 16.2339 0.171171 16.0776 0.327452C15.9213 0.483732 15.8335 0.695694 15.8335 0.916707V1.75004H15.0002C14.7791 1.75004 14.5672 1.83784 14.4109 1.99412C14.2546 2.1504 14.1668 2.36236 14.1668 2.58337C14.1668 2.80439 14.2546 3.01635 14.4109 3.17263C14.5672 3.32891 14.7791 3.41671 15.0002 3.41671H15.8335V4.25004C15.8335 4.47105 15.9213 4.68302 16.0776 4.8393C16.2339 4.99558 16.4458 5.08337 16.6668 5.08337C16.8878 5.08337 17.0998 4.99558 17.2561 4.8393C17.4124 4.68302 17.5002 4.47105 17.5002 4.25004V3.41671H18.3335C18.5545 3.41671 18.7665 3.32891 18.9228 3.17263C19.079 3.01635 19.1668 2.80439 19.1668 2.58337C19.1668 2.36236 19.079 2.1504 18.9228 1.99412C18.7665 1.83784 18.5545 1.75004 18.3335 1.75004Z" fill="white"/>
</svg>
