<svg width="52" height="50" viewBox="0 0 52 50" fill="none" xmlns="http://www.w3.org/2000/svg">
<path d="M26.0002 0.47998C11.8087 0.47998 0.240234 10.4257 0.240234 22.8734C0.240234 30.1008 4.19712 36.3888 10.2765 40.4981C10.2664 40.74 10.285 41.1312 9.96805 42.305C9.57493 43.7599 8.78191 45.8088 7.17023 48.1194L6.02398 49.76H8.02555C14.9583 49.76 18.9704 45.2401 19.5909 44.5144C21.6573 44.9982 23.7793 45.2647 25.998 45.2647C40.1896 45.2647 51.758 35.32 51.758 22.8712C51.7592 10.4235 40.1918 0.47998 26.0002 0.47998ZM26.0002 2.71998C38.9687 2.71998 49.5202 11.7608 49.5202 22.8734C49.5202 33.9861 38.9687 43.0269 26.0002 43.0269C24.0167 43.0269 22.0874 42.8004 20.1027 42.3356L18.7749 42.025L17.889 43.0597C17.1218 43.9557 14.5486 46.5861 10.3049 47.3253C11.1158 45.8648 11.7272 44.3798 12.1293 42.889C12.4418 41.731 12.4986 41.1219 12.5143 40.5922L12.5668 39.3431L11.5299 38.6431C5.7776 34.7545 2.48023 29.0065 2.48023 22.8734C2.48023 11.7608 13.0318 2.71998 26.0002 2.71998ZM17.0402 15.04V22.88H20.4002C20.4002 23.6181 20.2054 26.8005 17.0402 28.644V32.3453C21.9526 30.4581 23.7602 26.2187 23.7602 22.88V20.08V15.04H17.0402ZM28.2402 15.04V22.88H31.6002C31.6002 23.6181 31.4054 26.8005 28.2402 28.644V32.3453C33.1526 30.4581 34.9602 26.2187 34.9602 22.88V20.08V15.04H28.2402Z" fill="white"/>
</svg>
