<svg width="11" height="9" viewBox="0 0 11 9" fill="none" xmlns="http://www.w3.org/2000/svg">
<path d="M4.39734 8.35903C4.34901 8.31194 4.14234 8.13415 3.97234 7.96854C2.90318 6.99761 1.15318 4.46473 0.61901 3.13902C0.533177 2.93769 0.35151 2.42868 0.339844 2.15672C0.339844 1.89613 0.399844 1.64771 0.52151 1.41066C0.69151 1.11516 0.95901 0.878105 1.27484 0.748214C1.49401 0.664597 2.14984 0.534705 2.16151 0.534705C2.87901 0.404814 4.04484 0.333374 5.33318 0.333374C6.56068 0.333374 7.67901 0.404814 8.40734 0.511163C8.41901 0.52334 9.23401 0.653231 9.51318 0.7953C10.0232 1.05589 10.3398 1.56491 10.3398 2.10964V2.15672C10.3273 2.51149 10.0107 3.25755 9.99901 3.25755C9.46401 4.51181 7.79984 6.98624 6.69401 7.98072C6.69401 7.98072 6.40984 8.2608 6.23234 8.38257C5.97734 8.57254 5.66151 8.66671 5.34568 8.66671C4.99318 8.66671 4.66484 8.56036 4.39734 8.35903Z" fill="#B2AEAE"/>
</svg>
