<svg width="48" height="44" viewBox="0 0 48 44" fill="none" xmlns="http://www.w3.org/2000/svg">
<path d="M8.63898 0.880127C5.99898 0.880127 3.83898 3.04013 3.83898 5.68013C3.83898 8.32013 5.99898 10.4801 8.63898 10.4801C11.279 10.4801 13.439 8.32013 13.439 5.68013C13.439 3.04013 11.279 0.880127 8.63898 0.880127ZM39.359 0.880127C36.719 0.880127 34.559 3.04013 34.559 5.68013C34.559 8.32013 36.719 10.4801 39.359 10.4801C41.999 10.4801 44.159 8.32013 44.159 5.68013C44.159 3.04013 41.999 0.880127 39.359 0.880127ZM8.63898 2.80013C10.2402 2.80013 11.519 4.07888 11.519 5.68013C11.519 7.28138 10.2402 8.56013 8.63898 8.56013C7.03773 8.56013 5.75898 7.28138 5.75898 5.68013C5.75898 4.07888 7.03773 2.80013 8.63898 2.80013ZM39.359 2.80013C40.9602 2.80013 42.239 4.07888 42.239 5.68013C42.239 7.28138 40.9602 8.56013 39.359 8.56013C37.7577 8.56013 36.479 7.28138 36.479 5.68013C36.479 4.07888 37.7577 2.80013 39.359 2.80013ZM8.59398 11.4401C6.25773 11.4401 4.28523 12.3926 2.96523 13.9189C1.64523 15.4451 0.958984 17.5076 0.958984 19.7314V28.6189L3.40398 29.8189L4.38648 43.1201H12.8877L13.874 29.8189L16.319 28.6189V19.7314C16.319 17.5039 15.6065 15.4376 14.264 13.9151C12.9215 12.3889 10.934 11.4401 8.59398 11.4401ZM39.314 11.4401C36.9777 11.4401 35.0052 12.3926 33.6852 13.9189C32.3652 15.4451 31.679 17.5076 31.679 19.7314V28.6189L34.124 29.8189L35.1102 43.1201H43.6077L44.594 29.8189L47.039 28.6189V19.7314C47.039 17.5039 46.3265 15.4376 44.984 13.9151C43.6415 12.3889 41.654 11.4401 39.314 11.4401ZM8.59398 13.3601C10.4315 13.3601 11.8302 14.0539 12.824 15.1826C13.8177 16.3114 14.399 17.9126 14.399 19.7314V27.4264L12.044 28.5814L11.1102 41.2001H6.17148L5.23398 28.5814L2.87898 27.4226V19.7314C2.87898 17.9051 3.44523 16.3001 4.41649 15.1751C5.39149 14.0501 6.76023 13.3601 8.59398 13.3601ZM39.314 13.3601C41.1515 13.3601 42.5502 14.0539 43.544 15.1826C44.5377 16.3114 45.119 17.9126 45.119 19.7314V27.4226L42.764 28.5814L41.8302 41.2001H36.8877L35.954 28.5814L33.599 27.4226V19.7314C33.599 17.9051 34.1652 16.3001 35.1402 15.1751C36.1115 14.0501 37.4802 13.3601 39.314 13.3601ZM18.239 18.1601V20.0801H29.759V18.1601H18.239ZM18.239 23.9201V25.8401H29.759V23.9201H18.239Z" fill="#0092D6"/>
</svg>
