<svg width="44" height="43" viewBox="0 0 44 43" fill="none" xmlns="http://www.w3.org/2000/svg">
<path d="M13.3592 0.839844C11.8392 0.839844 10.577 1.44441 9.76104 2.36234C8.9451 3.28028 8.55917 4.46651 8.55917 5.63984C8.55917 6.81318 8.9451 7.99941 9.76104 8.91734C10.577 9.83528 11.8392 10.4398 13.3592 10.4398C14.8792 10.4398 16.1414 9.83528 16.9573 8.91734C17.7732 7.99941 18.1592 6.81318 18.1592 5.63984C18.1592 4.46651 17.7732 3.28028 16.9573 2.36234C16.1414 1.44441 14.8792 0.839844 13.3592 0.839844ZM13.3592 2.75984C14.3992 2.75984 15.057 3.11528 15.521 3.63734C15.9851 4.15941 16.2392 4.89318 16.2392 5.63984C16.2392 6.38651 15.9851 7.12028 15.521 7.64234C15.057 8.16441 14.3992 8.51984 13.3592 8.51984C12.3192 8.51984 11.6614 8.16441 11.1973 7.64234C10.7332 7.12028 10.4792 6.38651 10.4792 5.63984C10.4792 4.89318 10.7332 4.15941 11.1973 3.63734C11.6614 3.11528 12.3192 2.75984 13.3592 2.75984ZM8.37354 10.2767C8.15011 10.2761 7.92805 10.2899 7.70792 10.3198C5.94684 10.5591 4.28287 11.7811 3.69354 13.7548V13.7567L1.11167 22.4136L1.05354 22.6048C1.05156 22.6129 1.04969 22.6211 1.04792 22.6292C0.422015 24.9282 1.65459 27.2295 3.75917 28.1755V38.7598C3.75917 39.7998 4.18373 40.702 4.83167 41.278C5.4796 41.8539 6.30583 42.1198 7.11917 42.1198C7.9325 42.1198 8.75873 41.8539 9.40667 41.278C10.0546 40.702 10.4792 39.7998 10.4792 38.7598V24.5567L11.2854 22.0198L14.2067 24.9411C15.3207 26.0577 17.1576 26.0577 18.2717 24.9411L18.2735 24.9392C18.8103 24.3984 19.1146 23.6687 19.1192 22.9067C19.1192 22.9036 19.1192 22.9005 19.1192 22.8973C19.1171 22.134 18.8101 21.4022 18.2679 20.8648L18.2735 20.8686L15.3879 17.9755L12.761 13.0573L12.7592 13.0536C12.7532 13.0416 12.7469 13.0297 12.7404 13.018L12.7367 13.0123L12.5379 12.6336C12.5032 12.5683 12.461 12.5073 12.4123 12.4517C11.4476 11.0027 9.89751 10.2808 8.37354 10.2767ZM8.37354 12.193C9.32374 12.1858 10.2584 12.6127 10.8654 13.5805C10.8928 13.6235 10.9235 13.6642 10.9573 13.7023C10.9579 13.7042 10.9585 13.7061 10.9592 13.708L10.9067 13.6555L11.0398 13.9105C11.041 13.9123 11.0423 13.9142 11.0435 13.9161C11.0448 13.9186 11.046 13.9211 11.0473 13.9236L13.7604 19.0048C13.8047 19.0876 13.861 19.1634 13.9273 19.2298L16.9123 22.2242L16.916 22.228C17.0952 22.4056 17.1954 22.647 17.1973 22.8992C17.1946 23.1577 17.0926 23.4038 16.9104 23.5873C16.5303 23.9664 15.9455 23.9658 15.566 23.5855H15.5642L12.0298 20.0511L11.861 19.7286V19.7267C11.8238 19.5863 11.7552 19.4562 11.6604 19.3461L9.41042 15.0355C9.35207 14.9237 9.27227 14.8245 9.17558 14.7435C9.07888 14.6625 8.96719 14.6014 8.84687 14.5636C8.72656 14.5258 8.59998 14.5121 8.47436 14.5232C8.34874 14.5344 8.22654 14.5701 8.11475 14.6285C8.00295 14.6869 7.90375 14.7667 7.8228 14.8634C7.74185 14.9601 7.68074 15.0718 7.64296 15.1921C7.60519 15.3124 7.59148 15.439 7.60262 15.5646C7.61377 15.6902 7.64955 15.8124 7.70792 15.9242L9.88479 20.0923L8.60417 24.1161C8.57414 24.2107 8.55896 24.3094 8.55917 24.4086V38.7598C8.55917 39.3198 8.38373 39.6177 8.13167 39.8417C7.8796 40.0658 7.50583 40.1998 7.11917 40.1998C6.7325 40.1998 6.35873 40.0658 6.10667 39.8417C5.8546 39.6177 5.67917 39.3198 5.67917 38.7598V27.5942C5.67915 27.3811 5.6082 27.174 5.4775 27.0056C5.3468 26.8372 5.16378 26.7171 4.95729 26.6642C3.39438 26.265 2.47668 24.6901 2.90042 23.1336L2.95104 22.9648V22.963L5.53292 14.3042C5.90645 13.0532 6.88275 12.3702 7.96667 12.223C8.10216 12.2046 8.2378 12.194 8.37354 12.193ZM37.3592 15.2398C35.8392 15.2398 34.577 15.8444 33.761 16.7623C32.9451 17.6803 32.5592 18.8665 32.5592 20.0398C32.5592 21.2132 32.9451 22.3994 33.761 23.3173C34.577 24.2353 35.8392 24.8398 37.3592 24.8398C38.8792 24.8398 40.1413 24.2353 40.9573 23.3173C41.7732 22.3994 42.1592 21.2132 42.1592 20.0398C42.1592 18.8665 41.7732 17.6803 40.9573 16.7623C40.1413 15.8444 38.8792 15.2398 37.3592 15.2398ZM37.3592 17.1598C38.3992 17.1598 39.057 17.5153 39.521 18.0373C39.9851 18.5594 40.2392 19.2932 40.2392 20.0398C40.2392 20.7865 39.9851 21.5203 39.521 22.0423C39.057 22.5644 38.3992 22.9198 37.3592 22.9198C36.3192 22.9198 35.6614 22.5644 35.1973 22.0423C34.7332 21.5203 34.4792 20.7865 34.4792 20.0398C34.4792 19.2932 34.7332 18.5594 35.1973 18.0373C35.6614 17.5153 36.3192 17.1598 37.3592 17.1598ZM22.8954 23.8667C21.5612 23.8916 20.3677 24.8632 20.1242 26.2236C19.842 27.7727 20.8777 29.2813 22.4248 29.5742L22.4285 29.5761L29.9717 30.9842L28.5542 33.1911L28.2317 32.9155L28.2298 32.9136C27.0517 31.9059 25.5692 31.4713 24.1292 31.5823C22.6892 31.6934 21.2913 32.3502 20.2817 33.5267L18.6767 35.3998H15.6785C13.9335 35.3619 12.4219 36.6504 12.1817 38.3792C12.1796 38.3904 12.1777 38.4017 12.176 38.413C11.9724 40.3797 13.5419 42.119 15.5192 42.1198H31.5992C33.2321 42.1206 34.7554 41.2855 35.6342 39.9092C35.6354 39.9073 35.6367 39.9055 35.6379 39.9036L37.3592 37.1586V39.1123C37.3273 40.6197 38.4557 41.9216 39.9523 42.1048C39.9654 42.1064 39.9785 42.1076 39.9917 42.1086C41.6542 42.2443 43.1077 40.9154 43.1192 39.2473C43.1192 39.2448 43.1192 39.2423 43.1192 39.2398V34.273C43.1179 33.5815 42.9681 32.8973 42.6804 32.2686C42.0076 30.7872 40.6626 27.8084 38.6117 26.4411C38.5994 26.4327 38.5869 26.4246 38.5742 26.4167C38.0029 26.0725 37.387 25.8592 36.7629 25.768C36.0808 25.6682 35.3899 25.7181 34.7342 25.8992L23.4748 23.9155H23.4729C23.2789 23.8788 23.086 23.8632 22.8954 23.8667ZM23.1167 25.8017C23.1204 25.8024 23.1242 25.803 23.1279 25.8036L32.3173 27.4236C32.1594 27.6074 32.0127 27.8049 31.8804 28.0161L31.0929 29.2405L22.7829 27.688H22.781C22.2498 27.5865 21.9153 27.0991 22.0123 26.5667V26.563C22.106 26.0349 22.5898 25.7016 23.1167 25.8017ZM35.9004 27.6317C36.4629 27.6089 37.0398 27.7488 37.5635 28.0592C38.721 28.847 40.3072 31.6878 40.9329 33.0655L40.9348 33.0673C41.1083 33.4465 41.1984 33.8579 41.1992 34.2748V39.2323C41.1952 39.8041 40.7347 40.2219 40.1679 40.1886C39.6456 40.1132 39.268 39.6822 39.2792 39.1517C39.2792 39.1455 39.2792 39.1392 39.2792 39.133V35.3998C39.2788 35.2393 39.2382 35.0813 39.161 34.9405L38.7017 34.0948L37.721 32.3005C37.6642 32.1837 37.5843 32.0797 37.4861 31.9947C37.388 31.9097 37.2736 31.8455 37.1499 31.806C37.0262 31.7665 36.8958 31.7524 36.7665 31.7648C36.6372 31.7771 36.5118 31.8155 36.3978 31.8777C36.2839 31.9399 36.1837 32.0246 36.1033 32.1266C36.023 32.2287 35.9642 32.3459 35.9305 32.4713C35.8968 32.5967 35.8889 32.7277 35.9073 32.8562C35.9256 32.9848 35.9698 33.1083 36.0373 33.2192L36.746 34.5205L34.016 38.8761C33.4888 39.7018 32.5788 40.2003 31.5992 40.1998H15.5192C14.6558 40.1995 14.0145 39.4833 14.0923 38.6267C14.2092 37.8581 14.8576 37.3029 15.6373 37.3198C15.6442 37.3199 15.651 37.3199 15.6579 37.3198H27.7404C27.9154 37.3197 28.087 37.2718 28.2367 37.1813C28.3863 37.0907 28.5085 36.961 28.5898 36.8061C28.5898 36.8061 29.0199 36.0081 29.1729 35.7786C29.1754 35.7742 29.1779 35.7699 29.1804 35.7655L29.4785 35.3023C29.5573 35.218 29.6201 35.1202 29.6642 35.0136L33.5004 29.0455C33.5029 29.0424 33.5054 29.0392 33.5079 29.0361C33.8922 28.4224 34.4623 28.0075 35.0942 27.7948L35.096 27.793C35.1792 27.7651 35.2601 27.729 35.3454 27.7086C35.5273 27.6651 35.7129 27.6393 35.9004 27.6317ZM24.2754 33.4836C25.2219 33.4104 26.1968 33.7015 26.981 34.3723L27.5098 34.828C27.3868 35.0252 27.2984 35.1873 27.1835 35.3998H21.206L21.7385 34.7773C22.4107 33.9942 23.3289 33.5568 24.2754 33.4836Z" fill="#0092D6"/>
</svg>
