<svg width="46" height="46" viewBox="0 0 46 46" fill="none" xmlns="http://www.w3.org/2000/svg">
<path d="M22.9999 0.919922C10.7738 0.919922 0.919922 10.7738 0.919922 22.9999C0.919922 35.226 10.7738 45.0799 22.9999 45.0799C35.226 45.0799 45.0799 35.226 45.0799 22.9999C45.0799 10.7738 35.226 0.919922 22.9999 0.919922ZM22.9999 2.83992C34.1978 2.83992 43.1599 11.802 43.1599 22.9999C43.1599 34.1978 34.1978 43.1599 22.9999 43.1599C11.802 43.1599 2.83992 34.1978 2.83992 22.9999C2.83992 11.802 11.802 2.83992 22.9999 2.83992ZM15.3199 17.2399C14.5561 17.2399 13.8236 17.5433 13.2835 18.0835C12.7433 18.6236 12.4399 19.3561 12.4399 20.1199C12.4399 20.8837 12.7433 21.6163 13.2835 22.1564C13.8236 22.6965 14.5561 22.9999 15.3199 22.9999C16.0837 22.9999 16.8163 22.6965 17.3564 22.1564C17.8965 21.6163 18.1999 20.8837 18.1999 20.1199C18.1999 19.3561 17.8965 18.6236 17.3564 18.0835C16.8163 17.5433 16.0837 17.2399 15.3199 17.2399ZM30.6799 17.2399C29.9161 17.2399 29.1836 17.5433 28.6435 18.0835C28.1033 18.6236 27.7999 19.3561 27.7999 20.1199C27.7999 20.8837 28.1033 21.6163 28.6435 22.1564C29.1836 22.6965 29.9161 22.9999 30.6799 22.9999C31.4437 22.9999 32.1763 22.6965 32.7164 22.1564C33.2565 21.6163 33.5599 20.8837 33.5599 20.1199C33.5599 19.3561 33.2565 18.6236 32.7164 18.0835C32.1763 17.5433 31.4437 17.2399 30.6799 17.2399ZM10.4787 27.7887C10.3037 27.7944 10.1337 27.8479 9.987 27.9433C9.84026 28.0387 9.7224 28.1724 9.64614 28.3299C9.56989 28.4875 9.53814 28.6628 9.55434 28.8371C9.57054 29.0114 9.63406 29.1779 9.73805 29.3187C9.73805 29.3187 14.7599 36.4399 22.9999 36.4399C31.2399 36.4399 36.2618 29.3187 36.2618 29.3187C36.41 29.1113 36.4697 28.8536 36.4279 28.6021C36.386 28.3507 36.246 28.1262 36.0387 27.978C35.8313 27.8299 35.5736 27.7701 35.3221 27.812C35.0707 27.8538 34.8462 27.9938 34.698 28.2012C34.698 28.2012 30.1199 34.5199 22.9999 34.5199C15.8799 34.5199 11.3018 28.2012 11.3018 28.2012C11.2101 28.069 11.0867 27.9619 10.9429 27.8898C10.7991 27.8177 10.6394 27.783 10.4787 27.7887Z" fill="#0092D6"/>
</svg>
