<svg width="34" height="36" viewBox="0 0 34 36" fill="none" xmlns="http://www.w3.org/2000/svg">
<path d="M16.0807 0.719971C14.1007 0.719971 12.5107 2.21997 12.3007 4.13997C11.727 3.79497 11.0407 3.59997 10.3207 3.59997C8.1982 3.59997 6.4807 5.31747 6.4807 7.43997V11.55L5.2807 11.97L5.1907 12V12.03C5.1007 12.0525 4.05445 12.3262 2.9707 13.26C1.84195 14.235 0.720703 15.9562 0.720703 18.57C0.720703 20.4637 1.47445 22.1962 1.7707 22.89C1.7707 22.9012 1.7707 22.9087 1.7707 22.92L5.6107 30.81C6.9232 33.5437 9.6832 35.19 12.6307 35.19H24.7207C29.4682 35.19 33.3607 31.2975 33.3607 26.55V16.08C33.3607 12.3862 31.8045 9.65247 31.4407 9.05997V7.43997C31.4407 5.31747 29.7232 3.59997 27.6007 3.59997C26.8057 3.59997 26.052 3.84747 25.4407 4.25997C24.9195 2.75997 23.5207 1.67997 21.8407 1.67997C20.8957 1.67997 20.0182 2.01372 19.3507 2.57997C18.6795 1.46622 17.4757 0.719971 16.0807 0.719971ZM16.0807 2.63997C17.2245 2.63997 18.0007 3.41622 18.0007 4.55997V10.5C17.0707 9.35247 15.6195 8.74872 14.1607 8.90997V4.55997C14.1607 3.41622 14.937 2.63997 16.0807 2.63997ZM21.8407 3.59997C22.9845 3.59997 23.7607 4.37622 23.7607 5.51997V12.24C23.7607 13.3837 22.9845 14.16 21.8407 14.16C20.697 14.16 19.9207 13.3837 19.9207 12.24V11.43C19.9245 11.3812 19.9245 11.3287 19.9207 11.28V5.51997C19.9207 4.37622 20.697 3.59997 21.8407 3.59997ZM10.3207 5.51997C11.4645 5.51997 12.2407 6.29622 12.2407 7.43997V9.47997L8.4007 10.86V7.43997C8.4007 6.29622 9.17695 5.51997 10.3207 5.51997ZM27.6007 5.51997C28.7445 5.51997 29.5207 6.29622 29.5207 7.43997V9.08997C29.5207 9.11997 29.5207 9.14997 29.5207 9.17997C29.4982 9.29997 29.4982 9.41997 29.5207 9.53997V14.16C29.5207 15.3037 28.7445 16.08 27.6007 16.08C26.457 16.08 25.6807 15.3037 25.6807 14.16V7.43997C25.6807 6.29622 26.457 5.51997 27.6007 5.51997ZM14.6407 10.77C15.5707 10.7362 16.4032 11.28 16.8307 12.24C17.3932 13.5112 16.8832 14.82 15.6007 15.39C15.5595 15.4087 15.5182 15.4275 15.4807 15.45L10.4107 18.51C9.9682 18.7612 9.7957 19.3125 10.0207 19.77L12.2407 24.36C12.3795 24.6825 12.6795 24.9037 13.0282 24.9375C13.377 24.9712 13.7182 24.8137 13.9132 24.525C14.112 24.2362 14.1382 23.8612 13.9807 23.55L12.1507 19.71L12.4507 19.53C12.552 19.6012 12.6607 19.65 12.7807 19.68C12.7807 19.68 17.8245 21.33 18.9907 27.78C19.002 28.1587 19.2345 28.5 19.587 28.6425C19.9395 28.785 20.3445 28.71 20.6182 28.4437C20.892 28.1775 20.982 27.7762 20.8507 27.42C19.857 21.9225 16.2232 19.3087 14.4307 18.33L16.3807 17.16L16.4407 17.13C16.4557 17.1225 16.4557 17.1075 16.4707 17.1C17.592 16.5675 18.3907 15.5962 18.7507 14.49C19.4482 15.4537 20.562 16.08 21.8407 16.08C22.6357 16.08 23.3895 15.8325 24.0007 15.42C24.522 16.92 25.9207 18 27.6007 18C29.457 18 30.9945 16.6912 31.3507 14.94C31.3882 15.3075 31.4407 15.69 31.4407 16.08V26.55C31.4407 30.2512 28.422 33.27 24.7207 33.27H12.6307C10.3957 33.27 8.3407 32.0362 7.3507 29.97L3.5107 22.08H3.4807C3.1957 21.405 2.6407 19.9087 2.6407 18.57C2.6407 16.4775 3.43945 15.3825 4.2307 14.7C5.02195 14.0175 5.7607 13.83 5.7607 13.83C5.7907 13.83 5.8207 13.83 5.8507 13.83L13.4107 11.1C13.482 11.0887 13.5532 11.0662 13.6207 11.04C13.6395 11.0325 13.662 11.0212 13.6807 11.01C13.9995 10.8675 14.3295 10.7812 14.6407 10.77Z" fill="#0092D6"/>
</svg>
