<svg width="46" height="42" viewBox="0 0 46 42" fill="none" xmlns="http://www.w3.org/2000/svg">
<path d="M19.1744 0.828641C19.0061 0.825409 18.8399 0.866497 18.6924 0.947784C18.545 1.02907 18.4215 1.1477 18.3344 1.29177L13.6225 6.94489C13.4726 7.12431 13.3934 7.35225 13.3996 7.58595C13.4058 7.81966 13.4971 8.04307 13.6563 8.21427L26.0669 21.5699C26.1593 21.7052 26.2849 21.8147 26.4316 21.8878C26.5782 21.9609 26.7412 21.9952 26.9049 21.9875C27.0686 21.9798 27.2277 21.9303 27.3668 21.8438C27.506 21.7572 27.6207 21.6365 27.7 21.493L39.9325 8.30989C40.0412 8.22292 40.1296 8.11337 40.1918 7.98883C40.2539 7.86429 40.2882 7.72773 40.2923 7.58861C40.2964 7.4495 40.2702 7.31115 40.2155 7.18317C40.1608 7.05518 40.079 6.94061 39.9757 6.84739L35.3519 1.29927C35.2628 1.14838 35.1341 1.02476 34.9797 0.941803C34.8254 0.858844 34.6513 0.81971 34.4763 0.828641C34.4411 0.830461 34.406 0.834217 34.3713 0.839891H26.9894C26.9651 0.836458 26.9407 0.833956 26.9163 0.832391C26.887 0.829791 26.8576 0.82854 26.8281 0.828641C26.8275 0.82864 26.8269 0.82864 26.8263 0.828641C26.8244 0.828635 26.8225 0.828635 26.8207 0.828641C26.7767 0.829381 26.7328 0.83314 26.6894 0.839891H19.2925C19.2534 0.833709 19.214 0.829951 19.1744 0.828641ZM20.7119 2.75989H24.79L22.2419 5.81802L20.7119 2.75989ZM28.8869 2.75989H32.9669L31.4369 5.81802L28.8869 2.75989ZM26.8394 3.29989L29.59 6.59989H24.0888L26.8394 3.29989ZM18.9569 3.54177L20.4869 6.59989H16.4107L18.9569 3.54177ZM34.7219 3.54177L37.2682 6.59989H33.1919L34.7219 3.54177ZM16.5625 8.51989H21.3644L24.37 16.9218L16.5625 8.51989ZM23.4007 8.51989H30.2782L26.8469 18.1461L23.4007 8.51989ZM32.3163 8.51989H37.1182L29.32 16.9236L32.3163 8.51989ZM41.3913 21.9449C41.2164 21.9475 41.0421 21.9636 40.8682 21.9918C40.4042 22.0668 39.9478 22.2349 39.5275 22.4999L28.8719 29.0661C28.6259 28.9317 28.3244 28.7831 27.9269 28.5918C27.4702 28.3718 26.9926 28.1475 26.7232 28.0255C25.2729 27.3697 20.6492 25.4613 17.14 23.9211C15.6388 23.2623 14.0343 22.9256 12.4282 22.9105C10.822 22.8954 9.21269 23.2024 7.6994 23.833L1.51003 26.4111C1.39092 26.4577 1.28231 26.5276 1.19058 26.6167C1.09885 26.7058 1.02585 26.8124 0.975858 26.9301C0.925871 27.0478 0.899906 27.1743 0.899487 27.3022C0.899068 27.4301 0.924204 27.5568 0.973419 27.6748C1.02263 27.7929 1.09494 27.8999 1.18608 27.9896C1.27722 28.0793 1.38537 28.1499 1.50418 28.1972C1.62298 28.2446 1.75005 28.2677 1.87791 28.2653C2.00578 28.2628 2.13187 28.2349 2.24878 28.183L8.43815 25.6049C10.9815 24.5449 13.8442 24.5725 16.3675 25.6799C19.9105 27.2348 24.6097 29.177 25.9319 29.7749C26.1694 29.8824 26.649 30.1079 27.0944 30.3224C27.5398 30.5369 28.008 30.7742 28.0469 30.7968C28.4752 31.0459 28.7594 31.4919 28.7594 32.0286C28.7594 32.8358 28.1266 33.4686 27.3194 33.4686C27.205 33.4686 27.0965 33.4558 26.9932 33.4311C26.9925 33.4311 26.9919 33.4311 26.9913 33.4311C26.9671 33.4254 26.2076 33.2121 25.2869 32.9418C24.3663 32.6715 23.1948 32.3243 22.0431 31.9818C19.7398 31.2967 17.515 30.6299 17.515 30.6299C17.2711 30.5568 17.0081 30.5836 16.784 30.7044C16.5598 30.8251 16.3928 31.03 16.3197 31.274C16.2466 31.5179 16.2734 31.7808 16.3942 32.005C16.515 32.2292 16.7199 32.3962 16.9638 32.4693C16.9638 32.4693 19.1919 33.1354 21.4975 33.8211C22.6503 34.164 23.8222 34.5115 24.7469 34.783C25.6707 35.0543 26.2588 35.2303 26.5469 35.2986C26.7969 35.3584 27.0556 35.3886 27.3194 35.3886C29.1637 35.3886 30.6794 33.873 30.6794 32.0286C30.6794 31.4602 30.5309 30.926 30.2782 30.4555L40.5438 24.1293C40.5469 24.1274 40.55 24.1255 40.5532 24.1236C41.3566 23.617 42.3904 23.8511 42.8969 24.6543C43.3889 25.4341 43.1832 26.4369 42.4244 26.9605C42.4123 26.9684 42.4005 26.9765 42.3888 26.9849L27.2463 38.458C26.2126 39.2417 24.858 39.4525 23.635 39.0186L12.4525 35.0549C9.86694 33.9877 6.90779 34.3471 4.65253 36.0018L1.30753 38.4561C1.20177 38.5291 1.11172 38.6225 1.04273 38.7309C0.973743 38.8393 0.927209 38.9604 0.905889 39.0871C0.884569 39.2138 0.888896 39.3435 0.918613 39.4685C0.948331 39.5935 1.00283 39.7113 1.0789 39.8148C1.15496 39.9184 1.25103 40.0056 1.36142 40.0714C1.4718 40.1371 1.59426 40.18 1.72154 40.1976C1.84882 40.2151 1.97832 40.2069 2.10238 40.1735C2.22644 40.1401 2.34253 40.0821 2.44378 40.003L5.78878 37.5505C7.506 36.2906 9.75075 36.018 11.7194 36.8305C11.7343 36.8365 11.7493 36.8421 11.7644 36.8474L22.9938 40.828C24.8236 41.4771 26.8601 41.1608 28.4069 39.988L43.5138 28.5411C44.9989 27.5162 45.4352 25.5588 44.6519 23.9718C44.6304 23.8507 44.5859 23.7348 44.5207 23.6305C43.8249 22.5271 42.6151 21.9267 41.3913 21.9449Z" fill="#0092D6"/>
</svg>
