<svg width="250" height="250" viewBox="0 0 250 250" fill="none" xmlns="http://www.w3.org/2000/svg">
<path d="M32.5 67.5C31.1739 67.5 29.9021 68.0268 28.9645 68.9645C28.0268 69.9021 27.5 71.1739 27.5 72.5C27.5 73.8261 28.0268 75.0979 28.9645 76.0355C29.9021 76.9732 31.1739 77.5 32.5 77.5C33.8261 77.5 35.0979 76.9732 36.0355 76.0355C36.9732 75.0979 37.5 73.8261 37.5 72.5C37.5 71.1739 36.9732 69.9021 36.0355 68.9645C35.0979 68.0268 33.8261 67.5 32.5 67.5Z" fill="#65B55E"/>
<path d="M192.5 30C191.837 30 191.201 30.2634 190.732 30.7322C190.263 31.2011 190 31.837 190 32.5C190 33.163 190.263 33.7989 190.732 34.2678C191.201 34.7366 191.837 35 192.5 35C193.163 35 193.799 34.7366 194.268 34.2678C194.737 33.7989 195 33.163 195 32.5C195 31.837 194.737 31.2011 194.268 30.7322C193.799 30.2634 193.163 30 192.5 30Z" fill="#0092D6"/>
<path d="M125 32.5C100.467 32.5 76.9397 42.2455 59.5926 59.5926C42.2455 76.9397 32.5 100.467 32.5 125C32.5 149.533 42.2455 173.06 59.5926 190.407C76.9397 207.754 100.467 217.5 125 217.5C149.533 217.5 173.06 207.754 190.407 190.407C207.754 173.06 217.5 149.533 217.5 125C217.5 100.467 207.754 76.9397 190.407 59.5926C173.06 42.2455 149.533 32.5 125 32.5Z" fill="#DEF2FC"/>
<path d="M143 93.5L134 84.5H116L107 93.5H143Z" fill="#0092D6"/>
<path d="M95.75 93.5V161C95.75 165.95 99.8 170 104.75 170H145.25C150.2 170 154.25 165.95 154.25 161V93.5H95.75Z" fill="#0092D6"/>
<path d="M126.125 158.75H123.875C122.075 158.75 120.5 157.175 120.5 155.375V112.625C120.5 110.825 122.075 109.25 123.875 109.25H126.125C127.925 109.25 129.5 110.825 129.5 112.625V155.375C129.5 157.175 127.925 158.75 126.125 158.75Z" fill="#18417E"/>
<path d="M141.875 158.75C140.075 158.75 138.5 157.175 138.5 155.375V112.625C138.5 110.825 140.075 109.25 141.875 109.25C143.675 109.25 145.25 110.825 145.25 112.625V155.375C145.25 157.175 143.675 158.75 141.875 158.75Z" fill="#18417E"/>
<path d="M108.125 158.75C106.325 158.75 104.75 157.175 104.75 155.375V112.625C104.75 110.825 106.325 109.25 108.125 109.25C109.925 109.25 111.5 110.825 111.5 112.625V155.375C111.5 157.175 109.925 158.75 108.125 158.75Z" fill="#18417E"/>
<path d="M95.75 89H154.25C156.725 89 158.75 91.025 158.75 93.5V98H91.25V93.5C91.25 91.025 93.275 89 95.75 89Z" fill="#18417E"/>
<path d="M207.5 27.5C204.848 27.5 202.304 28.5536 200.429 30.4289C198.554 32.3043 197.5 34.8478 197.5 37.5C197.5 40.1522 198.554 42.6957 200.429 44.5711C202.304 46.4464 204.848 47.5 207.5 47.5C210.152 47.5 212.696 46.4464 214.571 44.5711C216.446 42.6957 217.5 40.1522 217.5 37.5C217.5 34.8478 216.446 32.3043 214.571 30.4289C212.696 28.5536 210.152 27.5 207.5 27.5Z" fill="#0092D6"/>
<path d="M217.5 55C216.174 55 214.902 55.5268 213.964 56.4645C213.027 57.4021 212.5 58.6739 212.5 60C212.5 61.3261 213.027 62.5979 213.964 63.5355C214.902 64.4732 216.174 65 217.5 65C218.826 65 220.098 64.4732 221.036 63.5355C221.973 62.5979 222.5 61.3261 222.5 60C222.5 58.6739 221.973 57.4021 221.036 56.4645C220.098 55.5268 218.826 55 217.5 55Z" fill="#65B55E"/>
<path d="M202.5 185C201.174 185 199.902 185.527 198.964 186.464C198.027 187.402 197.5 188.674 197.5 190C197.5 191.326 198.027 192.598 198.964 193.536C199.902 194.473 201.174 195 202.5 195C203.826 195 205.098 194.473 206.036 193.536C206.973 192.598 207.5 191.326 207.5 190C207.5 188.674 206.973 187.402 206.036 186.464C205.098 185.527 203.826 185 202.5 185ZM37.5 147.5C34.8478 147.5 32.3043 148.554 30.4289 150.429C28.5536 152.304 27.5 154.848 27.5 157.5C27.5 160.152 28.5536 162.696 30.4289 164.571C32.3043 166.446 34.8478 167.5 37.5 167.5C40.1522 167.5 42.6957 166.446 44.5711 164.571C46.4464 162.696 47.5 160.152 47.5 157.5C47.5 154.848 46.4464 152.304 44.5711 150.429C42.6957 148.554 40.1522 147.5 37.5 147.5Z" fill="#0092D6"/>
<path d="M62.5 212.5C61.1739 212.5 59.9021 213.027 58.9645 213.964C58.0268 214.902 57.5 216.174 57.5 217.5C57.5 218.826 58.0268 220.098 58.9645 221.036C59.9021 221.973 61.1739 222.5 62.5 222.5C63.8261 222.5 65.0979 221.973 66.0355 221.036C66.9732 220.098 67.5 218.826 67.5 217.5C67.5 216.174 66.9732 214.902 66.0355 213.964C65.0979 213.027 63.8261 212.5 62.5 212.5Z" fill="#65B55E"/>
<path d="M46.25 127.5C44.5924 127.5 43.0027 128.158 41.8306 129.331C40.6585 130.503 40 132.092 40 133.75C40 135.408 40.6585 136.997 41.8306 138.169C43.0027 139.342 44.5924 140 46.25 140C47.9076 140 49.4973 139.342 50.6694 138.169C51.8415 136.997 52.5 135.408 52.5 133.75C52.5 132.092 51.8415 130.503 50.6694 129.331C49.4973 128.158 47.9076 127.5 46.25 127.5Z" fill="white"/>
<path d="M52.5 165C51.837 165 51.2011 165.263 50.7322 165.732C50.2634 166.201 50 166.837 50 167.5C50 168.163 50.2634 168.799 50.7322 169.268C51.2011 169.737 51.837 170 52.5 170C53.163 170 53.7989 169.737 54.2678 169.268C54.7366 168.799 55 168.163 55 167.5C55 166.837 54.7366 166.201 54.2678 165.732C53.7989 165.263 53.163 165 52.5 165Z" fill="#0092D6"/>
<path d="M200 82.5C199.337 82.5 198.701 82.7634 198.232 83.2322C197.763 83.7011 197.5 84.337 197.5 85C197.5 85.663 197.763 86.2989 198.232 86.7678C198.701 87.2366 199.337 87.5 200 87.5C200.663 87.5 201.299 87.2366 201.768 86.7678C202.237 86.2989 202.5 85.663 202.5 85C202.5 84.337 202.237 83.7011 201.768 83.2322C201.299 82.7634 200.663 82.5 200 82.5Z" fill="white"/>
</svg>
