<svg width="22" height="22" viewBox="0 0 22 22" fill="none" xmlns="http://www.w3.org/2000/svg">
<path d="M8 13C9.65685 13 11 14.3431 11 16C11 16.5523 10.5523 17 10 17H6C5.44772 17 5 16.5523 5 16C5 14.3431 6.34315 13 8 13ZM8 13C9.10457 13 10 12.1046 10 11C10 9.89543 9.10457 9 8 9C6.89543 9 6 9.89543 6 11C6 12.1046 6.89543 13 8 13ZM17 11L14 11M17 15L14 15M4 21H18C19.6569 21 21 19.6569 21 18V8C21 6.34315 19.6569 5 18 5H4C2.34315 5 1 6.34315 1 8V18C1 19.6569 2.34315 21 4 21ZM13 5V3C13 1.89543 12.1046 1 11 1C9.89543 1 9 1.89543 9 3V5H13Z" stroke="#B2AEAE" stroke-width="1.5" stroke-linecap="round"/>
</svg>
