<svg width="22" height="22" viewBox="0 0 22 22" fill="none" xmlns="http://www.w3.org/2000/svg">
<path d="M8 17C8 15.3432 9.34315 14 11 14C12.6569 14 14 15.3432 14 17V21H8V17Z" stroke="#B2AEAE" stroke-width="1.5"/>
<path d="M1 7.00003C1 5.89546 1.89543 5.00003 3 5.00003H5.29844C5.75258 5.00003 6.1932 4.84547 6.54783 4.56177L9.75061 1.99954C10.481 1.41519 11.519 1.41519 12.2494 1.99954L15.4522 4.56177C15.8068 4.84547 16.2474 5.00003 16.7016 5.00003H19C20.1046 5.00003 21 5.89546 21 7.00003V19C21 20.1046 20.1046 21 19 21H3C1.89543 21 1 20.1046 1 19V7.00003Z" stroke="#B2AEAE" stroke-width="1.5"/>
<path d="M13 9.00003C13 7.89546 12.1046 7.00003 11 7.00003C9.89543 7.00003 9 7.89546 9 9.00003C9 10.1046 9.89543 11 11 11C12.1046 11 13 10.1046 13 9.00003Z" stroke="#B2AEAE" stroke-width="1.5"/>
</svg>
