<svg width="28" height="22" viewBox="0 0 28 22" fill="none" xmlns="http://www.w3.org/2000/svg">
<path d="M4.99935 0.333496C2.61806 0.333496 0.666016 2.28554 0.666016 4.66683V17.3335C0.666016 19.7148 2.61806 21.6668 4.99935 21.6668H22.9993C25.3806 21.6668 27.3327 19.7148 27.3327 17.3335V4.66683C27.3327 2.28554 25.3806 0.333496 22.9993 0.333496H4.99935ZM4.99935 2.3335H22.9993C24.2994 2.3335 25.3327 3.36679 25.3327 4.66683V5.40381L13.9993 11.5301L2.66602 5.40381V4.66683C2.66602 3.36679 3.69931 2.3335 4.99935 2.3335ZM2.66602 7.67725L13.5241 13.547C13.6701 13.6259 13.8334 13.6672 13.9993 13.6672C14.1653 13.6672 14.3286 13.6259 14.4746 13.547L25.3327 7.67725V17.3335C25.3327 18.6335 24.2994 19.6668 22.9993 19.6668H4.99935C3.69931 19.6668 2.66602 18.6335 2.66602 17.3335V7.67725Z" fill="#18417E"/>
</svg>
