<svg width="51" height="68" viewBox="0 0 51 68" fill="none" xmlns="http://www.w3.org/2000/svg">
<path d="M14.9195 0.879883C10.1648 0.879883 6.27953 4.7652 6.27953 9.51988C6.27953 14.2746 10.1648 18.1599 14.9195 18.1599C19.6742 18.1599 23.5595 14.2746 23.5595 9.51988C23.5595 4.7652 19.6742 0.879883 14.9195 0.879883ZM37.9595 0.879883C37.5776 0.879921 37.2114 1.03165 36.9413 1.30169C36.6713 1.57174 36.5196 1.93798 36.5195 2.31988V10.9599V19.5999H8.43953C4.0827 19.5999 0.519531 23.1631 0.519531 27.5199V44.0799C0.519531 46.4486 2.47077 48.3999 4.83953 48.3999C5.34619 48.3999 5.82609 48.2934 6.27953 48.1299V62.0799C6.27953 64.8464 8.55302 67.1199 11.3195 67.1199C12.7341 67.1199 14.0148 66.521 14.9336 65.5702C15.9652 66.6277 17.4348 67.2549 19.0342 67.0946C21.7045 66.8264 23.5595 64.4478 23.5595 61.8746V28.2399H37.8048C39.8955 28.2399 41.8686 26.8134 42.2233 24.6343C42.5696 22.5071 41.2728 20.5668 39.3995 19.8811V12.3999H49.4795C49.7643 12.3998 50.0426 12.3153 50.2793 12.157C50.516 11.9988 50.7005 11.7739 50.8095 11.5108C50.9185 11.2478 50.947 10.9583 50.8915 10.679C50.836 10.3997 50.6989 10.1432 50.4977 9.94176L47.1958 6.63988L50.4977 3.33801C50.6989 3.13659 50.836 2.88004 50.8915 2.60075C50.947 2.32147 50.9185 2.03201 50.8095 1.76894C50.7005 1.50587 50.516 1.281 50.2793 1.12276C50.0426 0.964513 49.7643 0.879995 49.4795 0.879883H37.9595ZM14.9195 3.75988C18.1177 3.75988 20.6795 6.32167 20.6795 9.51988C20.6795 12.7181 18.1177 15.2799 14.9195 15.2799C11.7213 15.2799 9.15953 12.7181 9.15953 9.51988C9.15953 6.32167 11.7213 3.75988 14.9195 3.75988ZM39.3995 3.75988H46.0033L44.1414 5.62176C43.8715 5.89182 43.7198 6.25804 43.7198 6.63988C43.7198 7.02173 43.8715 7.38795 44.1414 7.65801L46.0033 9.51988H39.3995V3.75988ZM8.43953 22.4799H37.9595C38.8534 22.4799 39.5371 23.2073 39.3798 24.173C39.2737 24.8249 38.5827 25.3599 37.8048 25.3599H23.5595C21.9855 25.3599 20.6795 26.6659 20.6795 28.2399V61.8746C20.6795 63.0674 19.8253 64.121 18.7473 64.2286C17.4133 64.3624 16.3595 63.3652 16.3595 62.0799V45.5199H13.4795V62.0799C13.4795 63.2906 12.5303 64.2399 11.3195 64.2399C10.1088 64.2399 9.15953 63.2906 9.15953 62.0799V31.1199H6.27953V44.0799C6.27953 44.8935 5.65317 45.5199 4.83953 45.5199C4.02589 45.5199 3.39953 44.8935 3.39953 44.0799V27.5199C3.39953 24.7199 5.63956 22.4799 8.43953 22.4799Z" fill="#0092D6"/>
</svg>
