<svg width="62" height="69" viewBox="0 0 62 69" fill="none" xmlns="http://www.w3.org/2000/svg">
<path d="M26.7784 0.417631C25.9852 0.434507 25.3496 1.08701 25.3609 1.88013V10.5201C25.3552 11.0376 25.6252 11.5214 26.0752 11.7858C26.5252 12.0445 27.0765 12.0445 27.5265 11.7858C27.9765 11.5214 28.2465 11.0376 28.2409 10.5201V1.88013C28.2465 1.49201 28.0946 1.11513 27.819 0.839507C27.5434 0.563882 27.1665 0.412007 26.7784 0.417631ZM13.824 4.74888C13.239 4.74888 12.7159 5.10326 12.4909 5.64326C12.2715 6.18888 12.4009 6.80763 12.8227 7.21826L18.5827 12.9783C18.9427 13.3551 19.4827 13.507 19.9834 13.372C20.4896 13.2426 20.8834 12.8489 21.0127 12.3426C21.1477 11.842 20.9959 11.302 20.619 10.942L14.859 5.18201C14.589 4.90076 14.2177 4.74888 13.824 4.74888ZM39.7327 4.74888C39.3559 4.75451 39.0015 4.91201 38.7427 5.18201L32.9827 10.942C32.6059 11.302 32.454 11.842 32.589 12.3426C32.7184 12.8489 33.1121 13.2426 33.6184 13.372C34.119 13.507 34.659 13.3551 35.019 12.9783L40.779 7.21826C41.2065 6.80201 41.3302 6.17201 41.0996 5.62638C40.869 5.07513 40.329 4.72638 39.7327 4.74888ZM54.4084 6.21138C52.9965 6.21138 51.579 6.74576 50.5102 7.81451L24.2471 34.0776C23.814 33.2845 23.6002 32.8626 22.7959 31.4845C21.4571 29.2064 19.9665 26.737 18.6109 25.3758C16.5296 23.2945 13.6496 21.8545 10.9496 21.1176C9.60524 20.752 8.30023 20.5608 7.10773 20.6058C5.91523 20.6508 4.76211 20.9039 3.88461 21.7758L1.30273 24.3576C0.740234 24.9201 0.740234 25.837 1.30273 26.3995L9.20586 34.3026L15.354 52.7358C15.4271 52.9495 15.5452 53.1408 15.7027 53.2983L27.009 64.6045C31.6552 69.2507 39.2265 69.2507 43.8727 64.6045L46.3646 62.1126H45.7684C46.1509 62.1126 46.5165 61.9608 46.7865 61.6908L59.7465 48.7308C61.884 46.5876 61.884 43.0776 59.7465 40.9345C58.8859 40.0739 57.7946 39.6576 56.6752 39.4889C57.3615 37.5426 56.9734 35.2814 55.4265 33.7345C54.5659 32.8739 53.4746 32.4576 52.3552 32.2889C53.0415 30.3426 52.6534 28.0814 51.1065 26.5345C50.4202 25.8483 49.5765 25.4658 48.699 25.2183L58.3065 15.6108C60.4496 13.4676 60.4496 9.95763 58.3065 7.81451C57.2377 6.74576 55.8202 6.21138 54.4084 6.21138ZM54.4084 9.06888C55.0777 9.06888 55.7471 9.32763 56.2702 9.85076C57.3109 10.8914 57.3109 12.5339 56.2702 13.5745L43.3102 26.5345C42.7646 27.1026 42.7759 27.997 43.3327 28.5483C43.884 29.1051 44.7784 29.1164 45.3465 28.5708C46.3871 27.5301 48.0296 27.5301 49.0702 28.5708C50.1109 29.6114 50.1109 31.2539 49.0702 32.2945L47.6302 33.7345C47.0846 34.3026 47.0959 35.197 47.6527 35.7483C48.204 36.3051 49.0984 36.3164 49.6665 35.7708C50.7071 34.7301 52.3496 34.7301 53.3902 35.7708C54.4309 36.8114 54.4309 38.4539 53.3902 39.4945L51.9502 40.9345C51.4046 41.5026 51.4159 42.397 51.9727 42.9483C52.524 43.5051 53.4184 43.5164 53.9865 42.9708C55.0271 41.9301 56.6696 41.9301 57.7102 42.9708C58.7509 44.0114 58.7509 45.6539 57.7102 46.7001L44.7502 59.6545L41.8365 62.5683C38.2927 66.112 32.589 66.112 29.0452 62.5683L17.9809 51.4983L11.8327 33.0651C11.7596 32.857 11.6415 32.6658 11.484 32.5026L4.35711 25.3758L5.92086 23.812C5.98836 23.7445 6.43273 23.5139 7.22023 23.4858C8.00773 23.4576 9.06524 23.5926 10.1959 23.902C12.4515 24.5151 14.9827 25.8201 16.5802 27.4176C17.334 28.177 19.0102 30.7195 20.3096 32.9358C21.609 35.1576 22.6496 37.1151 22.6496 37.1151C22.8634 37.5201 23.2571 37.7958 23.7071 37.8633C24.1571 37.9308 24.6184 37.7789 24.939 37.4583L52.5465 9.85076C53.0696 9.32763 53.739 9.06888 54.4084 9.06888Z" fill="#0092D6"/>
</svg>
