<svg width="70" height="68" viewBox="0 0 70 68" fill="none" xmlns="http://www.w3.org/2000/svg">
<path d="M29.506 0.75293C24.1996 0.87245 20.3205 2.49339 17.9776 5.57355C15.2041 9.22251 14.6841 14.8139 16.4279 22.2011C15.8332 22.9657 15.2982 24.1897 15.4379 25.8601C15.8641 28.9691 17.0452 30.2508 18.0085 30.7764C18.452 33.2964 19.6715 36.0679 20.897 37.3942V42.5242C20.0171 44.5042 17.1535 45.6503 13.8545 46.9707C8.29029 49.197 1.36416 51.9673 0.883203 60.7211L0.798828 62.2398H40.6491C40.1221 61.3283 39.6816 60.3664 39.3245 59.3598H3.93477C4.98453 53.6214 10.0286 51.6024 14.9232 49.6454C17.8216 48.4854 20.5966 47.3683 22.3229 45.4998C22.7811 45.9251 23.328 46.284 23.9091 46.5826C25.4621 47.3807 27.4587 47.8398 29.6804 47.8398C31.9192 47.8398 33.9227 47.3351 35.4657 46.5207C36.0128 46.232 36.5268 45.8978 36.9676 45.5111C37.6676 46.2426 38.5168 46.8658 39.4791 47.4151C39.8262 46.5108 40.2454 45.6485 40.7335 44.8248C39.6146 44.1653 38.751 43.4288 38.3204 42.5101V37.3942C39.5386 36.0751 40.7554 33.3242 41.2032 30.8157C42.2285 30.3117 43.4927 29.0285 43.7879 25.7842C43.9247 24.1627 43.476 22.97 42.8626 22.2011C44.0851 18.2727 45.1578 11.5421 42.5701 7.26387C41.3432 5.23491 39.471 3.96091 36.9985 3.46699C35.6075 1.71019 32.9937 0.75293 29.506 0.75293ZM29.5398 3.63012C32.2628 3.63012 34.2231 4.31655 34.9201 5.50887L35.2716 6.11074L35.9579 6.20918C37.876 6.4799 39.2323 7.31161 40.1063 8.75449C42.1914 12.2033 41.0947 18.6569 39.8448 22.1532L39.3891 23.3401L40.531 23.9111C40.6592 24.0018 41.0055 24.4986 40.9191 25.5311C40.7247 27.6623 40.0478 28.2304 39.9038 28.2564H38.5932L38.4695 29.5614C38.2088 32.2916 36.6873 35.1097 36.166 35.5014L35.4404 35.9148V42.7998C35.4404 42.7838 35.1704 43.4218 34.1213 43.9754C33.0723 44.5291 31.4735 44.9598 29.6804 44.9598C27.8701 44.9598 26.2644 44.5544 25.2254 44.0204C24.1863 43.4865 23.9204 42.9235 23.9204 42.7998C23.9226 42.5779 23.8735 42.3584 23.777 42.1586V36.7529L23.8079 35.9345L23.0823 35.5182C22.5336 35.1093 21.0085 32.2888 20.7479 29.5586L20.7282 28.2676H19.4176C19.2131 28.1884 18.5717 27.5064 18.301 25.5451C18.2017 24.337 18.8171 23.8379 18.8157 23.8379L19.6651 23.2726L19.4148 22.2854C17.668 15.3979 17.9571 10.3615 20.2726 7.3173C22.0567 4.9701 25.1866 3.72804 29.5398 3.63012ZM65.6579 37.7401C65.2765 37.7461 64.913 37.9031 64.6472 38.1768C64.3815 38.4505 64.2352 38.8184 64.2404 39.1998V41.5398L56.1601 50.7732C55.9757 50.7372 55.7882 50.7193 55.6004 50.7198C54.8366 50.7198 54.104 51.0232 53.5639 51.5633C53.0238 52.1034 52.7204 52.836 52.7204 53.5998C52.7204 54.3636 53.0238 55.0962 53.5639 55.6363C54.104 56.1764 54.8366 56.4798 55.6004 56.4798C56.3642 56.4798 57.0968 56.1764 57.6369 55.6363C58.177 55.0962 58.4804 54.3636 58.4804 53.5998C58.4788 53.2848 58.4256 52.9722 58.3229 52.6745L66.3329 43.5198H68.5604C68.7512 43.5225 68.9407 43.4872 69.1177 43.4161C69.2948 43.3449 69.456 43.2393 69.5919 43.1053C69.7278 42.9713 69.8357 42.8117 69.9093 42.6356C69.983 42.4596 70.0209 42.2706 70.0209 42.0798C70.0209 41.889 69.983 41.7 69.9093 41.524C69.8357 41.3479 69.7278 41.1883 69.5919 41.0543C69.456 40.9203 69.2948 40.8147 69.1177 40.7435C68.9407 40.6724 68.7512 40.6371 68.5604 40.6398H67.1204V39.1998C67.123 39.0071 67.087 38.8159 67.0144 38.6374C66.9418 38.459 66.8341 38.2969 66.6977 38.1608C66.5614 38.0247 66.3991 37.9173 66.2205 37.845C66.0418 37.7728 65.8505 37.7371 65.6579 37.7401ZM55.6004 39.1998C47.6602 39.1998 41.2004 45.6596 41.2004 53.5998C41.2004 61.54 47.6602 67.9998 55.6004 67.9998C63.5406 67.9998 70.0004 61.54 70.0004 53.5998C70.0004 50.8595 69.216 48.3058 67.8826 46.1242L65.8745 48.4192C66.665 49.9787 67.1204 51.735 67.1204 53.5998C67.1204 59.9516 61.9522 65.1198 55.6004 65.1198C49.2486 65.1198 44.0804 59.9516 44.0804 53.5998C44.0804 47.248 49.2486 42.0798 55.6004 42.0798C56.9238 42.0798 58.1883 42.3134 59.372 42.7267L61.3885 40.4261C59.6144 39.6427 57.6596 39.1998 55.6004 39.1998ZM55.6004 44.9598C50.8354 44.9598 46.9604 48.8348 46.9604 53.5998C46.9604 58.3648 50.8354 62.2398 55.6004 62.2398C60.3654 62.2398 64.2404 58.3648 64.2404 53.5998C64.2404 52.6264 64.0716 51.6937 63.7735 50.8211L61.3576 53.5801C61.3576 53.5859 61.3604 53.5926 61.3604 53.5998C61.3604 56.7764 58.777 59.3598 55.6004 59.3598C52.4238 59.3598 49.8404 56.7764 49.8404 53.5998C49.8404 50.6867 52.0217 48.2987 54.8326 47.9186L57.2738 45.1257C56.7324 45.0192 56.1735 44.9598 55.6004 44.9598Z" fill="#0092D6"/>
</svg>
