<svg width="69" height="71" viewBox="0 0 69 71" fill="none" xmlns="http://www.w3.org/2000/svg">
<path d="M31.1209 0C20.7151 0 13.0425 3.58704 8.08086 9.21656C3.11925 14.8461 0.880859 22.4057 0.880859 30.24C0.880859 36.584 2.84789 42.4901 6.17398 47.3287C9.1891 51.715 10.9609 56.9142 10.9609 62.2069V70.56H13.8409V62.2069C13.8409 56.2733 11.8657 50.5244 8.54773 45.6975C5.54071 41.323 3.76086 35.9891 3.76086 30.24C3.76086 22.9543 5.84247 16.1139 10.2409 11.1234C14.6392 6.13296 21.3666 2.88 31.1209 2.88C40.9163 2.88 47.2567 5.72919 51.4468 10.0884C55.6369 14.4477 57.7221 20.4561 58.4921 26.955L58.5259 27.2531L65.4277 39.1472C65.7854 39.7952 65.6072 40.4332 64.9834 40.7841L58.4809 44.0353V52.7062C58.4809 58.0894 54.0453 62.2811 48.6821 61.7794L48.6596 61.7766L42.6409 61.3912V70.56H45.5209V64.4625L48.4149 64.6481C55.4271 65.3041 61.3609 59.6984 61.3609 52.7062V45.8156L66.3531 43.3209L66.3812 43.3041C68.3377 42.2147 69.0268 39.696 67.9477 37.7494L67.9393 37.7353L61.2484 26.2069C60.3906 19.4641 58.2002 12.958 53.5252 8.09437C48.7521 3.12854 41.4855 0 31.1209 0ZM22.4809 11.52C22.099 11.52 21.7327 11.6718 21.4627 11.9418C21.1926 12.2119 21.0409 12.5781 21.0409 12.96V17.28H19.6009C17.2312 17.28 15.2809 19.232 15.2809 21.6C15.2809 23.9688 17.2321 25.92 19.6009 25.92H21.0409V30.24V47.52C21.0409 47.9019 21.1926 48.2681 21.4627 48.5382C21.7327 48.8082 22.099 48.96 22.4809 48.96H26.8009V50.4C26.8009 52.7688 28.7521 54.72 31.1209 54.72C33.4896 54.72 35.4409 52.7688 35.4409 50.4V48.96H39.7609C40.1428 48.96 40.509 48.8082 40.7791 48.5382C41.0491 48.2681 41.2008 47.9019 41.2009 47.52V43.2H42.6409C45.0096 43.2 46.9609 41.2488 46.9609 38.88C46.9609 36.512 45.0105 34.56 42.6409 34.56H41.2009V30.24V24.48C41.2008 24.0981 41.0491 23.7319 40.7791 23.4618C40.509 23.1918 40.1428 23.04 39.7609 23.04H36.8809C36.0672 23.04 35.4409 22.4136 35.4409 21.6C35.4409 20.7885 36.0681 20.16 36.8809 20.16H39.7609C40.1428 20.16 40.509 20.0082 40.7791 19.7382C41.0491 19.4681 41.2008 19.1019 41.2009 18.72V12.96C41.2008 12.5781 41.0491 12.2119 40.7791 11.9418C40.509 11.6718 40.1428 11.52 39.7609 11.52H22.4809ZM23.9209 14.4H38.3209V17.28H36.8809C34.5112 17.28 32.5609 19.232 32.5609 21.6C32.5609 23.9688 34.5121 25.92 36.8809 25.92H38.3209V28.8H34.0009C33.6364 28.7998 33.2854 28.9379 33.0186 29.1864C32.7519 29.4348 32.5893 29.7751 32.5637 30.1387C32.5615 30.1725 32.5606 30.2062 32.5609 30.24V33.12C32.5609 33.7302 32.2084 34.236 31.689 34.4503C31.5158 34.5217 31.3243 34.56 31.1209 34.56C30.3072 34.56 29.6809 33.9336 29.6809 33.12V30.24C29.6804 30.1921 29.6776 30.1442 29.6724 30.0966C29.6368 29.7415 29.4707 29.4123 29.2062 29.1727C28.9417 28.9332 28.5977 28.8003 28.2409 28.8H23.9209V24.48C23.9208 24.0981 23.7691 23.7319 23.4991 23.4618C23.229 23.1918 22.8628 23.04 22.4809 23.04H19.6009C18.7872 23.04 18.1609 22.4136 18.1609 21.6C18.1609 20.7885 18.7881 20.16 19.6009 20.16H22.4809C22.8628 20.16 23.229 20.0082 23.4991 19.7382C23.7691 19.4681 23.9208 19.1019 23.9209 18.72V14.4ZM23.9209 31.68H26.8009V33.12C26.8009 35.4888 28.7521 37.44 31.1209 37.44C33.4896 37.44 35.4409 35.4888 35.4409 33.12V31.68H38.3209V36C38.3209 36.3819 38.4726 36.7481 38.7427 37.0182C39.0127 37.2882 39.379 37.44 39.7609 37.44H42.6409C43.4536 37.44 44.0809 38.0685 44.0809 38.88C44.0809 39.6936 43.4545 40.32 42.6409 40.32H39.7609C39.379 40.32 39.0127 40.4718 38.7427 40.7418C38.4726 41.0119 38.3209 41.3781 38.3209 41.76V46.08H34.0009C33.619 46.08 33.2527 46.2318 32.9827 46.5018C32.7126 46.7719 32.5609 47.1381 32.5609 47.52V50.4C32.5609 51.2136 31.9345 51.84 31.1209 51.84C30.3072 51.84 29.6809 51.2136 29.6809 50.4V47.52C29.6808 47.1381 29.5291 46.7719 29.2591 46.5018C28.989 46.2318 28.6228 46.08 28.2409 46.08H23.9209V31.68Z" fill="#0092D6"/>
</svg>
