<svg width="20" height="20" viewBox="0 0 20 20" fill="none" xmlns="http://www.w3.org/2000/svg">
<path fill-rule="evenodd" clip-rule="evenodd" d="M2.88879 3.77397C2.64471 3.5299 2.64471 3.13417 2.88879 2.89009C3.13287 2.64601 3.52859 2.64601 3.77267 2.89009L17.106 16.2234C17.3501 16.4675 17.3501 16.8632 17.106 17.1073C16.8619 17.3514 16.4662 17.3514 16.2221 17.1073L13.8665 14.7517C12.6921 15.3911 11.3808 15.832 9.9974 15.832C6.8178 15.832 4.01864 13.5026 2.38882 11.7878C1.42248 10.7711 1.42248 9.22634 2.38882 8.20961C3.08033 7.48204 3.98236 6.64382 5.03463 5.91982L2.88879 3.77397ZM7.84353 8.72872C7.6236 9.10091 7.4974 9.53507 7.4974 9.9987C7.4974 11.3794 8.61668 12.4987 9.9974 12.4987C10.461 12.4987 10.8952 12.3725 11.2674 12.1526L7.84353 8.72872ZM9.9974 4.16536C13.177 4.16536 15.9762 6.49481 17.606 8.20961C18.5723 9.22634 18.5723 10.7711 17.606 11.7878C17.2393 12.1736 16.8133 12.5906 16.3372 13.0051L7.84131 4.50923C8.53254 4.2925 9.25459 4.16536 9.9974 4.16536Z" fill="#D0D0D1"/>
</svg>
