<svg width="20" height="21" viewBox="0 0 20 21" fill="none" xmlns="http://www.w3.org/2000/svg">
<path fill-rule="evenodd" clip-rule="evenodd" d="M17.606 12.2904C18.5723 11.2737 18.5723 9.72894 17.606 8.71222C15.9762 6.99741 13.177 4.66797 9.9974 4.66797C6.8178 4.66797 4.01864 6.99741 2.38882 8.71222C1.42248 9.72894 1.42248 11.2737 2.38882 12.2904C4.01864 14.0052 6.8178 16.3346 9.9974 16.3346C13.177 16.3346 15.9762 14.0052 17.606 12.2904ZM9.9974 13.0013C11.3781 13.0013 12.4974 11.882 12.4974 10.5013C12.4974 9.12059 11.3781 8.0013 9.9974 8.0013C8.61668 8.0013 7.4974 9.12059 7.4974 10.5013C7.4974 11.882 8.61668 13.0013 9.9974 13.0013Z" fill="#D0D0D1"/>
</svg>
