<svg width="62" height="64" viewBox="0 0 62 64" fill="none" xmlns="http://www.w3.org/2000/svg">
<path d="M46.2177 48.5913C43.6798 50.5058 40.665 51.8548 37.6263 52.5668L35.3711 63.9585C42.6783 63.4237 49.3825 60.8721 54.8262 56.079L46.2177 48.5879V48.5913Z" fill="#18417E"/>
<path d="M37.4491 11.4632C39.9427 11.9879 42.3478 12.9451 44.5246 14.3623L52.4007 6.72465C47.3385 2.76276 41.5268 0.517805 35.429 0L37.4491 11.4632Z" fill="#18417E"/>
<path d="M12.1578 26.0816C12.9208 23.1247 14.2835 20.3074 16.2968 17.9228L10.8871 9.00425L19.0425 15.2758C21.2261 13.5691 23.9072 12.2712 27.123 11.5626L29.4054 0.027832C11.0029 1.53355 1.61429 14.431 0.159668 28.1971L12.1612 26.0816H12.1578Z" fill="#18417E"/>
<path d="M27.5424 52.7512C23.291 51.9813 19.9798 50.1928 17.4964 47.7741L9.98137 53.1804L15.2446 45.1033C13.3914 42.4257 12.257 39.3053 11.7426 36.0963L0 33.7729C0.691542 48.6053 9.68159 62.8279 29.5251 63.9998L27.5424 52.7546V52.7512Z" fill="#18417E"/>
<path d="M57.2448 30.6286C56.5464 30.523 55.3984 30.3356 54.7136 30.2266C48.5715 29.2762 46.1665 28.9015 43.4582 28.4893C39.3021 27.8727 38.6038 27.7398 38.6038 27.6206C38.6038 27.5524 38.74 27.3412 38.9172 27.1266C39.8744 25.9888 44.8924 19.1552 44.8924 19.0087C44.8924 18.6884 43.9215 19.489 38.0144 24.667C36.9754 25.5766 36.0727 26.2716 36.0182 26.2034C35.9637 26.1353 35.6775 24.4524 35.4016 22.4732C34.9212 19.1552 34.2127 14.4608 33.7323 11.5073C33.2384 8.48564 33.1021 7.57608 32.9931 6.8675C32.8432 5.86596 32.5843 4.61914 32.5128 4.61914C32.4855 4.61914 32.431 4.67365 32.3901 4.72475C32.2811 4.89848 30.6119 15.1285 29.4911 22.4732C29.2049 24.3979 28.9017 26.0569 28.82 26.1251C28.7382 26.2068 28.3124 25.856 25.4543 23.3555C22.034 20.3747 22.0885 20.4258 21.1176 19.6253C20.283 18.9576 19.8742 18.743 20.0786 19.0904C20.2966 19.4788 22.637 22.6333 24.3335 24.8408C26.2616 27.3821 26.4796 27.7023 26.3298 27.7977C26.2616 27.8386 25.8801 27.9033 25.4679 27.9578C24.003 28.1316 11.93 29.8962 9.80769 30.23C9.13659 30.3356 7.5934 30.5775 6.38745 30.7785C5.18492 30.9659 4.11865 31.1805 4.00623 31.2316C3.76096 31.3644 3.97898 31.4053 7.06878 31.8482C10.2948 32.3013 11.5689 32.4784 14.9312 32.9724C16.4778 33.187 19.6766 33.6537 22.0442 33.9875C24.4084 34.3214 26.4081 34.6416 26.4762 34.7097C26.5444 34.7779 25.6961 35.9259 24.48 37.4112C21.9625 40.4873 20.1434 42.8277 20.0207 43.1207C19.8844 43.4545 20.4568 43.0525 22.9197 41.0733C28.6633 36.4607 28.8949 36.2734 28.9903 36.3654C29.0176 36.3926 29.2492 37.9426 29.4979 39.8162C29.7568 41.6763 30.1145 44.2551 30.3053 45.5394C31.6032 54.3523 32.3152 58.9682 32.3697 59.0193C32.4106 59.0602 32.4651 59.0602 32.4923 59.0329C32.5468 58.9784 33.1225 55.7285 33.3951 53.8958C33.4632 53.3746 33.6267 52.3832 33.7357 51.6883C34.2978 48.2374 34.8293 44.6673 35.3777 40.736C35.7184 38.3412 36.0352 36.3483 36.0897 36.2972C36.1578 36.2291 37.3059 37.1012 38.6617 38.222C43.1209 41.9147 45.0218 43.3693 45.0218 43.0764C45.0218 43.0082 41.9048 38.9442 39.7416 36.2018C39.0977 35.374 38.5936 34.6655 38.6344 34.6246C38.6753 34.5837 42.1364 34.0761 46.347 33.4868C50.544 32.911 55.5517 32.2161 57.4662 31.9504C59.3807 31.6813 61.0363 31.4292 61.1317 31.3747C61.3088 31.2827 60.5287 31.1328 57.2345 30.6252L57.2448 30.6286ZM32.5536 35.1492C30.4313 35.1492 28.7076 33.4289 28.7076 31.3031C28.7076 29.1774 30.4279 27.4571 32.5536 27.4571C34.676 27.4571 36.3997 29.1774 36.3997 31.3031C36.3997 33.4254 34.6794 35.1492 32.5536 35.1492Z" fill="#65B55E"/>
<path d="M32.5198 34.3419C34.168 34.3419 35.504 33.0058 35.504 31.3577C35.504 29.7096 34.168 28.3735 32.5198 28.3735C30.8717 28.3735 29.5356 29.7096 29.5356 31.3577C29.5356 33.0058 30.8717 34.3419 32.5198 34.3419Z" fill="#0077D5"/>
</svg>
