<svg width="30" height="30" viewBox="0 0 30 30" fill="none" xmlns="http://www.w3.org/2000/svg">
<path opacity="0.25" d="M3.75 5C3.75 2.92894 5.42894 1.25 7.5 1.25H19.6967C20.6912 1.25 21.6451 1.64509 22.3484 2.34835L25.1516 5.15165C25.8549 5.85491 26.25 6.80874 26.25 7.8033V25C26.25 27.0711 24.5711 28.75 22.5 28.75H7.5C5.42894 28.75 3.75 27.0711 3.75 25V5Z" fill="#65B55E"/>
<path d="M18.75 2.36476C18.75 1.74909 19.2491 1.25 19.8647 1.25C20.7517 1.25 21.6024 1.60234 22.2295 2.22951L25.2705 5.27049C25.8976 5.89766 26.25 6.74829 26.25 7.63524C26.25 8.25091 25.7509 8.75 25.1353 8.75H20C19.3096 8.75 18.75 8.19035 18.75 7.5V2.36476Z" fill="#65B55E"/>
<path d="M11.25 15C10.5596 15 10 15.5596 10 16.25C10 16.9404 10.5596 17.5 11.25 17.5H18.75C19.4404 17.5 20 16.9404 20 16.25C20 15.5596 19.4404 15 18.75 15H11.25Z" fill="#65B55E"/>
<path d="M11.25 20C10.5596 20 10 20.5596 10 21.25C10 21.9404 10.5596 22.5 11.25 22.5H15C15.6904 22.5 16.25 21.9404 16.25 21.25C16.25 20.5596 15.6904 20 15 20H11.25Z" fill="#65B55E"/>
</svg>
