<svg width="32" height="33" viewBox="0 0 32 33" fill="none" xmlns="http://www.w3.org/2000/svg">
<path d="M27 0.5H5C2.23858 0.5 0 2.73858 0 5.5V27.5C0 30.2614 2.23858 32.5 5 32.5H27C29.7614 32.5 32 30.2614 32 27.5V5.5C32 2.73858 29.7614 0.5 27 0.5Z" fill="#231E1B"/>
<path fill-rule="evenodd" clip-rule="evenodd" d="M15.9755 8.69189C11.5719 8.69189 8 12.2638 8 16.6674C8 20.1904 10.2997 23.1751 13.4312 24.2515C13.8226 24.3005 13.9694 24.0558 13.9694 23.8601C13.9694 23.6644 13.9694 23.1751 13.9694 22.4901C11.7676 22.9794 11.2783 21.4136 11.2783 21.4136C10.9358 20.4839 10.3976 20.2393 10.3976 20.2393C9.66361 19.75 10.4465 19.75 10.4465 19.75C11.2294 19.7989 11.6697 20.5818 11.6697 20.5818C12.4037 21.805 13.5291 21.4625 13.9694 21.2668C14.0183 20.7286 14.263 20.3861 14.4587 20.1904C12.6972 19.9946 10.8379 19.3096 10.8379 16.2271C10.8379 15.3463 11.1315 14.6613 11.6697 14.0742C11.6208 13.9274 11.3272 13.0956 11.7676 12.0191C11.7676 12.0191 12.4526 11.8234 13.9694 12.8509C14.6055 12.6552 15.2905 12.6063 15.9755 12.6063C16.6606 12.6063 17.3456 12.7041 17.9817 12.8509C19.4985 11.8234 20.1835 12.0191 20.1835 12.0191C20.6239 13.0956 20.3303 13.9274 20.2813 14.1231C20.7706 14.6613 21.1131 15.3953 21.1131 16.276C21.1131 19.3586 19.2538 19.9946 17.4924 20.1904C17.7859 20.435 18.0306 20.9243 18.0306 21.6583C18.0306 22.7347 18.0306 23.5665 18.0306 23.8601C18.0306 24.0558 18.1774 24.3005 18.5688 24.2515C21.7492 23.1751 24 20.1904 24 16.6674C23.9511 12.2638 20.3792 8.69189 15.9755 8.69189Z" fill="white"/>
</svg>
