<svg width="24" height="24" viewBox="0 0 24 24" fill="none" xmlns="http://www.w3.org/2000/svg">
<path d="M1.16602 3.33329C1.16602 2.13668 2.13607 1.16663 3.33268 1.16663L7.66602 1.16663C8.86263 1.16663 9.83268 2.13668 9.83268 3.33329V5.49996C9.83268 6.69658 8.86263 7.66663 7.66602 7.66663H3.33268C2.13607 7.66663 1.16602 6.69658 1.16602 5.49996L1.16602 3.33329Z" stroke="#0092D6" stroke-width="1.5" stroke-linejoin="round"/>
<path d="M1.16602 14.1666C1.16602 12.97 2.13607 12 3.33268 12H7.66602C8.86263 12 9.83268 12.97 9.83268 14.1666L9.83268 20.6666C9.83268 21.8632 8.86263 22.8333 7.66602 22.8333H3.33268C2.13607 22.8333 1.16602 21.8632 1.16602 20.6666L1.16602 14.1666Z" stroke="#0092D6" stroke-width="1.5" stroke-linejoin="round"/>
<path d="M14.166 3.33329C14.166 2.13668 15.1361 1.16663 16.3327 1.16663L20.666 1.16663C21.8626 1.16663 22.8327 2.13668 22.8327 3.33329V9.83329C22.8327 11.0299 21.8626 12 20.666 12L16.3327 12C15.1361 12 14.166 11.0299 14.166 9.83329V3.33329Z" stroke="#0092D6" stroke-width="1.5" stroke-linejoin="round"/>
<path d="M14.166 18.5C14.166 17.3033 15.1361 16.3333 16.3327 16.3333H20.666C21.8626 16.3333 22.8327 17.3033 22.8327 18.5V20.6666C22.8327 21.8632 21.8626 22.8333 20.666 22.8333H16.3327C15.1361 22.8333 14.166 21.8632 14.166 20.6666L14.166 18.5Z" stroke="#0092D6" stroke-width="1.5" stroke-linejoin="round"/>
</svg>
