<svg width="56" height="56" viewBox="0 0 56 56" fill="none" xmlns="http://www.w3.org/2000/svg">
<path d="M49 43.1667C49 46.389 46.389 49 43.1667 49H12.8333C9.61217 49 7 46.389 7 43.1667V12.8333C7 9.611 9.61217 7 12.8333 7H43.1667C46.389 7 49 9.611 49 12.8333V43.1667Z" fill="#0092D6"/>
<path d="M14 22.1667H19.8333V42H14V22.1667ZM16.8992 19.8333H16.8665C15.1258 19.8333 14 18.536 14 16.9155C14 15.26 15.1608 14 16.933 14C18.7075 14 19.8007 15.26 19.8333 16.9155C19.8333 18.5348 18.7075 19.8333 16.8992 19.8333ZM42 42H36.1667V31.3845C36.1667 28.8202 34.7375 27.0702 32.4427 27.0702C30.6915 27.0702 29.7442 28.2508 29.2845 29.3918C29.1165 29.8002 29.1667 30.9295 29.1667 31.5V42H23.3333V22.1667H29.1667V25.2187C30.0078 23.9167 31.325 22.1667 34.6943 22.1667C38.8687 22.1667 41.9988 24.7917 41.9988 30.653L42 42Z" fill="white"/>
</svg>
