<svg width="24" height="28" viewBox="0 0 24 28" fill="none" xmlns="http://www.w3.org/2000/svg">
<path d="M11.9993 0.666504C5.75218 0.666504 0.666016 5.75267 0.666016 11.9998C0.666016 14.8044 1.69489 17.3764 3.38477 19.354L3.38997 19.3592L3.39388 19.3644C3.39388 19.3644 8.21517 24.8659 9.93164 26.5037C11.0811 27.5996 12.9163 27.5996 14.0658 26.5037C16.0223 24.6376 20.6061 19.3618 20.6061 19.3618L20.6087 19.3579L20.6126 19.354C22.304 17.3764 23.3327 14.8044 23.3327 11.9998C23.3327 5.75267 18.2465 0.666504 11.9993 0.666504ZM11.9993 2.6665C17.1655 2.6665 21.3327 6.83367 21.3327 11.9998C21.3327 14.3166 20.4884 16.4216 19.0918 18.0545C19.0827 18.0649 14.3927 23.4288 12.6855 25.0571C12.2896 25.4346 11.7078 25.4346 11.3118 25.0571C9.88507 23.6957 4.92008 18.0709 4.9056 18.0545L4.9043 18.0532C3.50957 16.4204 2.66602 14.316 2.66602 11.9998C2.66602 6.83367 6.83318 2.6665 11.9993 2.6665ZM11.9993 7.99984C10.7493 7.99984 9.68523 8.50459 9.00195 9.27328C8.31868 10.042 7.99935 11.0276 7.99935 11.9998C7.99935 12.9721 8.31868 13.9577 9.00195 14.7264C9.68523 15.4951 10.7493 15.9998 11.9993 15.9998C13.2493 15.9998 14.3135 15.4951 14.9967 14.7264C15.68 13.9577 15.9993 12.9721 15.9993 11.9998C15.9993 11.0276 15.68 10.042 14.9967 9.27328C14.3135 8.50459 13.2493 7.99984 11.9993 7.99984ZM11.9993 9.99984C12.7493 9.99984 13.1852 10.2451 13.502 10.6014C13.8187 10.9577 13.9993 11.4721 13.9993 11.9998C13.9993 12.5276 13.8187 13.042 13.502 13.3983C13.1852 13.7546 12.7493 13.9998 11.9993 13.9998C11.2493 13.9998 10.8135 13.7546 10.4967 13.3983C10.18 13.042 9.99935 12.5276 9.99935 11.9998C9.99935 11.4721 10.18 10.9577 10.4967 10.6014C10.8135 10.2451 11.2493 9.99984 11.9993 9.99984Z" fill="#18417E"/>
</svg>
