<svg width="107" height="72" viewBox="0 0 107 72" fill="none" xmlns="http://www.w3.org/2000/svg">
<path d="M13.4783 58.7619C11.9707 60.2857 9.99192 60.9524 7.82471 60.9524C2.35957 61.0476 0.00390625 57.1429 0.00390625 53.3333C0.00390625 49.4286 2.4538 45.4286 7.82471 45.4286C9.80346 45.4286 11.7822 46.1905 13.2898 47.7143L11.4053 49.5238C10.463 48.5714 9.14388 48.0953 7.82471 48.0953C4.2441 48.0953 2.73647 50.7619 2.73647 53.3333C2.73647 55.8095 4.14987 58.381 7.82471 58.381C9.14388 58.381 10.5573 57.8095 11.5938 56.8572L13.4783 58.7619Z" fill="#15427E"/>
<path d="M22.1464 50.0953H24.5962V60.6667H22.1464L22.0521 59.1429C21.4868 60.381 19.7907 60.9524 18.66 61.0476C15.5505 61.0476 13.2891 59.1429 13.2891 55.4286C13.2891 51.8095 15.6447 49.9048 18.7542 49.9048C20.1676 49.9048 21.4868 50.5715 22.0521 51.6191L22.1464 50.0953ZM15.9274 55.4286C15.9274 57.4286 17.3408 58.6667 19.0369 58.6667C23.0886 58.6667 23.0886 52.2857 19.0369 52.2857C17.2466 52.1905 15.9274 53.3334 15.9274 55.4286Z" fill="#15427E"/>
<path d="M27.8972 50.0952L28.0856 51.3333C28.9336 49.9999 29.9701 49.8094 31.0066 49.8094C32.0431 49.8094 33.0796 50.1904 33.7392 50.8571L32.6085 53.1428C32.0431 52.6666 31.572 52.4761 30.7239 52.4761C29.4048 52.4761 28.0856 53.238 28.0856 55.1428V60.6666H25.4473V50.0952H27.8972Z" fill="#15427E"/>
<path d="M35.4313 56.2856C35.6198 57.619 36.7505 58.5714 38.5408 58.5714C39.4831 58.5714 40.708 58.1904 41.3676 57.619L43.0637 59.238C41.9329 60.3809 40.1426 60.9523 38.5408 60.9523C34.9602 60.9523 32.793 58.6666 32.793 55.3333C32.793 52.0952 34.9602 49.8094 38.3523 49.8094C41.8387 49.8094 44.0059 51.9999 43.629 56.2856H35.4313ZM41.1791 54.1904C40.9907 52.8571 39.9542 52.0952 38.4466 52.0952C37.0332 52.0952 35.9024 52.7618 35.5255 54.1904H41.1791Z" fill="#15427E"/>
<path d="M46.4587 56.2856C46.6471 57.619 47.7778 58.5714 49.5681 58.5714C50.5104 58.5714 51.7353 58.1904 52.3949 57.619L54.091 59.238C52.9603 60.3809 51.17 60.9523 49.5681 60.9523C45.9875 60.9523 43.8203 58.6666 43.8203 55.3333C43.8203 52.0952 45.9875 49.8094 49.3797 49.8094C52.8661 49.8094 55.0333 51.9999 54.6564 56.2856H46.4587ZM52.1122 54.1904C51.9238 52.8571 50.8873 52.0952 49.3797 52.0952C47.9663 52.0952 46.8356 52.7618 46.4587 54.1904H52.1122Z" fill="#15427E"/>
<path d="M57.5744 50.0952L57.7629 51.3333C58.6109 49.9999 59.6474 49.8094 60.6839 49.8094C61.7204 49.8094 62.7569 50.1904 63.4165 50.8571L62.2857 53.1428C61.7204 52.6666 61.2492 52.4761 60.4012 52.4761C59.082 52.4761 57.7629 53.238 57.7629 55.1428V60.6666H55.2188V50.0952H57.5744Z" fill="#15427E"/>
<path d="M66.8102 45.7139V58.0948H74.4425V60.7615H63.9834V45.7139H66.8102Z" fill="#65B65E"/>
<path d="M83.3016 50.1905H85.7515V60.7619H83.3016L83.2074 59.2381C82.642 60.4762 80.946 61.0476 79.8152 61.1429C76.7058 61.1429 74.4443 59.2381 74.4443 55.5238C74.4443 51.9048 76.8 50 79.9095 50C81.3229 50 82.642 50.6667 83.2074 51.7143L83.3016 50.1905ZM77.0827 55.4286C77.0827 57.4286 78.4961 58.6667 80.1922 58.6667C84.2439 58.6667 84.2439 52.2857 80.1922 52.2857C78.4018 52.2857 77.0827 53.4286 77.0827 55.4286Z" fill="#65B65E"/>
<path d="M88.9523 45.8094V51.619C89.6119 50.5714 91.308 49.9047 92.3444 49.9047C95.3597 49.9047 97.6211 51.8095 97.6211 55.4285C97.6211 58.8571 95.3597 60.9523 92.2502 60.9523C91.0253 60.9523 89.7061 60.5714 88.8581 59.238L88.6696 60.6666H86.2197V45.8094H88.9523ZM89.1407 55.4285C89.1407 57.3333 90.5541 58.5714 92.156 58.5714C93.8521 58.5714 95.077 57.3333 95.077 55.4285C95.077 53.5237 93.7578 52.3809 92.156 52.3809C90.5541 52.3809 89.1407 53.619 89.1407 55.4285Z" fill="#65B65E"/>
<path d="M104.878 52.9524C104.124 52.2857 103.276 52 102.334 52C101.109 52 100.449 52.3809 100.449 53.0476C100.449 53.7143 101.109 54.0952 102.428 54.1905C104.407 54.2857 106.857 54.7619 106.857 57.5238C106.857 59.4285 105.349 60.9524 102.334 60.9524C100.638 60.9524 99.0359 60.6666 97.5283 59.0476L98.7533 57.1428C99.5071 58 101.203 58.5714 102.334 58.5714C103.276 58.5714 104.218 58.0952 104.218 57.3333C104.218 56.5714 103.653 56.2857 102.145 56.1904C100.167 56 97.811 55.3333 97.811 52.9524C97.811 50.4762 100.261 49.619 102.24 49.619C103.841 49.619 105.066 49.9047 106.291 51.0476L104.878 52.9524Z" fill="#65B65E"/>
<path d="M42.0297 67.7142C42.0297 68.1904 41.8412 68.5714 41.2759 68.8571C41.9355 69.0476 42.2181 69.8095 42.2181 70.1904C42.2181 71.5238 41.2759 71.9047 40.0509 71.9047H37.3184V66.0952H40.0509C41.1816 66 42.0297 66.5714 42.0297 67.7142ZM38.3549 68.3809H40.0509C40.7105 68.3809 40.9932 68.0952 40.9932 67.7142C40.9932 67.4285 40.8047 67.0476 40.0509 67.0476H38.3549V68.3809ZM38.3549 70.7619H40.0509C40.5221 70.7619 41.0874 70.5714 41.0874 70.0952C41.0874 69.619 40.4278 69.3333 40.0509 69.3333H38.3549V70.7619Z" fill="#15427E"/>
<path d="M48.2483 68.9524C48.2483 70.4762 47.306 71.9048 45.3273 71.9048C43.3485 71.9048 42.4062 70.4762 42.4062 68.9524C42.4062 67.4286 43.3485 65.9048 45.3273 65.9048C47.306 65.9048 48.2483 67.4286 48.2483 68.9524ZM43.4427 68.9524C43.4427 69.9048 44.0081 70.9524 45.3273 70.9524C46.6464 70.9524 47.2118 69.9048 47.2118 68.9524C47.2118 68 46.6464 66.8572 45.3273 66.8572C43.9139 66.8572 43.3485 68 43.4427 68.9524Z" fill="#15427E"/>
<path d="M52.3008 67.4285C52.1123 67.1428 51.547 66.7618 50.9816 66.7618C50.1336 66.7618 49.7567 67.1428 49.7567 67.5237C49.7567 67.9999 50.322 68.1904 51.0758 68.2856C52.3008 68.4761 53.3373 68.7618 53.3373 70.0952C53.3373 71.4285 52.2066 71.9047 50.8874 71.9047C49.7567 71.9047 48.8144 71.5237 48.4375 70.4761L49.3798 69.9999C49.6624 70.6666 50.322 70.9523 50.9816 70.9523C51.6412 70.9523 52.3008 70.6666 52.3008 70.0952C52.3008 69.5237 51.7354 69.3333 50.9816 69.238C49.8509 69.1428 48.7202 68.7618 48.7202 67.5237C48.7202 66.2856 49.8509 65.8094 50.9816 65.8094C51.8297 65.8094 52.7719 66.0952 53.2431 66.9523L52.3008 67.4285Z" fill="#15427E"/>
<path d="M55.2219 67.0477H53.4316V66.0001H58.143V67.0477H56.3527V71.8096H55.2219V67.0477Z" fill="#15427E"/>
<path d="M63.9846 68.9524C63.9846 70.4762 63.0424 71.9048 61.0636 71.9048C59.0848 71.9048 58.1426 70.4762 58.1426 68.9524C58.1426 67.4286 59.0848 65.9048 61.0636 65.9048C63.0424 65.9048 64.0788 67.4286 63.9846 68.9524ZM59.1791 68.9524C59.1791 69.9048 59.7444 70.9524 61.0636 70.9524C62.3828 70.9524 62.9481 69.9048 62.9481 68.9524C62.9481 68 62.3828 66.8572 61.0636 66.8572C59.7444 66.8572 59.1791 68 59.1791 68.9524Z" fill="#15427E"/>
<path d="M68.1328 65.9998H69.2636V71.8093H68.604L65.5887 67.9045V71.8093H64.458V65.9998H65.4003L68.1328 69.6188V65.9998Z" fill="#15427E"/>
<path d="M63.5128 31.7144C61.911 32.9525 59.9322 33.8096 57.9534 34.2858L56.54 41.7144C61.2514 41.3334 65.5858 39.7144 69.0722 36.5715L63.5128 31.7144Z" fill="#15427E"/>
<path d="M57.8592 7.52381C59.4611 7.90476 61.0629 8.47619 62.3821 9.42857L67.4703 4.47619C64.1724 1.80952 60.4976 0.380952 56.54 0L57.8592 7.52381Z" fill="#15427E"/>
<path d="M41.4629 17.0476C41.934 15.1429 42.8763 13.2381 44.1012 11.7143L40.6149 5.90476L45.8915 10C47.3049 8.85714 49.001 8 51.074 7.61905L52.5816 0C40.7091 0.952381 34.6786 9.42857 33.7363 18.381L41.4629 17.0476Z" fill="#15427E"/>
<path d="M51.4509 34.381C48.7183 33.9048 46.5511 32.6667 44.9493 31.1429L40.1437 34.6667L43.5359 29.4286C42.3109 27.7143 41.6514 25.619 41.2744 23.5238L33.7363 22C34.2075 31.7143 39.9553 40.9524 52.7701 41.7143L51.4509 34.381Z" fill="#15427E"/>
<path d="M70.578 19.9999C70.1069 19.9046 69.3531 19.8094 68.9762 19.7142C65.0187 19.0475 63.4168 18.857 61.7208 18.5713C59.0824 18.1903 58.6113 18.0951 58.6113 17.9999C58.6113 17.9999 58.7055 17.8094 58.7997 17.7142C59.4593 16.9522 62.663 12.4761 62.663 12.3808C62.663 12.1903 62.0034 12.6665 58.2344 16.0951C57.4806 16.6665 56.9152 17.1427 56.9152 17.1427C56.9152 17.1427 56.7267 15.9999 56.5383 14.6665C56.2556 12.4761 55.7845 9.42844 55.5018 7.52368C55.2191 5.52368 55.1249 4.95225 55.0307 4.47606C54.8422 3.80939 54.6538 3.04749 54.6538 3.04749C54.6538 3.04749 54.5595 3.04749 54.5595 3.14272C54.4653 3.23796 53.4288 9.90463 52.675 14.7618C52.4866 15.9999 52.2981 17.1427 52.2039 17.1427C52.1097 17.238 51.9212 16.9522 50.0367 15.3332C47.8695 13.4284 47.8695 13.4284 47.2099 12.857C46.6445 12.3808 46.3618 12.2856 46.5503 12.4761C46.6445 12.7618 48.2464 14.7618 49.2829 16.1903C50.5078 17.8094 50.6963 18.0951 50.602 18.0951C50.602 18.0951 50.3193 18.1903 50.0367 18.1903C49.0944 18.2856 41.2736 19.4284 39.9544 19.7142C39.4833 19.8094 38.541 19.9046 37.7872 20.0951C37.0334 20.1903 36.2796 20.3808 36.2796 20.3808C36.0911 20.4761 36.2796 20.4761 38.2584 20.7618C40.3313 21.0475 41.1794 21.1427 43.3466 21.5237C44.3831 21.6189 46.4561 21.9999 47.9637 22.1903C49.4713 22.3808 50.7905 22.5713 50.7905 22.6665C50.7905 22.6665 50.3193 23.4284 49.4713 24.4761C47.8695 26.4761 46.6445 27.9999 46.5503 28.1903C46.4561 28.3808 46.833 28.1903 48.4348 26.857C52.1097 23.8094 52.2981 23.7141 52.3923 23.8094C52.3923 23.8094 52.5808 24.857 52.675 26.0951C52.8635 27.3332 53.0519 28.9522 53.2404 29.8094C54.0884 35.5237 54.5595 38.5713 54.5595 38.5713H54.6538C54.6538 38.5713 55.0307 36.3808 55.2191 35.238C55.2191 34.857 55.4076 34.2856 55.4076 33.8094C55.7845 31.5237 56.0672 29.238 56.4441 26.6665C56.6325 25.1427 56.821 23.8094 56.9152 23.8094C56.9152 23.8094 57.669 24.3808 58.6113 25.0475C61.5323 27.4284 62.7572 28.3808 62.7572 28.1903C62.7572 28.1903 60.7785 25.5237 59.3651 23.7141C58.9882 23.1427 58.6113 22.6665 58.6113 22.6665C58.6113 22.6665 60.8727 22.2856 63.6053 21.9046C66.3379 21.5237 69.5415 21.0475 70.7665 20.857C71.9914 20.6665 73.0279 20.4761 73.1222 20.4761C73.2164 20.3808 72.7453 20.2856 70.578 19.9999ZM54.6538 22.9522C53.2404 22.9522 52.2039 21.8094 52.2039 20.4761C52.2039 19.0475 53.3346 17.9999 54.6538 17.9999C56.0672 17.9999 57.1037 19.1427 57.1037 20.4761C57.1037 21.8094 56.0672 22.9522 54.6538 22.9522Z" fill="#65B65E"/>
<path d="M56.5405 20.4762C56.5405 21.5238 55.6925 22.3809 54.656 22.3809C53.6195 22.3809 52.7715 21.5238 52.7715 20.4762C52.7715 19.4286 53.6195 18.5714 54.656 18.5714C55.6925 18.5714 56.5405 19.4286 56.5405 20.4762Z" fill="#1590D0"/>
</svg>
