<svg width="20" height="23" viewBox="0 0 20 23" fill="none" xmlns="http://www.w3.org/2000/svg">
<path fill-rule="evenodd" clip-rule="evenodd" d="M1.50083 13.4551V13.2361C1.53295 12.5882 1.7406 11.9605 2.10236 11.4176C2.7045 10.7654 3.1167 9.96627 3.29571 9.10395C3.29571 8.43747 3.29571 7.76147 3.35393 7.095C3.65469 3.88638 6.82728 1.66797 9.96106 1.66797H10.0387C13.1725 1.66797 16.345 3.88638 16.6555 7.095C16.7137 7.76147 16.6555 8.43747 16.704 9.10395C16.8854 9.96827 17.2972 10.7699 17.8974 11.4271C18.2618 11.9652 18.4698 12.5906 18.4989 13.2361V13.4456C18.5206 14.316 18.2208 15.1648 17.6548 15.8354C16.907 16.6194 15.8921 17.1072 14.8024 17.2064C11.607 17.5492 8.38303 17.5492 5.18762 17.2064C4.09914 17.103 3.08576 16.6159 2.33521 15.8354C1.778 15.1643 1.48224 14.3206 1.50083 13.4551Z" stroke="#D0D0D1" stroke-width="1.5" stroke-linecap="round" stroke-linejoin="round"/>
<path d="M7.55469 20.5195C8.05396 21.1462 8.78715 21.5518 9.59198 21.6465C10.3968 21.7412 11.2069 21.5172 11.843 21.0241C12.0387 20.8783 12.2147 20.7088 12.3669 20.5195" stroke="#D0D0D1" stroke-width="1.5" stroke-linecap="round" stroke-linejoin="round"/>
</svg>
