<svg width="32" height="32" viewBox="0 0 32 32" fill="none" xmlns="http://www.w3.org/2000/svg">
<path d="M16.0012 1.28125C7.87875 1.28125 1.28125 7.87875 1.28125 16.0012C1.28125 24.1237 7.87875 30.7212 16.0012 30.7212C24.1237 30.7212 30.7212 24.1237 30.7212 16.0012C30.7212 7.87875 24.1237 1.28125 16.0012 1.28125ZM16.0012 2.56125C23.4312 2.56125 29.4412 8.57125 29.4412 16.0012C29.4412 23.4312 23.4312 29.4412 16.0012 29.4412C8.57125 29.4412 2.56125 23.4312 2.56125 16.0012C2.56125 8.57125 8.57125 2.56125 16.0012 2.56125ZM10.2413 9.60125V22.4012H14.7212V9.60125H10.2413ZM17.2812 9.60125V22.4012H21.7612V9.60125H17.2812ZM11.5212 10.8812H13.4412V21.1213H11.5212V10.8812ZM18.5612 10.8812H20.4812V21.1213H18.5612V10.8812Z" fill="white"/>
</svg>
