<svg width="18" height="20" viewBox="0 0 18 20" fill="none" xmlns="http://www.w3.org/2000/svg">
<path fill-rule="evenodd" clip-rule="evenodd" d="M0 16V4C0 1.79086 1.79086 0 4 0H8.34314C8.65091 0 8.95502 0.0354679 9.25 0.10414V4C9.25 6.62335 11.3766 8.75 14 8.75H17.8959C17.9645 9.04498 18 9.34909 18 9.65685V16C18 18.2091 16.2091 20 14 20H4C1.79086 20 0 18.2091 0 16ZM10.75 4V0.805133C10.898 0.916669 11.039 1.03899 11.1716 1.17157L16.8284 6.82843C16.961 6.96101 17.0833 7.10195 17.1949 7.25H14C12.2051 7.25 10.75 5.79493 10.75 4ZM3.43652 16V11.7051H4.82812C5.35547 11.7051 5.69922 11.7266 5.85938 11.7695C6.10547 11.834 6.31152 11.9746 6.47754 12.1914C6.64355 12.4062 6.72656 12.6846 6.72656 13.0264C6.72656 13.29 6.67871 13.5117 6.58301 13.6914C6.4873 13.8711 6.36523 14.0127 6.2168 14.1162C6.07031 14.2178 5.9209 14.2852 5.76855 14.3184C5.56152 14.3594 5.26172 14.3799 4.86914 14.3799H4.30371V16H3.43652ZM4.30371 12.4316V13.6504H4.77832C5.12012 13.6504 5.34863 13.6279 5.46387 13.583C5.5791 13.5381 5.66895 13.4678 5.7334 13.3721C5.7998 13.2764 5.83301 13.165 5.83301 13.0381C5.83301 12.8818 5.78711 12.7529 5.69531 12.6514C5.60352 12.5498 5.4873 12.4863 5.34668 12.4609C5.24316 12.4414 5.03516 12.4316 4.72266 12.4316H4.30371ZM7.43555 11.7051H9.02051C9.37793 11.7051 9.65039 11.7324 9.83789 11.7871C10.0898 11.8613 10.3057 11.9932 10.4854 12.1826C10.665 12.3721 10.8018 12.6045 10.8955 12.8799C10.9893 13.1533 11.0361 13.4912 11.0361 13.8936C11.0361 14.2471 10.9922 14.5518 10.9043 14.8076C10.7969 15.1201 10.6436 15.373 10.4443 15.5664C10.2939 15.7129 10.0908 15.8271 9.83496 15.9092C9.64355 15.9697 9.3877 16 9.06738 16H7.43555V11.7051ZM8.30273 12.4316V15.2764H8.9502C9.19238 15.2764 9.36719 15.2627 9.47461 15.2354C9.61523 15.2002 9.73145 15.1406 9.82324 15.0566C9.91699 14.9727 9.99316 14.835 10.0518 14.6436C10.1104 14.4502 10.1396 14.1875 10.1396 13.8555C10.1396 13.5234 10.1104 13.2686 10.0518 13.0908C9.99316 12.9131 9.91113 12.7744 9.80566 12.6748C9.7002 12.5752 9.56641 12.5078 9.4043 12.4727C9.2832 12.4453 9.0459 12.4316 8.69238 12.4316H8.30273ZM11.7803 11.7051V16H12.6475V14.1748H14.4404V13.4482H12.6475V12.4316H14.7246V11.7051H11.7803Z" fill="white"/>
</svg>
