<svg width="22" height="28" viewBox="0 0 22 28" fill="none" xmlns="http://www.w3.org/2000/svg">
<path d="M6.6919 0.721418C6.46933 0.738778 6.24611 0.77427 6.02523 0.829491L6.00049 0.836001L4.44711 1.30866C2.78704 1.80668 1.45749 3.12377 1.03175 4.82038V4.82168C0.0722475 8.58779 1.19812 12.9822 4.13852 17.974C7.07801 22.9643 10.4342 26.1229 14.1906 27.1589C15.8989 27.6673 17.7501 27.1791 19.0161 25.9975L19.0187 25.9962L20.2166 24.8646V24.8633C21.5643 23.6047 21.7623 21.5312 20.6698 20.0704L20.6672 20.0678L18.9367 17.737L18.9471 17.7527C18.0291 16.4675 16.3765 15.9254 14.8521 16.3738L12.1372 17.168C12.055 17.1904 11.9983 17.1813 11.8807 17.1225C11.7631 17.0637 11.6354 16.954 11.5747 16.8933L11.5513 16.8699L11.5252 16.8477C11.1449 16.515 10.4909 15.6938 9.85727 14.6824C9.19582 13.5455 8.89941 12.7991 8.78305 12.3659C8.66597 11.9302 8.70082 11.8617 8.71404 11.7956C8.7502 11.6148 8.79649 11.552 8.83904 11.5092L10.8117 9.66803L10.813 9.66673C11.9884 8.58063 12.2822 6.88696 11.6398 5.51048L10.4471 2.86074C9.88696 1.6004 8.67338 0.839168 7.35596 0.724022C7.13639 0.704831 6.91447 0.704058 6.6919 0.721418ZM6.84945 2.71491C7.62576 2.65365 8.34089 3.0446 8.62029 3.67324L8.62159 3.67454L9.82471 6.35032L9.82732 6.35683C10.118 6.97981 10.0117 7.68403 9.45492 8.19798L9.45362 8.20058L7.4393 10.0808L7.42628 10.0925C7.06914 10.4496 6.84994 10.9195 6.7531 11.4037C6.69965 11.6709 6.66914 12.2033 6.85206 12.8842C7.03498 13.565 7.40734 14.4533 8.13721 15.7045L8.14503 15.7175L8.15284 15.7305C8.84269 16.8343 9.51164 17.7293 10.1893 18.3282C10.3326 18.4703 10.5848 18.7108 10.9862 18.9115C11.4019 19.1194 12.0121 19.2753 12.6633 19.0977L12.6724 19.0951L15.4159 18.293C16.1581 18.0747 16.9042 18.3327 17.3195 18.9141L17.326 18.9219L19.0656 21.2644L19.0669 21.267C19.5709 21.939 19.5024 22.7954 18.8521 23.4024L18.8495 23.4037L17.6515 24.5352C16.9201 25.2179 15.7099 25.5289 14.7544 25.2423L14.7427 25.2383L14.7323 25.2357C11.6935 24.4016 8.65315 21.6974 5.86247 16.9597C3.06986 12.2188 2.19597 8.34748 2.96924 5.31387L2.97055 5.31126V5.30866C3.21257 4.34055 4.01606 3.5256 5.02133 3.22402H5.02263H5.02523L6.51352 2.7696C6.62579 2.74177 6.73855 2.72366 6.84945 2.71491Z" fill="#18417E"/>
</svg>
