<svg width="20" height="20" viewBox="0 0 20 20" fill="none" xmlns="http://www.w3.org/2000/svg">
<path fill-rule="evenodd" clip-rule="evenodd" d="M0 4C0 1.79086 1.79086 0 4 0H16C18.2091 0 20 1.79086 20 4V10.449L17.7535 8.97857C16.019 7.84327 13.7486 7.96391 12.1442 9.2766L6.906 13.5624C5.80825 14.4606 4.25482 14.5431 3.06808 13.7663L0 11.7581V4ZM16.932 10.2336L20 12.2418V16C20 18.2091 18.2091 20 16 20H4C1.79086 20 0 18.2091 0 16V13.5509L2.24659 15.0214C3.98106 16.1567 6.25145 16.036 7.85585 14.7233L13.0941 10.4375C14.1918 9.53938 15.7452 9.45684 16.932 10.2336ZM6.5 9C7.88071 9 9 7.88071 9 6.5C9 5.11929 7.88071 4 6.5 4C5.11929 4 4 5.11929 4 6.5C4 7.88071 5.11929 9 6.5 9Z" fill="white"/>
</svg>
