<svg width="30" height="30" viewBox="0 0 30 30" fill="none" xmlns="http://www.w3.org/2000/svg">
<path fill-rule="evenodd" clip-rule="evenodd" d="M1.48828 15.0028C1.48828 7.51955 7.51955 1.48828 15.0028 1.48828C22.486 1.48828 28.5172 7.51955 28.5172 15.0028C28.5172 22.486 22.486 28.5172 15.0028 28.5172C7.51955 28.5172 1.48828 22.486 1.48828 15.0028ZM27.3421 15.0028C27.3421 8.14888 21.8566 2.66345 15.0028 2.66345C8.14888 2.66345 2.66345 8.14888 2.66345 15.0028C2.66345 21.8566 8.14888 27.3421 15.0028 27.3421C21.8566 27.3421 27.3421 21.8566 27.3421 15.0028ZM12.9717 10.1052C12.9173 10.1038 12.8631 10.1134 12.8124 10.1332C12.7617 10.1531 12.7155 10.183 12.6765 10.221C12.6375 10.259 12.6065 10.3045 12.5854 10.3547C12.5642 10.4048 12.5533 10.4588 12.5533 10.5132V19.49C12.5533 19.5617 12.5722 19.6322 12.6081 19.6943C12.644 19.7564 12.6956 19.8079 12.7577 19.8437C12.8199 19.8795 12.8903 19.8983 12.962 19.8982C13.0337 19.8981 13.1042 19.8791 13.1662 19.8431L20.9189 15.3547C20.9808 15.3188 21.0321 15.2673 21.0678 15.2054C21.1035 15.1434 21.1223 15.0731 21.1223 15.0016C21.1223 14.9301 21.1035 14.8599 21.0678 14.7979C21.0321 14.7359 20.9808 14.6844 20.9189 14.6486L13.1662 10.1602C13.107 10.1258 13.0401 10.1069 12.9717 10.1052ZM13.3711 11.2188L19.9013 14.9995L13.3711 18.7802V11.2188Z" fill="white"/>
</svg>
