<svg width="50" height="50" viewBox="0 0 50 50" fill="none" xmlns="http://www.w3.org/2000/svg">
<path d="M18.75 39.6404C21.0521 39.6404 22.9167 37.7758 22.9167 35.4737V27.1404C22.9167 24.8383 21.0521 22.9737 18.75 22.9737H12.4797L19.3522 13.7411C20.373 12.3682 19.3944 10.4167 17.6799 10.4167C17.0215 10.4167 16.4053 10.7258 16.0116 11.255L7.07194 23.2626C6.53861 23.9814 6.25 24.8529 6.25 25.7488V35.4737C6.25 37.7758 8.11459 39.6404 10.4167 39.6404H18.75ZM39.5833 39.5834C41.8854 39.5834 43.75 37.7188 43.75 35.4167V27.0834C43.75 24.7813 41.8854 22.9167 39.5833 22.9167H33.313L40.1449 13.7452C41.1657 12.3702 40.1871 10.4167 38.4725 10.4167C37.8142 10.4167 37.1939 10.7258 36.8001 11.255L27.9053 23.2056C27.3719 23.9244 27.0833 24.7939 27.0833 25.6918V35.4167C27.0833 37.7188 28.9479 39.5834 31.25 39.5834H39.5833Z" fill="white"/>
</svg>
