<svg width="33" height="35" viewBox="0 0 33 35" fill="none" xmlns="http://www.w3.org/2000/svg">
<g clip-path="url(#clip0_437_866)">
<rect width="33" height="35" fill="white"/>
<path fill-rule="evenodd" clip-rule="evenodd" d="M21.6695 3.84616C20.2753 2.60694 18.2247 2.60694 16.8305 3.84616L15.6011 4.93893C15.0037 5.46997 14.2608 5.79089 13.4784 5.85602L11.8682 5.99004C10.0422 6.14202 8.59227 7.65435 8.44656 9.55885L8.31806 11.2383C8.25562 12.0544 7.94793 12.8292 7.4388 13.4523L6.39109 14.7346C5.20297 16.1888 5.20297 18.3275 6.39109 19.7817L7.4388 21.064C7.94793 21.6871 8.25562 22.4619 8.31806 23.278L8.44656 24.9575C8.59227 26.862 10.0422 28.3743 11.8682 28.5263L13.4784 28.6603C14.2608 28.7254 15.0037 29.0464 15.6011 29.5774L16.8305 30.6702C18.2247 31.9094 20.2753 31.9094 21.6695 30.6702L22.8989 29.5774C23.4963 29.0464 24.2392 28.7254 25.0216 28.6603L26.6318 28.5263C28.4578 28.3743 29.9077 26.862 30.0534 24.9575L30.1819 23.278C30.2444 22.4619 30.5521 21.6871 31.0612 21.064L32.1089 19.7817C33.297 18.3275 33.297 16.1888 32.1089 14.7346L31.0612 13.4523C30.5521 12.8292 30.2444 12.0544 30.1819 11.2383L30.0534 9.55886C29.9077 7.65435 28.4578 6.14202 26.6318 5.99004L25.0216 5.85602C24.2392 5.79089 23.4963 5.46997 22.8989 4.93894L21.6695 3.84616ZM10.6562 36.6847V31.5996C10.9825 31.6832 11.3189 31.7404 11.6631 31.7691L13.2733 31.9031C13.515 31.9232 13.7444 32.0223 13.9289 32.1863L15.1583 33.2791C17.5161 35.3748 20.9839 35.3748 23.3417 33.2791L24.5711 32.1863C24.7556 32.0223 24.9851 31.9232 25.2267 31.9031L26.8369 31.7691C27.1811 31.7404 27.5175 31.6832 27.8438 31.5996V36.6847C27.8438 37.953 26.6157 38.8202 25.4867 38.3492L19.8883 36.0135C19.4786 35.8426 19.0214 35.8426 18.6117 36.0135L13.0133 38.3492C11.8843 38.8202 10.6562 37.953 10.6562 36.6847Z" fill="#00D62E"/>
</g>
<defs>
<clipPath id="clip0_437_866">
<rect width="33" height="35" fill="white"/>
</clipPath>
</defs>
</svg>
