<svg width="21" height="16" viewBox="0 0 21 16" fill="none" xmlns="http://www.w3.org/2000/svg">
<path fill-rule="evenodd" clip-rule="evenodd" d="M5.38458 0.956573L17.9347 1.29642C19.8953 1.34951 20.9527 3.61722 19.7332 5.15322L11.9264 14.9856C10.5379 16.7344 7.72263 15.7825 7.68271 13.5507L7.6107 9.52434C7.60931 9.44667 7.60413 9.36948 7.59527 9.29303L11.2804 7.57464C11.6558 7.39959 11.8182 6.95335 11.6431 6.57795C11.4681 6.20254 11.0218 6.04013 10.6464 6.21518L6.96135 7.93356C6.90847 7.87763 6.85268 7.82405 6.79407 7.77306L3.75595 5.12977C2.072 3.66467 3.15245 0.896128 5.38458 0.956573ZM0.375631 9.62551C0.200577 9.25011 0.362993 8.80387 0.738398 8.62882L2.55101 7.78358C2.92642 7.60853 3.37265 7.77094 3.54771 8.14635C3.72276 8.52175 3.56035 8.96799 3.18494 9.14304L1.37233 9.98828C0.996921 10.1633 0.550685 10.0009 0.375631 9.62551ZM2.4298 12.2538C2.0544 12.4289 1.89198 12.8751 2.06704 13.2505C2.24209 13.6259 2.68833 13.7883 3.06373 13.6133L4.87635 12.768C5.25175 12.593 5.41417 12.1468 5.23911 11.7713C5.06406 11.3959 4.61782 11.2335 4.24242 11.4086L2.4298 12.2538Z" fill="#ED1C24"/>
</svg>
