<svg width="33" height="33" viewBox="0 0 33 33" fill="none" xmlns="http://www.w3.org/2000/svg">
<path d="M13.7951 4.49819C14.9016 2.16727 18.0984 2.16727 19.2049 4.49819L21.1171 8.52662C21.5565 9.45223 22.4058 10.0938 23.3882 10.2422L27.6641 10.8882C30.1382 11.262 31.1261 14.4231 29.3358 16.2375L26.2418 19.3732C25.5308 20.0937 25.2064 21.1317 25.3743 22.1491L26.1047 26.5768C26.5273 29.1387 23.941 31.0924 21.7281 29.8828L17.9036 27.7923C17.0249 27.312 15.9751 27.312 15.0964 27.7923L11.2719 29.8828C9.05904 31.0924 6.47271 29.1387 6.89533 26.5768L7.62573 22.1491C7.79356 21.1317 7.46915 20.0937 6.75824 19.3732L3.6642 16.2375C1.87394 14.4231 2.86183 11.262 5.33591 10.8882L9.61176 10.2422C10.5942 10.0938 11.4435 9.45223 11.8829 8.52662L13.7951 4.49819Z" fill="#00D62E"/>
</svg>
