<svg width="41" height="42" viewBox="0 0 41 42" fill="none" xmlns="http://www.w3.org/2000/svg">
<path d="M16 0C10.4949 0 6 4.49492 6 10C6 15.5051 10.4949 20 16 20C21.5051 20 26 15.5051 26 10C26 4.49492 21.5051 0 16 0ZM16 3C19.8838 3 23 6.11624 23 10C23 13.8838 19.8838 17 16 17C12.1162 17 9 13.8838 9 10C9 6.11624 12.1162 3 16 3ZM30 20C23.925 20 19 24.925 19 31C19 37.075 23.925 42 30 42C36.075 42 41 37.075 41 31C41 24.925 36.075 20 30 20ZM4.5 24C2.02 24 0 26.02 0 28.5V29.6992C0 35.4792 7.03 40 16 40C17.49 40 18.9291 39.8709 20.2891 39.6309C19.5491 38.8009 18.9104 37.8809 18.4004 36.8809C17.6304 36.9609 16.83 37 16 37C7.97 37 3 33.2092 3 29.6992V28.5C3 27.67 3.67 27 4.5 27H17.6309C17.9709 25.93 18.4508 24.93 19.0508 24H4.5ZM30 24C30.48 24 30.9085 24.3058 31.0645 24.7598L32.1777 28H35.875C36.358 28 36.7874 28.3086 36.9414 28.7656C37.0954 29.2236 36.9397 29.7295 36.5547 30.0215L33.5605 32.293L34.5742 35.5391C34.7202 36.0051 34.5484 36.511 34.1504 36.793C33.9554 36.931 33.727 37 33.5 37C33.263 37 33.0252 36.9254 32.8262 36.7754L30 34.6602L27.1738 36.7754C26.7838 37.0684 26.2486 37.0769 25.8496 36.7949C25.4516 36.5129 25.2798 36.0051 25.4258 35.5391L26.4395 32.2949L23.4453 30.0215C23.0603 29.7295 22.9046 29.2256 23.0586 28.7676C23.2136 28.3096 23.642 28 24.125 28H27.8223L28.9355 24.7598C29.0915 24.3058 29.52 24 30 24Z" fill="white"/>
</svg>
