<svg width="48" height="48" viewBox="0 0 48 48" fill="none" xmlns="http://www.w3.org/2000/svg">
<path d="M24.5 4C22.5841 4 21 5.58531 21 7.5V12.5C21 14.4147 22.5841 16 24.5 16H27.8789L30.4395 18.5605C30.7208 18.8417 31.1022 18.9997 31.5 18.9997C31.8978 18.9997 32.2792 18.8417 32.5605 18.5605L35.1211 16H38.5C40.4159 16 42 14.4147 42 12.5V7.5C42 5.58531 40.4159 4 38.5 4H24.5ZM24.5 7H38.5C38.7941 7 39 7.20669 39 7.5V12.5C39 12.7933 38.7941 13 38.5 13H34.5C34.1022 13.0001 33.7207 13.1581 33.4395 13.4395L31.5 15.3789L29.5605 13.4395C29.2793 13.1581 28.8978 13.0001 28.5 13H24.5C24.2059 13 24 12.7933 24 12.5V7.5C24 7.20669 24.2059 7 24.5 7ZM10 19C8.45833 19 7.11215 19.6321 6.25391 20.5977C5.39566 21.5632 5 22.7917 5 24C5 25.2083 5.39566 26.4368 6.25391 27.4023C7.11215 28.3679 8.45833 29 10 29C11.5417 29 12.8879 28.3679 13.7461 27.4023C14.6043 26.4368 15 25.2083 15 24C15 22.7917 14.6043 21.5632 13.7461 20.5977C12.8879 19.6321 11.5417 19 10 19ZM24 19C22.125 19 20.5288 19.7571 19.5039 20.9102C18.479 22.0632 18 23.5417 18 25C18 26.4583 18.479 27.9368 19.5039 29.0898C20.5288 30.2429 22.125 31 24 31C25.875 31 27.4712 30.2429 28.4961 29.0898C29.521 27.9368 30 26.4583 30 25C30 23.5417 29.521 22.0632 28.4961 20.9102C27.4712 19.7571 25.875 19 24 19ZM38 19C36.4583 19 35.1121 19.6321 34.2539 20.5977C33.3957 21.5632 33 22.7917 33 24C33 25.2083 33.3957 26.4368 34.2539 27.4023C35.1121 28.3679 36.4583 29 38 29C39.5417 29 40.8879 28.3679 41.7461 27.4023C42.6043 26.4368 43 25.2083 43 24C43 22.7917 42.6043 21.5632 41.7461 20.5977C40.8879 19.6321 39.5417 19 38 19ZM10 22C10.7917 22 11.1955 22.2429 11.5039 22.5898C11.8123 22.9368 12 23.4583 12 24C12 24.5417 11.8123 25.0632 11.5039 25.4102C11.1955 25.7571 10.7917 26 10 26C9.20833 26 8.80452 25.7571 8.49609 25.4102C8.18767 25.0632 8 24.5417 8 24C8 23.4583 8.18767 22.9368 8.49609 22.5898C8.80452 22.2429 9.20833 22 10 22ZM24 22C25.125 22 25.7788 22.3679 26.2539 22.9023C26.729 23.4368 27 24.2083 27 25C27 25.7917 26.729 26.5632 26.2539 27.0977C25.7788 27.6321 25.125 28 24 28C22.875 28 22.2212 27.6321 21.7461 27.0977C21.271 26.5632 21 25.7917 21 25C21 24.2083 21.271 23.4368 21.7461 22.9023C22.2212 22.3679 22.875 22 24 22ZM38 22C38.7917 22 39.1955 22.2429 39.5039 22.5898C39.8123 22.9368 40 23.4583 40 24C40 24.5417 39.8123 25.0632 39.5039 25.4102C39.1955 25.7571 38.7917 26 38 26C37.2083 26 36.8045 25.7571 36.4961 25.4102C36.1877 25.0632 36 24.5417 36 24C36 23.4583 36.1877 22.9368 36.4961 22.5898C36.8045 22.2429 37.2083 22 38 22ZM5 31C3.35 31 2 32.35 2 34V35.5996C2 38.6296 5.51 41 10 41C11.26 41 12.45 40.8107 13.5 40.4707C13.17 39.7007 13 38.87 13 38V37.4707C12.17 37.7907 11.14 38 10 38C7.18 38 5 36.7096 5 35.5996V34H13.6094C14.2094 32.82 15.2405 31.8806 16.4805 31.3906C16.0405 31.1406 15.53 31 15 31H5ZM33 31C32.47 31 31.9595 31.1406 31.5195 31.3906C32.7595 31.8806 33.7906 32.82 34.3906 34H43V35.5996C43 36.7096 40.82 38 38 38C36.86 38 35.83 37.7907 35 37.4707V38C35 38.87 34.83 39.7007 34.5 40.4707C35.55 40.8107 36.74 41 38 41C42.49 41 46 38.6296 46 35.5996V34C46 32.35 44.65 31 43 31H33ZM18.5 33C16.585 33 15 34.585 15 36.5V38C15 39.9182 16.2799 41.4812 17.9258 42.4688C19.5716 43.4563 21.6858 44 24 44C26.3142 44 28.4284 43.4563 30.0742 42.4688C31.7201 41.4812 33 39.9182 33 38V36.5C33 34.585 31.415 33 29.5 33H18.5ZM18.5 36H29.5C29.795 36 30 36.205 30 36.5V38C30 38.5668 29.5999 39.2553 28.5312 39.8965C27.4626 40.5377 25.8278 41 24 41C22.1722 41 20.5374 40.5377 19.4688 39.8965C18.4001 39.2553 18 38.5668 18 38V36.5C18 36.205 18.205 36 18.5 36Z" fill="white"/>
</svg>
