<svg width="250" height="250" viewBox="0 0 250 250" fill="none" xmlns="http://www.w3.org/2000/svg">
<path d="M195 32.5C194.337 32.5 193.701 32.7634 193.232 33.2322C192.763 33.7011 192.5 34.337 192.5 35C192.5 35.663 192.763 36.2989 193.232 36.7678C193.701 37.2366 194.337 37.5 195 37.5C195.663 37.5 196.299 37.2366 196.768 36.7678C197.237 36.2989 197.5 35.663 197.5 35C197.5 34.337 197.237 33.7011 196.768 33.2322C196.299 32.7634 195.663 32.5 195 32.5Z" fill="#65B55E"/>
<path d="M125 30C99.8044 30 75.6408 40.0089 57.8249 57.8249C40.0089 75.6408 30 99.8044 30 125C30 150.196 40.0089 174.359 57.8249 192.175C75.6408 209.991 99.8044 220 125 220C150.196 220 174.359 209.991 192.175 192.175C209.991 174.359 220 150.196 220 125C220 99.8044 209.991 75.6408 192.175 57.8249C174.359 40.0089 150.196 30 125 30Z" fill="#DEF2FC"/>
<path d="M210 30C207.348 30 204.804 31.0536 202.929 32.9289C201.054 34.8043 200 37.3478 200 40C200 42.6522 201.054 45.1957 202.929 47.0711C204.804 48.9464 207.348 50 210 50C212.652 50 215.196 48.9464 217.071 47.0711C218.946 45.1957 220 42.6522 220 40C220 37.3478 218.946 34.8043 217.071 32.9289C215.196 31.0536 212.652 30 210 30Z" fill="#65B55E"/>
<path d="M35 60C33.6739 60 32.4021 60.5268 31.4645 61.4645C30.5268 62.4021 30 63.6739 30 65C30 66.3261 30.5268 67.5979 31.4645 68.5355C32.4021 69.4732 33.6739 70 35 70C36.3261 70 37.5979 69.4732 38.5355 68.5355C39.4732 67.5979 40 66.3261 40 65C40 63.6739 39.4732 62.4021 38.5355 61.4645C37.5979 60.5268 36.3261 60 35 60Z" fill="#0092D6"/>
<path d="M195 187.5C193.674 187.5 192.402 188.027 191.464 188.964C190.527 189.902 190 191.174 190 192.5C190 193.826 190.527 195.098 191.464 196.036C192.402 196.973 193.674 197.5 195 197.5C196.326 197.5 197.598 196.973 198.536 196.036C199.473 195.098 200 193.826 200 192.5C200 191.174 199.473 189.902 198.536 188.964C197.598 188.027 196.326 187.5 195 187.5ZM42.5 185C39.8478 185 37.3043 186.054 35.4289 187.929C33.5536 189.804 32.5 192.348 32.5 195C32.5 197.652 33.5536 200.196 35.4289 202.071C37.3043 203.946 39.8478 205 42.5 205C45.1522 205 47.6957 203.946 49.5711 202.071C51.4464 200.196 52.5 197.652 52.5 195C52.5 192.348 51.4464 189.804 49.5711 187.929C47.6957 186.054 45.1522 185 42.5 185Z" fill="#59D6FB"/>
<path d="M60 202.5C58.6739 202.5 57.4021 203.027 56.4645 203.964C55.5268 204.902 55 206.174 55 207.5C55 208.826 55.5268 210.098 56.4645 211.036C57.4021 211.973 58.6739 212.5 60 212.5C61.3261 212.5 62.5979 211.973 63.5355 211.036C64.4732 210.098 65 208.826 65 207.5C65 206.174 64.4732 204.902 63.5355 203.964C62.5979 203.027 61.3261 202.5 60 202.5Z" fill="#0092D6"/>
<path d="M166.25 190C165.429 190 164.617 190.162 163.858 190.476C163.1 190.79 162.411 191.25 161.831 191.831C161.25 192.411 160.79 193.1 160.476 193.858C160.162 194.617 160 195.429 160 196.25C160 197.071 160.162 197.883 160.476 198.642C160.79 199.4 161.25 200.089 161.831 200.669C162.411 201.25 163.1 201.71 163.858 202.024C164.617 202.338 165.429 202.5 166.25 202.5C167.071 202.5 167.883 202.338 168.642 202.024C169.4 201.71 170.089 201.25 170.669 200.669C171.25 200.089 171.71 199.4 172.024 198.642C172.338 197.883 172.5 197.071 172.5 196.25C172.5 195.429 172.338 194.617 172.024 193.858C171.71 193.1 171.25 192.411 170.669 191.831C170.089 191.25 169.4 190.79 168.642 190.476C167.883 190.162 167.071 190 166.25 190ZM40 117.5C39.337 117.5 38.7011 117.763 38.2322 118.232C37.7634 118.701 37.5 119.337 37.5 120C37.5 120.663 37.7634 121.299 38.2322 121.768C38.7011 122.237 39.337 122.5 40 122.5C40.663 122.5 41.2989 122.237 41.7678 121.768C42.2366 121.299 42.5 120.663 42.5 120C42.5 119.337 42.2366 118.701 41.7678 118.232C41.2989 117.763 40.663 117.5 40 117.5Z" fill="#65B55E"/>
<path d="M215 75C214.337 75 213.701 75.2634 213.232 75.7322C212.763 76.2011 212.5 76.837 212.5 77.5C212.5 78.163 212.763 78.7989 213.232 79.2678C213.701 79.7366 214.337 80 215 80C215.663 80 216.299 79.7366 216.768 79.2678C217.237 78.7989 217.5 78.163 217.5 77.5C217.5 76.837 217.237 76.2011 216.768 75.7322C216.299 75.2634 215.663 75 215 75Z" fill="#65B55E"/>
<path d="M200 160C198.674 160 197.402 160.527 196.464 161.464C195.527 162.402 195 163.674 195 165C195 166.326 195.527 167.598 196.464 168.536C197.402 169.473 198.674 170 200 170C201.326 170 202.598 169.473 203.536 168.536C204.473 167.598 205 166.326 205 165C205 163.674 204.473 162.402 203.536 161.464C202.598 160.527 201.326 160 200 160Z" fill="#65B55E"/>
<path d="M125 64.25C108.888 64.25 93.4361 70.6504 82.0433 82.0433C70.6504 93.4361 64.25 108.888 64.25 125C64.25 141.112 70.6504 156.564 82.0433 167.957C93.4361 179.35 108.888 185.75 125 185.75C141.112 185.75 156.564 179.35 167.957 167.957C179.35 156.564 185.75 141.112 185.75 125C185.75 108.888 179.35 93.4361 167.957 82.0433C156.564 70.6504 141.112 64.25 125 64.25Z" fill="#0092D6"/>
<path d="M125 187.5C90.5 187.5 62.5 159.5 62.5 125C62.5 90.5 90.5 62.5 125 62.5C159.5 62.5 187.5 90.5 187.5 125C187.5 159.5 159.5 187.5 125 187.5ZM125 66.25C92.5 66.25 66.25 92.5 66.25 125C66.25 157.5 92.5 183.75 125 183.75C157.5 183.75 183.75 157.5 183.75 125C183.75 92.5 157.5 66.25 125 66.25Z" fill="#18417E"/>
<path d="M124.75 74.25C111.224 74.25 98.2519 79.6232 88.6876 89.1876C79.1232 98.7519 73.75 111.724 73.75 125.25C73.75 138.776 79.1232 151.748 88.6876 161.312C98.2519 170.877 111.224 176.25 124.75 176.25C138.276 176.25 151.248 170.877 160.812 161.312C170.377 151.748 175.75 138.776 175.75 125.25C175.75 111.724 170.377 98.7519 160.812 89.1876C151.248 79.6232 138.276 74.25 124.75 74.25Z" fill="#0092D6"/>
<path d="M173.499 112C172.999 112 172.499 111.75 172.249 111C171.999 110.25 171.749 109.5 171.499 108.75C170.499 106 169.249 103.25 167.749 100.75C167.499 100.25 167.499 99.4999 168.249 98.9999C168.749 98.7499 169.499 98.7499 169.999 99.4999C171.499 102.25 172.749 105 173.749 107.75C173.999 108.5 174.249 109.25 174.499 110C174.749 110.75 174.249 111.25 173.749 111.5C173.749 111.75 173.749 112 173.499 112Z" fill="#18417E"/>
<path d="M125 177.25C96.25 177.25 72.75 154 72.75 125.25C72.75 96.5 96.25 73.25 125 73.25C140 73.25 154.25 79.75 164 90.75C164.75 91.5 165.5 92.5 166.25 93.25C166.75 93.75 166.5 94.5 166 95C165.5 95.5 164.75 95.25 164.25 94.75C163.5 94 163 93 162.25 92.25C152.75 81.75 139.25 75.5 125 75.5C97.5 75.5 75.25 97.75 75.25 125C75.25 152.5 97.5 174.75 125 174.75C152.5 174.75 174.75 152.5 174.75 125.25C174.75 122.75 174.5 120.25 174.25 117.75C174.25 117 174.5 116.5 175.25 116.25C176 116.25 176.5 116.5 176.75 117.25C177.25 119.75 177.25 122.5 177.25 125C177.25 153.75 153.75 177.25 125 177.25Z" fill="#18417E"/>
<path d="M121.002 146C119.752 146 118.752 145.5 117.752 144.75L96.7516 123.75C94.7516 122 94.7516 119 96.5016 117C97.5016 116 98.7516 115.5 100.002 115.5C101.252 115.5 102.252 116 103.252 116.75L121.002 134.75L151.002 104.75C152.002 104 153.002 103.5 154.252 103.5C155.502 103.5 156.752 104 157.752 105C158.502 106 159.002 107.25 159.002 108.5C159.002 109.75 158.502 111 157.502 111.75L124.502 144.5C123.502 145.5 122.252 146 121.002 146Z" fill="#DEF2FC"/>
<path d="M154.252 104.5C155.252 104.5 156.002 104.75 156.752 105.5C158.002 107 158.002 109 156.502 110.5L123.502 143.75C122.752 144.5 122.002 144.75 121.002 144.75C120.252 144.75 119.252 144.5 118.752 143.75L97.7516 122.75C96.2516 121.5 96.2516 119.25 97.5016 117.75C98.2516 117 99.2516 116.5 100.002 116.5C100.752 116.5 101.752 116.75 102.252 117.5L120.752 136.25L151.752 105.25C152.502 104.75 153.502 104.5 154.252 104.5ZM154.252 102C152.752 102 151.252 102.5 150.252 103.75L121.002 132.75L104.252 115.75C103.252 114.75 101.752 114.25 100.252 114.25C98.5016 114.25 97.0016 115 95.7516 116.25C94.7516 117.5 94.0016 119 94.2516 120.5C94.2516 122 95.0016 123.5 96.2516 124.75L117.252 145.75C118.502 146.75 119.752 147.5 121.252 147.5C122.752 147.5 124.252 147 125.252 145.75L158.502 112.5C159.502 111.5 160.252 110 160.252 108.25C160.252 106.5 159.752 105 158.502 104C157.502 102.5 156.002 102 154.252 102Z" fill="#18417E"/>
</svg>
