<svg width="18" height="18" viewBox="0 0 18 18" fill="none" xmlns="http://www.w3.org/2000/svg">
<path fill-rule="evenodd" clip-rule="evenodd" d="M1.2915 4.0013C1.2915 2.50553 2.50407 1.29297 3.99984 1.29297H10.6665C11.0117 1.29297 11.2915 1.01315 11.2915 0.667969C11.2915 0.322791 11.0117 0.0429688 10.6665 0.0429688H3.99984C1.81371 0.0429688 0.0415039 1.81518 0.0415039 4.0013V14.0013C0.0415039 16.1874 1.81371 17.9596 3.99984 17.9596H13.9998C16.186 17.9596 17.9582 16.1874 17.9582 14.0013V7.33464C17.9582 6.98946 17.6784 6.70964 17.3332 6.70964C16.988 6.70964 16.7082 6.98946 16.7082 7.33464V10.2859C16.6265 10.2086 16.5378 10.1377 16.4426 10.0742L15.0616 9.15362C13.4752 8.09596 11.3627 8.30513 10.0144 9.65339L7.98526 11.6825C6.637 13.0308 4.52452 13.24 2.93803 12.1823L1.2915 11.0846V4.0013ZM15.4582 0.667969C15.4582 0.322791 15.1783 0.0429688 14.8332 0.0429688C14.488 0.0429688 14.2082 0.322791 14.2082 0.667969V2.54297H12.3332C11.988 2.54297 11.7082 2.82279 11.7082 3.16797C11.7082 3.51315 11.988 3.79297 12.3332 3.79297H14.2082V5.66797C14.2082 6.01315 14.488 6.29297 14.8332 6.29297C15.1783 6.29297 15.4582 6.01315 15.4582 5.66797V3.79297H17.3332C17.6784 3.79297 17.9582 3.51315 17.9582 3.16797C17.9582 2.82279 17.6784 2.54297 17.3332 2.54297H15.4582V0.667969ZM6.08317 8.16797C7.23376 8.16797 8.1665 7.23523 8.1665 6.08464C8.1665 4.93404 7.23376 4.0013 6.08317 4.0013C4.93258 4.0013 3.99984 4.93404 3.99984 6.08464C3.99984 7.23523 4.93258 8.16797 6.08317 8.16797Z" fill="#ED1C24"/>
</svg>
