<svg width="30" height="30" viewBox="0 0 30 30" fill="none" xmlns="http://www.w3.org/2000/svg">
<g clip-path="url(#clip0_18106_5936)">
<path fill-rule="evenodd" clip-rule="evenodd" d="M15 0C12.0333 0 9.13318 0.879716 6.66645 2.52794C4.19971 4.17616 2.27713 6.51883 1.14181 9.25973C0.00649737 12.0006 -0.29055 15.0166 0.288228 17.9264C0.867007 20.8361 2.29561 23.5088 4.3934 25.6066C6.49119 27.7044 9.16393 29.133 12.0736 29.7118C14.9834 30.2906 17.9994 29.9935 20.7403 28.8582C23.4811 27.7229 25.8238 25.8003 27.472 23.3335C29.1203 20.8668 30 17.9667 30 15C29.9955 11.0231 28.4137 7.21043 25.6016 4.39836C22.7896 1.58629 18.9769 0.00451148 15 0ZM2.04546 15C2.0426 12.934 2.53392 10.8973 3.47841 9.05981C4.42291 7.22233 5.7932 5.63734 7.4749 4.43723C9.1566 3.23711 11.101 2.45662 13.1457 2.16089C15.1904 1.86517 17.2762 2.0628 19.2291 2.73726C21.1819 3.41172 22.9451 4.54349 24.3715 6.03807C25.7979 7.53265 26.8461 9.34666 27.4288 11.3288C28.0114 13.311 28.1115 15.4038 27.7207 17.4325C27.3299 19.4612 26.4595 21.367 25.1823 22.9909C23.6203 20.6627 21.3529 18.8967 18.7132 17.9522C19.8475 16.7354 20.4709 15.1293 20.4545 13.4659C20.4545 10.0841 18.0075 7.32955 15 7.32955C11.9925 7.32955 9.54546 10.0841 9.54546 13.4659C9.5362 14.3225 9.69752 15.1724 10.02 15.966C10.3425 16.7597 10.8197 17.4813 11.4239 18.0887C8.76455 19.0453 6.52214 20.8995 5.08296 23.3318C3.11904 20.9999 2.0431 18.0487 2.04546 15ZM15.3409 17.3864C14.9666 17.3864 14.595 17.4136 14.2255 17.4477C12.7166 17.0318 11.5909 15.4091 11.5909 13.4659C11.5909 11.2091 13.1175 9.375 15 9.375C16.8825 9.375 18.4091 11.2091 18.4091 13.4659C18.4512 14.3025 18.2326 15.1315 17.7836 15.8386C17.3345 16.5457 16.6771 17.096 15.902 17.4137C15.7152 17.4 15.5298 17.3864 15.3409 17.3864ZM6.60273 24.8522C7.33492 23.4238 8.40104 22.1933 9.71055 21.265C11.0201 20.3368 12.5343 19.7383 14.1246 19.5205C14.4136 19.5719 14.7064 19.5993 15 19.6023C15.38 19.6043 15.7588 19.5609 16.1284 19.4728C19.4339 19.7864 22.2586 22.0568 23.7511 24.5318C21.4281 26.6762 18.3988 27.8933 15.2379 27.9524C12.0769 28.0114 9.00429 26.9083 6.60273 24.8522Z" fill="#ED1C24"/>
</g>
<defs>
<clipPath id="clip0_18106_5936">
<rect width="30" height="30" fill="white"/>
</clipPath>
</defs>
</svg>
