<svg width="60" height="60" viewBox="0 0 60 60" fill="none" xmlns="http://www.w3.org/2000/svg">
<path d="M59.3333 30C59.3333 46.1993 46.1993 59.3333 30 59.3333C13.8007 59.3333 0.666667 46.1993 0.666667 30C0.666667 13.8007 13.8007 0.666667 30 0.666667C46.1993 0.666667 59.3333 13.8007 59.3333 30Z" fill="#231F20" stroke="white" stroke-width="1.33333"/>
<path d="M30 34.5C36.6274 34.5 42 29.1274 42 22.5C42 15.8726 36.6274 10.5 30 10.5C23.3726 10.5 18 15.8726 18 22.5C18 29.1274 23.3726 34.5 30 34.5Z" fill="white"/>
<path d="M29.9986 60C37.5211 60 44.3791 57.2115 49.6456 52.6365C46.6591 44.676 39.0016 39 29.9986 39C20.9956 39 13.3381 44.676 10.3516 52.6365C15.6181 57.2115 22.4761 60 29.9986 60Z" fill="white"/>
</svg>
