<svg width="4" height="18" viewBox="0 0 4 18" fill="none" xmlns="http://www.w3.org/2000/svg">
<path fill-rule="evenodd" clip-rule="evenodd" d="M2 14C0.895431 14 0 14.8954 0 16C0 17.1046 0.895431 18 2 18C3.10457 18 4 17.1046 4 16C4 14.8954 3.10457 14 2 14Z" fill="#AEAEB2"/>
<path fill-rule="evenodd" clip-rule="evenodd" d="M2 7C0.895431 7 0 7.89543 0 9C0 10.1046 0.895431 11 2 11C3.10457 11 4 10.1046 4 9C4 7.89543 3.10457 7 2 7Z" fill="#AEAEB2"/>
<path fill-rule="evenodd" clip-rule="evenodd" d="M2 0C0.895431 0 0 0.895432 0 2C0 3.10457 0.895431 4 2 4C3.10457 4 4 3.10457 4 2C4 0.895432 3.10457 0 2 0Z" fill="#AEAEB2"/>
</svg>
