<svg width="20" height="20" viewBox="0 0 20 20" fill="none" xmlns="http://www.w3.org/2000/svg">
<path fill-rule="evenodd" clip-rule="evenodd" d="M20 5.25H13.4573L17.0982 0.152647C18.7734 0.629917 20 2.17171 20 4V5.25ZM0 6.75H20V16C20 18.2091 18.2091 20 16 20H4C1.79086 20 0 18.2091 0 16V6.75ZM3.61397 5.25H0V4C0 1.79086 1.79086 0 4 0H7.36397L3.61397 5.25ZM5.45733 5.25L9.20732 0H15.3639L11.6139 5.25H5.45733ZM8 11.8028V14.1972C8 15.3953 9.33522 16.1099 10.3321 15.4453L12.1279 14.2481C13.0185 13.6543 13.0185 12.3457 12.1279 11.7519L10.332 10.5547C9.33522 9.89014 8 10.6047 8 11.8028Z" fill="white"/>
</svg>
