<svg width="68" height="68" viewBox="0 0 68 68" fill="none" xmlns="http://www.w3.org/2000/svg">
<path d="M15.28 0.879883C11.32 0.879883 8.07995 4.11988 8.07995 8.07988C8.07995 12.0399 11.32 15.2799 15.28 15.2799C19.24 15.2799 22.4799 12.0399 22.4799 8.07988C22.4799 4.11988 19.24 0.879883 15.28 0.879883ZM39.7599 0.879883V3.75988H25.36V6.63988H64.2399V44.0799H26.7999V46.9599H39.04L31.1199 62.7999H34L41.2 48.3999L48.3999 62.7999H51.2799L43.36 46.9599H65.6799C66.4731 46.9599 67.1199 46.313 67.1199 45.5199V5.19988C67.1199 4.40676 66.4731 3.75988 65.6799 3.75988H42.6399V0.879883H39.7599ZM15.28 3.75988C17.6818 3.75988 19.6 5.67801 19.6 8.07988C19.6 10.4818 17.6818 12.3999 15.28 12.3999C12.8781 12.3999 10.96 10.4818 10.96 8.07988C10.96 5.67801 12.8781 3.75988 15.28 3.75988ZM8.79995 16.7199C4.44058 16.7199 0.879951 20.2805 0.879951 24.6399V42.3699C0.874326 42.4318 0.874326 42.488 0.879951 42.5499V42.6399C0.874326 42.7749 0.891202 42.9155 0.924951 43.0449C1.1387 45.2218 2.97245 46.9599 5.19995 46.9599C5.7062 46.9599 6.18433 46.853 6.63995 46.6899V62.0799C6.63995 64.8474 8.91245 67.1199 11.68 67.1199C13.0862 67.1199 14.3631 66.5293 15.28 65.5899C16.1968 66.5293 17.4737 67.1199 18.8799 67.1199C21.6474 67.1199 23.92 64.8474 23.92 62.0799V25.3599H39.7599C42.1281 25.3599 44.0799 23.408 44.0799 21.0399C44.0799 18.6999 42.1787 16.7705 39.8499 16.7199C39.8218 16.7199 39.7881 16.7199 39.7599 16.7199H19.6C19.0431 16.7143 18.5368 17.0293 18.295 17.5299L15.28 23.5599L12.265 17.5299C12.0231 17.0293 11.5168 16.7143 10.96 16.7199H8.79995ZM8.79995 19.5999H10.06L13.975 27.4299C14.2112 27.9361 14.7231 28.2624 15.28 28.2624C15.8368 28.2624 16.3487 27.9361 16.585 27.4299L20.5 19.5999H39.7599C39.805 19.5999 39.8499 19.5999 39.895 19.5999C40.6431 19.6674 41.2 20.2749 41.2 21.0399C41.2 21.8555 40.5756 22.4799 39.7599 22.4799H22.4799C21.6868 22.4799 21.0399 23.1268 21.0399 23.9199V62.0799C21.0399 63.2893 20.0893 64.2399 18.8799 64.2399C17.7437 64.2399 16.8268 63.4074 16.72 62.3049V61.9449C16.72 61.8999 16.72 61.8549 16.72 61.8099V46.9599C16.7368 46.5436 16.5681 46.1443 16.27 45.863C15.9662 45.5761 15.5556 45.4355 15.145 45.4749C15.0831 45.4861 15.0212 45.503 14.965 45.5199C14.2956 45.6718 13.8231 46.2736 13.84 46.9599V61.8099C13.8343 61.8718 13.8343 61.928 13.84 61.9899V62.3049C13.7331 63.4074 12.8162 64.2399 11.68 64.2399C10.4706 64.2399 9.51995 63.2893 9.51995 62.0799V28.2399C9.5312 27.7955 9.33433 27.3736 8.9912 27.0924C8.6537 26.8111 8.19808 26.7043 7.76495 26.7999C7.09558 26.9518 6.62308 27.5536 6.63995 28.2399V42.4149C6.63995 42.4599 6.63995 42.5049 6.63995 42.5499V42.6399C6.63995 43.4555 6.01558 44.0799 5.19995 44.0799C4.41808 44.0799 3.80495 43.5005 3.75995 42.7299C3.75995 42.7018 3.75995 42.668 3.75995 42.6399C3.7712 42.5499 3.7712 42.4599 3.75995 42.3699V24.6399C3.75995 21.8386 5.9987 19.5999 8.79995 19.5999Z" fill="#0092D6"/>
</svg>
