<svg width="72" height="72" viewBox="0 0 72 72" fill="none" xmlns="http://www.w3.org/2000/svg">
<path d="M14.13 0C13.4438 0.129375 12.9488 0.736875 12.96 1.44V4.32C12.9544 4.8375 13.2244 5.32125 13.6744 5.58562C14.1244 5.84438 14.6756 5.84438 15.1256 5.58562C15.5756 5.32125 15.8456 4.8375 15.84 4.32V2.88H66.24V36H60.345L61.92 33.12L60.345 30.24H47.52V36H31.68C31.635 36 31.59 36 31.545 36C30.7519 36.0394 30.1331 36.7144 30.1725 37.5075C30.2119 38.3006 30.8869 38.9194 31.68 38.88H69.12V40.32H31.68C31.1625 40.3144 30.6788 40.5844 30.4144 41.0344C30.1556 41.4844 30.1556 42.0356 30.4144 42.4856C30.6788 42.9356 31.1625 43.2056 31.68 43.2H70.56C71.3531 43.2 72 42.5531 72 41.76V37.44C72 36.6469 71.3531 36 70.56 36H69.12V1.44C69.12 0.646875 68.4731 0 67.68 0H14.4C14.355 0 14.31 0 14.265 0C14.22 0 14.175 0 14.13 0ZM17.28 7.2C12.5269 7.2 8.64 11.0869 8.64 15.84C8.64 20.5931 12.5269 24.48 17.28 24.48C22.0331 24.48 25.92 20.5931 25.92 15.84C25.92 11.0869 22.0331 7.2 17.28 7.2ZM17.28 24.48H13.95C12.8644 24.48 11.2838 24.615 9.81 25.605C8.33625 26.595 7.2 28.5019 7.2 31.23V46.71C4.66875 47.8294 2.88 50.3494 2.88 53.28C2.88 55.4625 3.89812 57.4031 5.445 58.725C2.22188 60.4125 0 63.8156 0 67.68V70.56C0 71.3531 0.646875 72 1.44 72H18.72C18.765 72 18.81 72 18.855 72H53.28C53.325 72 53.37 72 53.415 72H70.56C71.3531 72 72 71.3531 72 70.56V67.68C72 63.8156 69.7781 60.4125 66.555 58.725C68.1019 57.4031 69.12 55.4625 69.12 53.28C69.12 49.32 65.88 46.08 61.92 46.08C57.96 46.08 54.72 49.32 54.72 53.28C54.72 55.4625 55.7381 57.4031 57.285 58.725C55.6425 59.5856 54.2363 60.9244 53.28 62.505C52.3181 60.9019 50.9344 59.5969 49.275 58.725C50.8219 57.4031 51.84 55.4625 51.84 53.28C51.84 49.32 48.6 46.08 44.64 46.08C40.68 46.08 37.44 49.32 37.44 53.28C37.44 55.4625 38.4581 57.4031 40.005 58.725C38.3625 59.5856 36.9563 60.9244 36 62.505C35.0381 60.9131 33.6544 59.5913 31.995 58.725C33.5419 57.4031 34.56 55.4625 34.56 53.28C34.56 49.815 32.0738 46.89 28.8 46.215V33.12L34.965 30.915L35.01 30.87C35.0213 30.8644 35.0438 30.8756 35.055 30.87C36.2813 30.4988 37.2881 29.8406 37.98 28.935H38.025L45.225 19.62C45.225 19.6031 45.225 19.5919 45.225 19.575C46.5525 17.8088 46.35 15.1988 44.505 13.815C43.6219 13.1513 42.5363 12.8925 41.49 13.005C40.4438 13.1175 39.4369 13.6125 38.745 14.535L32.58 22.5L23.04 24.48H17.28ZM17.28 10.08C20.4806 10.08 23.04 12.6394 23.04 15.84C23.04 19.0406 20.4806 21.6 17.28 21.6C14.0794 21.6 11.52 19.0406 11.52 15.84C11.52 12.6394 14.0794 10.08 17.28 10.08ZM41.805 15.885C42.12 15.8456 42.48 15.9075 42.75 16.11C43.2 16.4475 43.2956 17.28 42.93 17.82C42.9188 17.8313 42.9413 17.8538 42.93 17.865L35.73 27.18C35.73 27.1969 35.73 27.2081 35.73 27.225C35.5725 27.4331 34.8863 27.9169 34.155 28.125C34.1269 28.1363 34.0931 28.1531 34.065 28.17L26.865 30.735C26.28 30.9488 25.9031 31.5113 25.92 32.13V46.215C22.6463 46.89 20.16 49.815 20.16 53.28C20.16 55.4625 21.1781 57.4031 22.725 58.725C21.0825 59.5856 19.6763 60.9244 18.72 62.505C17.7581 60.9019 16.3744 59.5969 14.715 58.725C16.2619 57.4031 17.28 55.4625 17.28 53.28C17.28 49.32 14.04 46.08 10.08 46.08V31.23C10.08 29.205 10.665 28.4738 11.385 27.99C12.105 27.5063 13.1625 27.36 13.95 27.36H23.04C23.1469 27.3544 23.2538 27.3431 23.355 27.315L33.705 25.155C34.0369 25.0931 34.3406 24.9188 34.56 24.66L41.04 16.29C41.2144 16.0594 41.49 15.9244 41.805 15.885ZM10.08 48.96C12.4819 48.96 14.4 50.8781 14.4 53.28C14.4 55.6819 12.4819 57.6 10.08 57.6C7.67812 57.6 5.76 55.6819 5.76 53.28C5.76 51.3338 7.02 49.6856 8.775 49.14C8.85938 49.1119 8.96062 49.1175 9.045 49.095C9.10688 49.0838 9.16875 49.0669 9.225 49.05C9.50625 48.9938 9.78188 48.96 10.08 48.96ZM44.64 48.96C47.0419 48.96 48.96 50.8781 48.96 53.28C48.96 55.6819 47.0419 57.6 44.64 57.6C42.2381 57.6 40.32 55.6819 40.32 53.28C40.32 50.8781 42.2381 48.96 44.64 48.96ZM61.92 48.96C64.3219 48.96 66.24 50.8781 66.24 53.28C66.24 55.6819 64.3219 57.6 61.92 57.6C59.5181 57.6 57.6 55.6819 57.6 53.28C57.6 50.8781 59.5181 48.96 61.92 48.96ZM27 49.005C27.0169 49.005 27.0281 49.005 27.045 49.005C27.2363 49.0444 27.4388 49.0444 27.63 49.005C27.6469 49.005 27.6581 49.005 27.675 49.005C29.9194 49.1738 31.68 50.9906 31.68 53.28C31.68 55.6819 29.7619 57.6 27.36 57.6C24.9581 57.6 23.04 55.6819 23.04 53.28C23.04 51.0019 24.7781 49.1906 27 49.005ZM10.08 60.48C14.0456 60.48 17.28 63.7144 17.28 67.68V69.12H2.88V67.68C2.88 63.7144 6.11438 60.48 10.08 60.48ZM27.36 60.48C31.3256 60.48 34.56 63.7144 34.56 67.68V69.12H20.16V67.68C20.16 63.7144 23.3944 60.48 27.36 60.48ZM44.64 60.48C48.6056 60.48 51.84 63.7144 51.84 67.68V69.12H37.44V67.68C37.44 63.7144 40.6744 60.48 44.64 60.48ZM61.92 60.48C65.8856 60.48 69.12 63.7144 69.12 67.68V69.12H54.72V67.68C54.72 63.7144 57.9544 60.48 61.92 60.48Z" fill="#0092D6"/>
</svg>
