<svg width="68" height="68" viewBox="0 0 68 68" fill="none" xmlns="http://www.w3.org/2000/svg">
<path d="M34 0.834961C33.28 0.834961 32.5543 1.02059 31.9131 1.39746C31.9018 1.39746 31.8962 1.40309 31.885 1.40871C31.885 1.40871 24.3081 6.02121 16.72 10.7406C12.9287 13.1031 9.13747 15.4881 6.26872 17.35C4.83997 18.2837 3.64184 19.0825 2.78122 19.69C2.34809 19.9993 1.99934 20.2525 1.72372 20.4775C1.58872 20.59 1.47059 20.6912 1.34122 20.8262C1.27372 20.8937 1.20622 20.9668 1.11622 21.0962C1.03184 21.2256 0.863093 21.3887 0.834968 21.9062C0.784343 22.8062 1.04872 22.8512 1.18372 23.065C1.31309 23.2787 1.46497 23.47 1.63934 23.695C1.99372 24.1337 2.45497 24.6568 3.00622 25.2531C3.20309 25.4612 3.49559 25.7537 3.71497 25.9843C3.71497 30.4112 3.72622 36.7562 3.73184 38.725C2.85997 39.2425 2.31997 40.1818 2.31997 41.2C2.31997 41.5318 2.38184 41.8637 2.49434 42.1787C1.52122 42.9662 0.879968 44.1418 0.879968 45.475C0.879968 47.1737 1.76309 48.6193 2.52809 49.8906C3.29309 51.1675 4.05809 52.1575 4.05809 52.1575C4.32809 52.5118 4.74997 52.72 5.19434 52.72C5.63872 52.72 6.06059 52.5175 6.33622 52.1687C6.33622 52.1687 7.10122 51.19 7.87184 49.9243C8.64247 48.6531 9.51997 47.1906 9.51997 45.475C9.51997 44.1418 8.87872 42.9662 7.90559 42.1787C8.01809 41.8637 8.07997 41.5318 8.07997 41.2C8.07997 40.1987 7.55684 39.2706 6.70747 38.7475C6.70184 37.2737 6.69622 33.2575 6.69622 29.0556C6.80872 29.1681 6.89309 29.2693 7.01122 29.3818C9.18247 31.5587 10.4031 32.7231 11.3537 33.6456C10.7012 34.1181 10.1106 34.6918 9.57622 35.3387C9.58184 36.1093 9.58747 36.8518 9.58747 37.51C10.0206 38.0218 10.3637 38.6125 10.6 39.2481C11.4775 37.5043 12.6025 36.1375 14.0256 35.53C14.2787 35.5075 14.5262 35.4231 14.7343 35.2768C15.7018 34.9393 22.7275 32.6275 33.8931 32.6106C31.3843 35.4006 26.2881 38.7306 18.7 38.8037C18.3231 38.7025 17.53 38.5337 16.4612 38.905C15.775 39.1468 15.0381 39.6756 14.56 40.4968C14.0818 41.3125 13.8456 42.3475 13.8456 43.6468C13.8456 46.3525 15.55 48.6362 17.935 49.3843C19.3918 53.5018 21.1918 57.6362 23.605 60.91C18.295 60.0662 12.4618 59.92 8.07997 59.92V54.43C7.28684 55.1668 6.30809 55.6 5.19997 55.6V61.36C5.19997 61.7706 5.32372 62.1643 5.62184 62.44C5.91997 62.7212 6.23497 62.8168 6.63997 62.8C6.76372 62.7887 19.2737 62.1137 27.2275 64.6843C29.1906 66.1806 31.4462 67.12 34.0112 67.12C36.5818 67.12 38.8487 66.175 40.8175 64.6675C48.625 62.1643 61.27 62.845 61.27 62.845C61.6806 62.8675 62.08 62.7268 62.3781 62.4456C62.6762 62.1643 62.8506 61.7706 62.845 61.36V51.28C62.845 48.4618 62.44 44.5187 61.27 40.8906C60.3418 38.0331 58.9187 35.2768 56.6406 33.6456C57.5912 32.7287 58.8175 31.5587 60.9943 29.3818C62.44 27.9306 63.8912 26.4456 64.9937 25.2531C65.545 24.6568 66.0062 24.1337 66.3606 23.695C66.535 23.47 66.6868 23.2787 66.8218 23.065C66.9512 22.8512 67.2156 22.8062 67.165 21.9062C67.1368 21.3831 66.9681 21.22 66.8781 21.0906C66.7937 20.9668 66.7262 20.8937 66.6587 20.8262C66.5293 20.6912 66.4112 20.59 66.2706 20.4775C66.0006 20.2525 65.6518 19.9993 65.2187 19.69C64.3581 19.0825 63.16 18.2837 61.7256 17.35C58.8625 15.4881 55.0712 13.1031 51.28 10.7406C43.6918 6.02121 36.115 1.40871 36.115 1.40871C36.1037 1.40309 36.0981 1.39746 36.0868 1.39746C35.4456 1.02059 34.72 0.834961 34 0.834961ZM34 3.80496C34.2025 3.80496 34.405 3.86121 34.5906 3.96809C34.6187 3.98496 42.1506 8.56371 49.705 13.2662C53.4906 15.6231 57.2762 18.0081 60.1056 19.8475C61.5231 20.77 62.6987 21.5575 63.5031 22.12C63.5818 22.1762 63.6043 22.1987 63.6718 22.2493C63.4187 22.5475 63.1768 22.8343 62.8056 23.2337C61.7537 24.3756 60.325 25.8381 58.885 27.2781C57.2706 28.8981 56.7531 29.3818 55.645 30.4618V25.36C55.645 24.8256 55.3581 24.3306 54.8968 24.0662C54.8968 24.0662 46.8812 19.555 34 19.555C21.1187 19.555 13.1031 24.0662 13.1031 24.0662C12.6418 24.3306 12.355 24.8256 12.355 25.36V30.4618C11.2468 29.3818 10.7293 28.8981 9.11497 27.2781C8.13622 26.305 7.30372 25.4275 6.44872 24.5331C6.34747 24.37 6.20684 24.2293 6.04934 24.1225C5.78497 23.8412 5.41934 23.4868 5.18872 23.2393C4.82309 22.8343 4.58122 22.5418 4.32247 22.2493C4.39559 22.1931 4.41809 22.1762 4.49684 22.12C5.30122 21.5518 6.47684 20.7643 7.89434 19.8475C10.7237 18.0025 14.5093 15.6231 18.295 13.2662C25.8493 8.56371 33.3812 3.98496 33.4093 3.96809C33.595 3.86121 33.7975 3.80496 34 3.80496ZM34 22.525C45.3006 22.525 51.7018 25.8325 52.675 26.35V32.0762C50.3912 31.3618 44.3106 29.635 34 29.635C23.6893 29.635 17.6087 31.3618 15.325 32.0762V26.35C16.2981 25.8325 22.6993 22.525 34 22.525ZM37.4706 32.7062C39.2875 32.7906 40.9806 32.9143 42.5275 33.0943C43.2137 35.1981 44.5975 36.9531 45.835 38.2806C47.2525 39.7993 48.5631 40.7725 48.5631 40.7725C48.8893 41.0143 49.2943 41.11 49.6881 41.0368C49.6881 41.0368 50.065 40.9862 50.4193 41.1718C50.7681 41.3518 51.2856 41.6612 51.2856 43.6468C51.2856 45.4018 50.1268 46.6731 48.8275 46.825C48.2762 46.8868 47.8093 47.2637 47.6293 47.7868C46.1612 52.045 44.2881 56.2918 41.9931 59.3575C41.245 60.3587 40.4631 61.2137 39.6418 61.9281C39.4 62.0406 39.1975 62.2093 39.04 62.4231C37.5212 63.5875 35.8675 64.24 34.0112 64.24C32.11 64.24 30.4168 63.5593 28.8643 62.3443C28.7575 62.2093 28.6337 62.1081 28.4818 62.0181C27.6268 61.2868 26.8056 60.4037 26.0293 59.3575C23.7343 56.2918 21.8612 52.045 20.3931 47.7868C20.2131 47.2581 19.7462 46.8868 19.195 46.825C17.89 46.6731 16.7256 45.4018 16.7256 43.6468C16.7256 42.7018 16.9 42.19 17.0406 41.9481C17.1868 41.7118 17.2712 41.6725 17.4118 41.6275C17.6875 41.5262 18.1375 41.6162 18.1375 41.6162C18.2893 41.6668 18.4412 41.6893 18.5931 41.6893C28.5831 41.6331 34.9787 36.7618 37.4706 32.7062ZM45.9193 33.5668C50.2618 34.2812 52.7143 35.0856 53.2656 35.2768C53.4681 35.4175 53.6987 35.5018 53.9406 35.53C55.8925 36.3456 57.445 38.7362 58.435 41.8075C59.47 45.0137 59.875 48.7656 59.875 51.28V59.8581C58.0637 59.7625 51.2631 59.4868 44.5581 60.7187C46.8981 57.4731 48.6587 53.4231 50.0875 49.3843C52.4668 48.6362 54.1656 46.3525 54.1656 43.6468C54.1656 40.9806 53.035 39.2818 51.7356 38.6125C50.9481 38.2018 50.6668 38.3537 50.1775 38.365C50.0818 38.2918 49.1143 37.5775 47.9443 36.3175C47.2018 35.5243 46.4762 34.5625 45.9193 33.5668ZM5.19997 44.08C6.02684 44.08 6.63997 44.7043 6.63997 45.475C6.63997 45.8856 6.07747 47.32 5.40809 48.4225C5.30684 48.5912 5.30684 48.5687 5.20559 48.7206C5.10434 48.5575 5.09872 48.58 4.99184 48.4056C4.31684 47.2918 3.75997 45.8293 3.75997 45.475C3.75997 44.7043 4.37309 44.08 5.19997 44.08Z" fill="#0092D6"/>
</svg>
