<svg width="72" height="56" viewBox="0 0 72 56" fill="none" xmlns="http://www.w3.org/2000/svg">
<path d="M36.0001 0.640137C32.836 0.640137 30.2401 3.23603 30.2401 6.40014C30.2401 9.56424 32.836 12.1601 36.0001 12.1601C39.1642 12.1601 41.7601 9.56424 41.7601 6.40014C41.7601 3.23603 39.1642 0.640137 36.0001 0.640137ZM36.0001 3.52014C37.6078 3.52014 38.8801 4.7925 38.8801 6.40014C38.8801 8.00777 37.6078 9.28014 36.0001 9.28014C34.3925 9.28014 33.1201 8.00777 33.1201 6.40014C33.1201 4.7925 34.3925 3.52014 36.0001 3.52014ZM11.5201 4.96014C8.35603 4.96014 5.76014 7.55603 5.76014 10.7201C5.76014 13.8842 8.35603 16.4801 11.5201 16.4801C14.6842 16.4801 17.2801 13.8842 17.2801 10.7201C17.2801 7.55603 14.6842 4.96014 11.5201 4.96014ZM60.4801 4.96014C57.316 4.96014 54.7201 7.55603 54.7201 10.7201C54.7201 13.8842 57.316 16.4801 60.4801 16.4801C63.6442 16.4801 66.2401 13.8842 66.2401 10.7201C66.2401 7.55603 63.6442 4.96014 60.4801 4.96014ZM11.5201 7.84014C13.1278 7.84014 14.4001 9.1125 14.4001 10.7201C14.4001 12.3278 13.1278 13.6001 11.5201 13.6001C9.9125 13.6001 8.64013 12.3278 8.64013 10.7201C8.64013 9.1125 9.9125 7.84014 11.5201 7.84014ZM60.4801 7.84014C62.0878 7.84014 63.3601 9.1125 63.3601 10.7201C63.3601 12.3278 62.0878 13.6001 60.4801 13.6001C58.8725 13.6001 57.6001 12.3278 57.6001 10.7201C57.6001 9.1125 58.8725 7.84014 60.4801 7.84014ZM34.5601 13.6001C29.8058 13.6001 25.9201 17.4858 25.9201 22.2401V28.0001H21.6001C21.4093 27.9974 21.2199 28.0327 21.0428 28.1038C20.8657 28.175 20.7046 28.2806 20.5687 28.4146C20.4328 28.5486 20.3249 28.7083 20.2512 28.8843C20.1776 29.0604 20.1396 29.2493 20.1396 29.4401C20.1396 29.631 20.1776 29.8199 20.2512 29.996C20.3249 30.172 20.4328 30.3317 20.5687 30.4656C20.7046 30.5996 20.8657 30.7053 21.0428 30.7764C21.2199 30.8476 21.4093 30.8828 21.6001 30.8801H25.9201H46.0801H50.4001C50.591 30.8828 50.7804 30.8476 50.9575 30.7764C51.1346 30.7053 51.2957 30.5996 51.4316 30.4656C51.5675 30.3317 51.6754 30.172 51.7491 29.996C51.8227 29.8199 51.8606 29.631 51.8606 29.4401C51.8606 29.2493 51.8227 29.0604 51.7491 28.8843C51.6754 28.7083 51.5675 28.5486 51.4316 28.4146C51.2957 28.2806 51.1346 28.175 50.9575 28.1038C50.7804 28.0327 50.591 27.9974 50.4001 28.0001H46.0801V22.2401C46.0801 17.4858 42.1945 13.6001 37.4401 13.6001H34.5601ZM34.5601 16.4801H37.4401C40.6375 16.4801 43.2001 19.0428 43.2001 22.2401V28.0001H28.8001V22.2401C28.8001 19.0428 31.3628 16.4801 34.5601 16.4801ZM11.5201 17.9201C8.35597 17.9201 5.76014 20.516 5.76014 23.6801C5.76013 23.6811 5.76013 23.682 5.76014 23.683L5.7742 37.0001C5.77445 37.0396 5.77633 37.079 5.77982 37.1183C6.02831 40.0906 8.53773 42.4001 11.5201 42.4001H18.7201V51.0401C18.7201 53.409 20.6712 55.3601 23.0401 55.3601C25.409 55.3601 27.3601 53.409 27.3601 51.0401V39.5201C27.3601 36.3571 24.7631 33.7601 21.6001 33.7601H17.2801V23.6801C17.2803 23.6266 17.2775 23.5731 17.2717 23.5198C16.9383 20.5258 14.6663 17.9201 11.5201 17.9201ZM60.4801 17.9201C57.3339 17.9201 55.062 20.5258 54.7286 23.5198C54.7228 23.5731 54.72 23.6266 54.7201 23.6801V33.7601H50.4001C47.2371 33.7601 44.6401 36.3571 44.6401 39.5201V51.0401C44.6401 53.409 46.5912 55.3601 48.9601 55.3601C51.329 55.3601 53.2801 53.409 53.2801 51.0401V42.4001H60.4801C63.4625 42.4001 65.972 40.0906 66.2204 37.1183C66.2239 37.079 66.2258 37.0396 66.2261 37.0001L66.2401 23.683C66.2401 23.682 66.2401 23.6811 66.2401 23.6801C66.2401 20.516 63.6443 17.9201 60.4801 17.9201ZM11.5201 20.8001C13.1388 20.8001 14.1856 21.9678 14.4001 23.8208V35.2001C14.4002 35.582 14.5519 35.9483 14.8219 36.2183C15.092 36.4884 15.4582 36.6401 15.8401 36.6401H21.6001C23.2007 36.6401 24.4801 37.9196 24.4801 39.5201V51.0401C24.4801 51.8508 23.8508 52.4801 23.0401 52.4801C22.2295 52.4801 21.6001 51.8508 21.6001 51.0401V40.9601C21.6001 40.5782 21.4484 40.212 21.1783 39.9419C20.9083 39.6719 20.542 39.5202 20.1601 39.5201H11.5201C10.0143 39.5201 8.78635 38.3898 8.6542 36.8904L8.64013 23.6773C8.64163 22.0707 9.91308 20.8001 11.5201 20.8001ZM60.4801 20.8001C62.0881 20.8001 63.3601 22.0721 63.3601 23.6801L63.3461 36.8904C63.214 38.3898 61.986 39.5201 60.4801 39.5201H51.8401C51.4582 39.5202 51.092 39.6719 50.8219 39.9419C50.5519 40.212 50.4002 40.5782 50.4001 40.9601V51.0401C50.4001 51.8508 49.7708 52.4801 48.9601 52.4801C48.1495 52.4801 47.5201 51.8508 47.5201 51.0401V39.5201C47.5201 37.9196 48.7996 36.6401 50.4001 36.6401H56.1601C56.542 36.6401 56.9083 36.4884 57.1783 36.2183C57.4484 35.9483 57.6001 35.582 57.6001 35.2001V23.8208C57.8147 21.9678 58.8614 20.8001 60.4801 20.8001ZM1.41764 25.1005C1.03622 25.1064 0.672742 25.2635 0.406988 25.5371C0.141234 25.8108 -0.00508815 26.1787 0.00013519 26.5601V38.0801C0.00013519 43.6304 4.52989 48.1601 10.0801 48.1601H14.4001C14.591 48.1628 14.7804 48.1276 14.9575 48.0564C15.1346 47.9853 15.2957 47.8796 15.4316 47.7456C15.5675 47.6117 15.6754 47.452 15.7491 47.276C15.8227 47.0999 15.8606 46.911 15.8606 46.7201C15.8606 46.5293 15.8227 46.3404 15.7491 46.1643C15.6754 45.9883 15.5675 45.8286 15.4316 45.6946C15.2957 45.5606 15.1346 45.455 14.9575 45.3839C14.7804 45.3127 14.591 45.2774 14.4001 45.2801H10.0801C6.08606 45.2801 2.88014 42.0742 2.88014 38.0801V26.5601C2.88277 26.3675 2.84673 26.1763 2.77413 25.9978C2.70153 25.8193 2.59385 25.6572 2.45748 25.5211C2.32111 25.385 2.15881 25.2776 1.9802 25.2054C1.80158 25.1331 1.61029 25.0974 1.41764 25.1005ZM70.5376 25.1005C70.1562 25.1064 69.7927 25.2635 69.527 25.5371C69.2612 25.8108 69.1149 26.1787 69.1201 26.5601V38.0801C69.1201 42.0742 65.9142 45.2801 61.9201 45.2801H57.6001C57.4093 45.2774 57.2199 45.3127 57.0428 45.3839C56.8657 45.455 56.7046 45.5606 56.5687 45.6946C56.4328 45.8286 56.3249 45.9883 56.2512 46.1643C56.1776 46.3404 56.1396 46.5293 56.1396 46.7201C56.1396 46.911 56.1776 47.0999 56.2512 47.276C56.3249 47.452 56.4328 47.6117 56.5687 47.7456C56.7046 47.8796 56.8657 47.9853 57.0428 48.0564C57.2199 48.1276 57.4093 48.1628 57.6001 48.1601H61.9201C67.4704 48.1601 72.0001 43.6304 72.0001 38.0801V26.5601C72.0028 26.3675 71.9667 26.1763 71.8941 25.9978C71.8215 25.8193 71.7139 25.6572 71.5775 25.5211C71.4411 25.385 71.2788 25.2776 71.1002 25.2054C70.9216 25.1331 70.7303 25.0974 70.5376 25.1005Z" fill="#0092D6"/>
</svg>
