<svg width="72" height="72" viewBox="0 0 72 72" fill="none" xmlns="http://www.w3.org/2000/svg">
<path d="M34.6951 -0.179875C31.9164 -0.202375 28.7214 1.03513 26.7301 4.27513C24.9132 7.15513 24.3114 10.9801 25.3801 14.4451C25.3239 14.5464 25.1945 14.6195 25.1551 14.7151C25.0145 15.0639 24.9751 15.4014 24.9301 15.8401C24.7276 17.8595 25.5207 19.7833 26.4601 21.1051C26.477 21.1333 26.4882 21.122 26.5051 21.1501C26.882 21.6845 27.197 21.7689 27.5401 21.9601C27.6864 22.5845 28.2657 24.2945 29.8351 26.3251C29.8914 26.6795 29.8126 26.8933 29.6101 27.1351C29.4301 27.3489 29.2726 27.4051 29.2051 27.4501C26.3026 27.9958 23.5126 29.0026 21.2401 30.2851C19.1926 31.4439 17.5276 32.8333 16.6051 34.5601H4.32012C1.95199 34.5601 0.000119194 36.512 0.000119194 38.8801V41.3101C-0.157381 41.822 -0.0167559 42.3733 0.360119 42.7501L5.94012 52.5601C6.19887 53.0101 6.68262 53.2858 7.20012 53.2801H13.5901L16.4251 70.7851C16.4645 71.3251 16.8076 71.7976 17.3082 72.0058C17.8089 72.2139 18.3882 72.1239 18.7989 71.7695C19.2095 71.4151 19.3895 70.8639 19.2601 70.3351L16.2901 51.8401C16.2901 51.812 16.2901 51.7783 16.2901 51.7501V51.6601C16.2789 51.5195 16.2507 51.3845 16.2001 51.2551L15.8401 48.9601H56.1601L52.7401 70.3351C52.6107 70.8639 52.7907 71.4151 53.2014 71.7695C53.612 72.1239 54.1914 72.2139 54.692 72.0058C55.1926 71.7976 55.5357 71.3251 55.5751 70.7851L58.4101 53.2801H64.8001C65.3176 53.2858 65.8014 53.0101 66.0601 52.5601L71.8201 42.4801C71.9439 42.2608 72.0057 42.0133 72.0001 41.7601V38.8801C72.0001 36.5908 70.1664 34.7289 67.9051 34.6051C67.8376 33.0358 67.6182 31.652 67.0051 30.4201C66.4426 29.2895 65.5989 28.3276 64.4851 27.4951C64.682 27.0058 64.8001 26.477 64.8001 25.9201C64.8001 23.552 62.8482 21.6001 60.4801 21.6001C58.112 21.6001 56.1601 23.552 56.1601 25.9201C56.1601 28.2883 58.112 30.2401 60.4801 30.2401C61.2282 30.2401 61.9314 30.0376 62.5501 29.7001C63.467 30.3583 64.0239 30.9883 64.3951 31.7251C64.7551 32.4395 64.9464 33.3508 65.0251 34.5601H55.3501C54.422 32.9064 52.7739 31.5789 50.8051 30.4651C48.4876 29.1489 45.6582 28.142 42.6601 27.5401C42.6601 27.5401 42.6207 27.5401 42.6151 27.5401C42.5701 27.5233 42.3676 27.422 42.2551 27.3151C42.1932 27.2589 42.1707 27.2476 42.1651 27.2251C42.1595 27.2026 42.1595 27.1014 42.3451 26.7301C43.0426 25.7851 43.6389 24.812 44.0551 23.9851C44.3982 23.2933 44.5782 22.7926 44.7301 22.2751C45.2926 21.8364 47.087 20.3064 47.2501 17.5051C47.3289 16.1664 47.2164 15.362 46.9801 14.7151C46.9464 14.6308 46.8845 14.5689 46.8451 14.4901C47.2839 12.6564 47.492 10.0295 46.8001 7.38013C46.412 5.8895 45.7089 4.427 44.4601 3.37513C43.4307 2.50325 41.9795 2.1545 40.3651 2.20513C39.8701 1.55263 39.2401 1.007 38.4751 0.630125C37.3839 0.0957502 36.0845 -0.168626 34.6951 -0.179875ZM34.6951 2.70012C35.6626 2.70575 36.5626 2.9195 37.2151 3.24013C37.8676 3.56075 38.1882 3.98825 38.2501 4.14013C38.4976 4.77575 39.1557 5.15263 39.8251 5.04013C41.2314 4.80388 42.002 5.06263 42.6151 5.58013C43.2282 6.09763 43.7176 7.02575 44.0101 8.14513C44.6007 10.3895 44.2632 13.4495 43.9651 14.4001C43.8132 14.8895 43.937 15.4183 44.2801 15.7951C44.3026 15.8795 44.432 16.2789 44.3701 17.3251C44.2745 18.9676 42.6151 20.2951 42.6151 20.2951C42.3282 20.5145 42.137 20.8351 42.0751 21.1951C42.0582 21.2682 41.822 21.9264 41.4451 22.6801C41.0682 23.4339 40.5676 24.3508 39.9151 25.2001C39.8476 25.2676 39.7857 25.3464 39.7351 25.4251C39.347 26.207 39.2007 26.9889 39.3301 27.7201C39.4595 28.4514 39.8701 29.0533 40.2751 29.4301C41.0851 30.1783 41.9851 30.3301 41.9851 30.3301C42.0132 30.347 42.047 30.3639 42.0751 30.3751C44.8201 30.9264 47.4189 31.8545 49.4101 32.9851C50.282 33.4801 50.9795 34.0314 51.5701 34.5601H20.2051C20.8464 33.947 21.6901 33.3226 22.6801 32.7601C24.7051 31.6126 27.3376 30.7183 30.0601 30.2401C30.2176 30.2064 30.3695 30.1445 30.5101 30.0601C30.5101 30.0601 31.1682 29.6889 31.7701 28.9801C32.372 28.2714 33.002 27.0395 32.6701 25.6051C32.6082 25.3689 32.4845 25.1495 32.3101 24.9751C30.5607 22.9726 30.2401 20.9251 30.2401 20.9251C30.1501 20.4695 29.852 20.087 29.4301 19.8901C29.1432 19.7439 28.8057 19.4233 28.8451 19.4851C28.8282 19.4851 28.817 19.4851 28.8001 19.4851C28.3051 18.7933 27.6807 16.9539 27.7651 16.1101C27.7764 16.0033 27.7989 16.037 27.8101 15.9751C27.8945 15.9132 27.9564 15.9358 28.0351 15.8401C28.3445 15.4689 28.3501 15.0639 28.3501 14.8501C28.3614 14.6532 28.3276 14.4508 28.2601 14.2651C27.1745 11.6158 27.6864 8.14513 29.1601 5.80513C30.6226 3.43138 32.7545 2.68325 34.6951 2.70012ZM27.4951 16.1101C27.4445 16.1551 27.4726 16.2057 27.4051 16.2451C27.3039 16.3014 27.2139 16.3183 27.1351 16.3351C27.197 16.3239 27.3714 16.1664 27.4951 16.1101ZM60.4801 24.4801C61.2901 24.4801 61.9201 25.1101 61.9201 25.9201C61.9201 26.2689 61.7964 26.5726 61.6051 26.8201C61.5039 26.8989 61.4139 26.9889 61.3351 27.0901C61.0989 27.2589 60.8007 27.3601 60.4801 27.3601C59.6701 27.3601 59.0401 26.7301 59.0401 25.9201C59.0401 25.1101 59.6701 24.4801 60.4801 24.4801ZM4.32012 37.4401H54.0901C54.3657 37.5245 54.6695 37.5245 54.9451 37.4401H67.6801C68.4789 37.4401 69.1201 38.0814 69.1201 38.8801V40.3201H2.88012V38.8801C2.88012 38.0814 3.52137 37.4401 4.32012 37.4401ZM3.91512 43.2001H68.0851L63.9451 50.4001H58.8601L59.0401 49.3201C59.3326 47.5595 57.977 46.0801 56.2951 46.0801H15.7051C14.0401 46.0801 12.6901 47.7114 12.9601 49.3201L13.1401 50.4001H8.05512L3.91512 43.2001Z" fill="#0092D6"/>
</svg>
