<svg width="62" height="62" viewBox="0 0 62 62" fill="none" xmlns="http://www.w3.org/2000/svg">
<path d="M31.0001 0.759766C28.1256 0.759766 25.3385 1.16108 22.7004 1.91289C22.5185 1.96478 22.3486 2.052 22.2004 2.16955C22.0522 2.2871 21.9286 2.43269 21.8367 2.59801C21.7447 2.76333 21.6863 2.94513 21.6646 3.13305C21.6429 3.32096 21.6585 3.5113 21.7104 3.6932C21.7623 3.8751 21.8495 4.045 21.967 4.1932C22.0846 4.3414 22.2302 4.46499 22.3955 4.55692C22.5608 4.64885 22.7426 4.70732 22.9305 4.72898C23.1185 4.75065 23.3088 4.7351 23.4907 4.6832C25.8753 4.00365 28.3939 3.63977 31.0001 3.63977C46.1281 3.63977 58.3601 15.8717 58.3601 30.9998C58.3574 31.1906 58.3926 31.38 58.4638 31.5571C58.5349 31.7342 58.6406 31.8953 58.7746 32.0312C58.9086 32.1671 59.0682 32.275 59.2443 32.3487C59.4203 32.4223 59.6092 32.4603 59.8001 32.4603C59.9909 32.4603 60.1798 32.4223 60.3559 32.3487C60.5319 32.275 60.6916 32.1671 60.8256 32.0312C60.9596 31.8953 61.0652 31.7342 61.1364 31.5571C61.2075 31.38 61.2428 31.1906 61.2401 30.9998C61.2401 14.3153 47.6845 0.759766 31.0001 0.759766ZM13.197 2.19977C9.91079 2.19977 7.40469 3.34147 6.10945 5.37789C4.94288 7.21202 4.92471 9.51862 5.46539 11.886C5.18988 12.3681 5.01874 12.9328 5.09695 13.641C5.18787 14.4611 5.38971 15.1136 5.77195 15.6435C5.9127 15.8387 6.16492 15.8494 6.35414 15.9923C6.54863 16.7583 6.75227 17.5504 7.1332 18.0651C7.40068 18.4265 7.67303 18.7302 7.92633 18.9763C7.93728 18.987 7.94943 18.9913 7.96008 19.0016V20.4304C7.86331 20.6478 7.70518 20.8498 7.20351 21.1335C6.64965 21.4468 5.82148 21.767 4.92258 22.2051C4.02367 22.6432 3.03216 23.2161 2.22258 24.1626C1.41299 25.109 0.852112 26.4281 0.762889 28.041C0.752209 28.2364 0.781457 28.4319 0.848847 28.6156C0.916237 28.7993 1.02036 28.9674 1.15485 29.1095C1.28934 29.2516 1.45139 29.3648 1.6311 29.4423C1.8108 29.5197 2.0044 29.5597 2.20008 29.5598H22.3601C22.5557 29.5597 22.7493 29.5197 22.9291 29.4423C23.1088 29.3648 23.2708 29.2516 23.4053 29.1095C23.5398 28.9674 23.6439 28.7993 23.7113 28.6156C23.7787 28.4319 23.8079 28.2364 23.7973 28.041C23.708 26.4281 23.1471 25.1091 22.3376 24.1626C21.528 23.216 20.5365 22.6433 19.6376 22.2051C18.7386 21.7669 17.9106 21.444 17.3566 21.1307C16.855 20.847 16.6968 20.6474 16.6001 20.4304V18.9848C16.614 18.9707 16.6306 18.9628 16.6451 18.9482C16.8942 18.6976 17.1632 18.3917 17.4241 18.0313C17.7927 17.5223 17.9876 16.7559 18.1807 16.0148C18.3705 15.8718 18.6218 15.8616 18.7629 15.666C19.1457 15.1353 19.3507 14.4838 19.4407 13.6635C19.5013 13.1148 19.4506 12.6015 19.2607 12.1251C19.2352 12.0611 19.1229 12.0266 19.0919 11.962C19.4939 10.3133 19.6248 8.55515 18.9879 6.94164C18.38 5.40155 16.8081 4.34512 14.8451 3.9632L14.5498 3.14758C14.4487 2.86989 14.2648 2.63 14.0227 2.46044C13.7807 2.29089 13.4924 2.19988 13.197 2.19977ZM12.2463 5.24008L12.3673 5.57195C12.4683 5.84964 12.6523 6.08953 12.8943 6.25909C13.1363 6.42864 13.4246 6.51965 13.7201 6.51977C15.4382 6.51977 15.9358 7.05738 16.3076 7.99914C16.6793 8.9409 16.6389 10.4741 16.212 11.8551C16.1344 12.1075 16.1278 12.3764 16.1927 12.6323C16.2577 12.8883 16.3918 13.1215 16.5804 13.3063C16.581 13.3338 16.5822 13.3068 16.5776 13.3485C16.533 13.7549 16.4706 13.8358 16.4538 13.8716C16.2042 13.9865 15.9926 14.1704 15.8441 14.4017C15.6956 14.6329 15.6163 14.9018 15.6157 15.1766C15.6157 15.3516 15.4193 15.8927 15.0926 16.3438C14.9292 16.5694 14.7471 16.7756 14.6032 16.9204C14.4593 17.0652 14.2764 17.1745 14.4457 17.0779C14.2255 17.2037 14.0424 17.3855 13.915 17.6047C13.7876 17.824 13.7204 18.073 13.7201 18.3266V20.8241C13.7204 20.983 13.747 21.1408 13.7988 21.291C14.1935 22.4441 15.0972 23.1649 15.9363 23.6395C16.7754 24.114 17.6305 24.4298 18.3748 24.7926C19.119 25.1554 19.7304 25.5458 20.1495 26.0357C20.2742 26.1816 20.2803 26.5054 20.3801 26.6798H4.18008C4.2798 26.5055 4.28592 26.1816 4.4107 26.0357C4.82967 25.5459 5.44107 25.1581 6.18539 24.7954C6.92971 24.4326 7.78463 24.1141 8.62383 23.6395C9.46302 23.1648 10.3668 22.4443 10.7613 21.291C10.8132 21.1408 10.8398 20.983 10.8401 20.8241V18.3266C10.8397 18.072 10.7719 17.822 10.6434 17.6022C10.5149 17.3823 10.3305 17.2004 10.1088 17.0751C10.2536 17.1568 10.0789 17.0523 9.93445 16.912C9.79004 16.7716 9.61061 16.5721 9.44789 16.3523C9.12245 15.9126 8.91914 15.3916 8.91914 15.1541C8.91876 14.8796 8.83993 14.6109 8.69194 14.3797C8.54395 14.1485 8.33296 13.9644 8.08383 13.8491C8.06674 13.8128 8.00235 13.7327 7.95726 13.326C7.95109 13.2701 7.96289 13.2883 7.97133 13.2698C8.15097 13.088 8.27899 12.8616 8.34226 12.614C8.40552 12.3664 8.40175 12.1064 8.33133 11.8607C7.71486 9.70952 7.85613 7.99911 8.53945 6.92477C9.11713 6.01652 10.3312 5.43195 12.2463 5.24008ZM50.637 32.4398C47.3508 32.4398 44.8447 33.5815 43.5494 35.6179C42.3829 37.452 42.3647 39.7586 42.9054 42.126C42.6299 42.6081 42.4587 43.1728 42.5369 43.881C42.6279 44.7011 42.8297 45.3536 43.212 45.8835C43.3527 46.0787 43.6049 46.0894 43.7941 46.2323C43.9886 46.9983 44.1923 47.7904 44.5732 48.3051C44.8407 48.6665 45.113 48.9702 45.3663 49.2163C45.3773 49.227 45.3894 49.2313 45.4001 49.2416V50.6704C45.3033 50.8878 45.1452 51.0898 44.6435 51.3735C44.0896 51.6868 43.2615 52.007 42.3626 52.4451C41.4637 52.8832 40.4722 53.4561 39.6626 54.4026C38.853 55.349 38.2921 56.6681 38.2029 58.281C38.1922 58.4764 38.2215 58.6719 38.2888 58.8556C38.3562 59.0393 38.4604 59.2074 38.5948 59.3495C38.7293 59.4916 38.8914 59.6048 39.0711 59.6823C39.2508 59.7597 39.4444 59.7997 39.6401 59.7998H59.8001C59.9958 59.7997 60.1894 59.7597 60.3691 59.6823C60.5488 59.6048 60.7108 59.4916 60.8453 59.3495C60.9798 59.2074 61.0839 59.0393 61.1513 58.8556C61.2187 58.6719 61.2479 58.4764 61.2373 58.281C61.148 56.6681 60.5871 55.3491 59.7776 54.4026C58.968 53.456 57.9765 52.8833 57.0776 52.4451C56.1786 52.0069 55.3506 51.684 54.7966 51.3707C54.295 51.087 54.1368 50.8874 54.0401 50.6704V49.2248C54.054 49.2107 54.0706 49.2028 54.0851 49.1882C54.3342 48.9376 54.6032 48.6317 54.8641 48.2713C55.2327 47.7623 55.4276 46.9959 55.6207 46.2548C55.8105 46.1118 56.0618 46.1016 56.2029 45.906C56.5857 45.3753 56.7907 44.7238 56.8807 43.9035C56.9413 43.3548 56.8906 42.8415 56.7007 42.3651C56.6752 42.3011 56.5629 42.2666 56.532 42.202C56.9339 40.5533 57.0648 38.7952 56.4279 37.1816C55.82 35.6416 54.2481 34.5851 52.2851 34.2032L51.9898 33.3876C51.8887 33.1099 51.7048 32.87 51.4627 32.7004C51.2207 32.5309 50.9324 32.4399 50.637 32.4398ZM2.60508 34.1976C2.39173 34.1926 2.17994 34.2351 1.98502 34.322C1.79011 34.4089 1.61695 34.5381 1.47807 34.7001C1.33918 34.8621 1.23805 35.053 1.18197 35.2589C1.12589 35.4648 1.11628 35.6806 1.15383 35.8907C3.49318 50.2671 15.98 61.2398 31.0001 61.2398C31.7294 61.2398 32.4537 61.2153 33.1713 61.1638C33.5519 61.1359 33.9059 60.9581 34.1556 60.6694C34.4052 60.3808 34.5302 60.0049 34.503 59.6242C34.4758 59.2435 34.2987 58.8892 34.0105 58.639C33.7224 58.3887 33.3467 58.263 32.966 58.2895C32.3185 58.3359 31.6618 58.3598 31.0001 58.3598C17.3814 58.3598 6.11046 48.4304 3.99445 35.4266C3.94481 35.0909 3.77819 34.7835 3.524 34.5586C3.2698 34.3338 2.94436 34.2059 2.60508 34.1976ZM49.6863 35.4801L49.8073 35.812C49.9083 36.0896 50.0923 36.3295 50.3343 36.4991C50.5763 36.6686 50.8646 36.7596 51.1601 36.7598C52.8782 36.7598 53.3758 37.2974 53.7476 38.2391C54.1193 39.1809 54.0789 40.7141 53.652 42.0951C53.5744 42.3475 53.5678 42.6164 53.6327 42.8723C53.6977 43.1283 53.8318 43.3615 54.0204 43.5463C54.021 43.5738 54.0222 43.5468 54.0176 43.5885C53.973 43.9949 53.9106 44.0758 53.8938 44.1116C53.6442 44.2265 53.4326 44.4104 53.2841 44.6417C53.1356 44.8729 53.0563 45.1418 53.0557 45.4166C53.0557 45.5916 52.8593 46.1327 52.5326 46.5838C52.3692 46.8094 52.1871 47.0156 52.0432 47.1604C51.8993 47.3052 51.7164 47.4145 51.8857 47.3179C51.6655 47.4437 51.4824 47.6255 51.355 47.8447C51.2276 48.064 51.1604 48.313 51.1601 48.5666V51.0641C51.1604 51.223 51.187 51.3808 51.2388 51.531C51.6335 52.6841 52.5372 53.4049 53.3763 53.8795C54.2154 54.354 55.0705 54.6698 55.8148 55.0326C56.559 55.3954 57.1704 55.7858 57.5895 56.2757C57.7142 56.4216 57.7203 56.7454 57.8201 56.9198H41.6201C41.7198 56.7455 41.7259 56.4216 41.8507 56.2757C42.2697 55.7859 42.8811 55.3981 43.6254 55.0354C44.3697 54.6726 45.2246 54.3541 46.0638 53.8795C46.903 53.4048 47.8068 52.6843 48.2013 51.531C48.2532 51.3808 48.2798 51.223 48.2801 51.0641V48.5666C48.2797 48.312 48.2118 48.062 48.0834 47.8422C47.9549 47.6223 47.7705 47.4404 47.5488 47.3151C47.6936 47.3968 47.5189 47.2923 47.3745 47.152C47.23 47.0116 47.0506 46.8121 46.8879 46.5923C46.5625 46.1526 46.3591 45.6316 46.3591 45.3941C46.3588 45.1196 46.2799 44.8509 46.1319 44.6197C45.9839 44.3885 45.773 44.2044 45.5238 44.0891C45.5067 44.0528 45.4423 43.9727 45.3973 43.566C45.3911 43.5101 45.4029 43.5283 45.4113 43.5098C45.591 43.328 45.719 43.1016 45.7823 42.854C45.8455 42.6064 45.8417 42.3464 45.7713 42.1007C45.1549 39.9495 45.2961 38.2391 45.9795 37.1648C46.5571 36.2565 47.7712 35.672 49.6863 35.4801Z" fill="#0092D6"/>
</svg>
