<svg width="70" height="58" viewBox="0 0 70 58" fill="none" xmlns="http://www.w3.org/2000/svg">
<path d="M4.75994 0.200195V3.0802H63.7999V49.1602H26.3599V52.0402H65.2399C66.0536 52.0402 66.6799 52.6665 66.6799 53.4802V54.9202H26.3599V57.8002H68.1199C68.5018 57.8002 68.8681 57.6484 69.1381 57.3784C69.4082 57.1083 69.5599 56.7421 69.5599 56.3602V53.4802C69.5599 51.6707 68.2736 50.3978 66.6799 49.7593V1.6402C66.6799 1.2583 66.5282 0.892048 66.2581 0.622004C65.9881 0.35196 65.6218 0.200233 65.2399 0.200195H4.75994ZM11.9599 8.84019C6.40997 8.84019 1.87994 13.3702 1.87994 18.9202C1.87994 24.4702 6.40997 29.0002 11.9599 29.0002C17.5099 29.0002 22.0399 24.4702 22.0399 18.9202C22.0399 13.3702 17.5099 8.84019 11.9599 8.84019ZM27.7999 8.84019V11.7202H29.2399H43.6399H45.0799V8.84019H43.6399H29.2399H27.7999ZM49.3999 8.84019V11.7202H50.8399H58.0399H59.4799V8.84019H58.0399H50.8399H49.3999ZM11.9599 11.7202C15.9535 11.7202 19.1599 14.9267 19.1599 18.9202C19.1599 22.9137 15.9535 26.1202 11.9599 26.1202C7.96643 26.1202 4.75994 22.9137 4.75994 18.9202C4.75994 14.9267 7.96643 11.7202 11.9599 11.7202ZM27.7999 16.0402V18.9202H29.2399H58.0399H59.4799V16.0402H58.0399H29.2399H27.7999ZM39.8403 24.3089C39.5193 24.3034 39.1993 24.3293 38.884 24.3849C37.6228 24.6071 36.4453 25.3119 35.6665 26.4408L30.109 34.493L24.8806 32.7493C23.1535 32.173 21.3447 31.8802 19.5256 31.8802H9.07994C4.3256 31.8802 0.439941 35.7659 0.439941 40.5202V57.8002H3.31994V40.5202C3.31994 37.3229 5.8826 34.7602 9.07994 34.7602H19.5256C21.0357 34.7602 22.5371 35.0023 23.9693 35.4802L30.2243 37.5671C30.5202 37.6655 30.8399 37.6652 31.1356 37.5663C31.4313 37.4674 31.6869 37.2752 31.864 37.0186L38.0374 28.0749C38.7032 27.1099 39.9835 26.8842 40.9371 27.563V27.5658C41.8686 28.2281 42.0913 29.4775 41.4434 30.4205L33.2759 42.3118C32.9211 42.8258 32.2904 43.0533 31.6896 42.8799L22.4393 40.208C22.2248 40.1461 21.9989 40.1349 21.7794 40.1754C21.5598 40.2158 21.3527 40.3067 21.1743 40.4409C20.9959 40.5751 20.8512 40.7489 20.7515 40.9486C20.6518 41.1484 20.5999 41.3685 20.5999 41.5918V57.8002H23.4799V43.5071L30.8909 45.6474C32.6738 46.162 34.5987 45.472 35.6496 43.943H35.6524L43.8171 32.0518V32.0489C45.336 29.8357 44.7946 26.7722 42.6078 25.2174C41.7698 24.6209 40.8031 24.3254 39.8403 24.3089Z" fill="#0092D6"/>
</svg>
