<svg width="69" height="71" viewBox="0 0 69 71" fill="none" xmlns="http://www.w3.org/2000/svg">
<path d="M31.1199 0C20.7142 0 13.0415 3.58704 8.07988 9.21656C3.11827 14.8461 0.879883 22.4057 0.879883 30.24C0.879883 36.584 2.84691 42.4901 6.17301 47.3287C9.18813 51.715 10.9599 56.9142 10.9599 62.2069V70.56H13.8399V62.2069C13.8399 56.2733 11.8648 50.5244 8.54676 45.6975C5.53974 41.323 3.75988 35.9891 3.75988 30.24C3.75988 22.9543 5.84149 16.1139 10.2399 11.1234C14.6383 6.13296 21.3656 2.88 31.1199 2.88C40.9153 2.88 47.2557 5.72919 51.4458 10.0884C55.6359 14.4477 57.7211 20.4561 58.4911 26.955L58.5249 27.2531L65.4268 39.1472C65.7844 39.7952 65.6062 40.4332 64.9824 40.7841L58.4799 44.0353V52.7062C58.4799 58.0894 54.0444 62.2811 48.6811 61.7794L48.6586 61.7766L42.6399 61.3912V70.56H45.5199V64.4625L48.4139 64.6481C55.4261 65.3041 61.3599 59.6984 61.3599 52.7062V45.8156L66.3521 43.3209L66.3802 43.3041C68.3367 42.2147 69.0258 39.696 67.9468 37.7494L67.9383 37.7353L61.2474 26.2069C60.3897 19.4641 58.1992 12.958 53.5243 8.09437C48.7511 3.12854 41.4845 0 31.1199 0ZM31.0974 5.74031C30.716 5.74627 30.3525 5.90332 30.0867 6.17698C29.821 6.45065 29.6747 6.81857 29.6799 7.2V12.96C29.6772 13.1508 29.7124 13.3403 29.7836 13.5173C29.8548 13.6944 29.9604 13.8556 30.0944 13.9915C30.2284 14.1274 30.388 14.2353 30.5641 14.3089C30.7401 14.3826 30.929 14.4205 31.1199 14.4205C31.3107 14.4205 31.4997 14.3826 31.6757 14.3089C31.8518 14.2353 32.0114 14.1274 32.1454 13.9915C32.2794 13.8556 32.385 13.6944 32.4562 13.5173C32.5273 13.3403 32.5626 13.1508 32.5599 12.96V7.2C32.5625 7.00734 32.5265 6.81612 32.4539 6.63764C32.3813 6.45917 32.2736 6.29708 32.1372 6.16097C32.0009 6.02486 31.8386 5.91749 31.6599 5.84524C31.4813 5.77298 31.29 5.7373 31.0974 5.74031ZM14.6696 13.7897C14.3831 13.7898 14.1032 13.8753 13.8656 14.0353C13.6279 14.1953 13.4434 14.4225 13.3357 14.6879C13.2279 14.9533 13.2017 15.2449 13.2604 15.5252C13.3192 15.8056 13.4602 16.0621 13.6655 16.2619L17.738 20.3344C17.8707 20.4726 18.0296 20.5829 18.2055 20.6589C18.3814 20.7349 18.5706 20.7751 18.7622 20.777C18.9538 20.779 19.1438 20.7427 19.3212 20.6702C19.4986 20.5978 19.6597 20.4907 19.7952 20.3553C19.9306 20.2198 20.0377 20.0587 20.1101 19.8813C20.1825 19.7039 20.2188 19.5139 20.2169 19.3223C20.2149 19.1307 20.1748 18.9415 20.0988 18.7656C20.0228 18.5897 19.9125 18.4308 19.7743 18.2981L15.7018 14.2256C15.5676 14.0877 15.4071 13.978 15.2298 13.9032C15.0525 13.8283 14.862 13.7897 14.6696 13.7897ZM47.528 13.7897C47.1539 13.8008 46.7988 13.9572 46.538 14.2256L42.4655 18.2981C42.3273 18.4308 42.217 18.5897 42.141 18.7656C42.065 18.9415 42.0248 19.1307 42.0229 19.3223C42.0209 19.5139 42.0572 19.7039 42.1296 19.8813C42.2021 20.0587 42.3091 20.2198 42.4446 20.3553C42.5801 20.4907 42.7412 20.5978 42.9186 20.6702C43.096 20.7427 43.286 20.779 43.4776 20.777C43.6692 20.7751 43.8584 20.7349 44.0343 20.6589C44.2101 20.5829 44.3691 20.4726 44.5018 20.3344L48.5743 16.2619C48.7823 16.0596 48.9245 15.7992 48.982 15.5148C49.0396 15.2303 49.0098 14.9352 48.8967 14.6679C48.7836 14.4007 48.5924 14.1738 48.3482 14.0171C48.104 13.8604 47.8181 13.7811 47.528 13.7897ZM30.9258 17.2828C24.8824 17.3837 19.8239 22.3342 19.6055 28.3753C19.6055 28.3762 19.6055 28.3772 19.6055 28.3781C19.5006 31.3048 20.5 34.0145 22.2155 36.0984C24.168 38.4702 25.3599 41.2811 25.3599 44.2378V44.64V48.3328C25.3599 50.2531 26.9467 51.84 28.8671 51.84H33.3727C35.293 51.84 36.8799 50.2531 36.8799 48.3328V44.64V44.2322C36.8799 41.3275 37.9239 38.5234 39.8274 36.3319C41.577 34.3159 42.6399 31.6745 42.6399 28.8C42.6399 22.3906 37.3582 17.1762 30.9258 17.2828ZM30.9736 20.16C35.8338 20.0794 39.7599 23.963 39.7599 28.8C39.7599 30.9684 38.968 32.9298 37.6533 34.4447C35.5274 36.8924 34.4139 39.9865 34.1855 43.2H28.0374C27.7795 39.8852 26.5122 36.788 24.4374 34.2675C23.1491 32.7025 22.4061 30.6935 22.4855 28.4794C22.6473 24.0027 26.4935 20.2348 30.9736 20.16ZM9.51988 28.8C9.32907 28.7973 9.13962 28.8326 8.96254 28.9037C8.78547 28.9749 8.6243 29.0805 8.48841 29.2145C8.35252 29.3485 8.24461 29.5081 8.17096 29.6842C8.0973 29.8602 8.05937 30.0492 8.05937 30.24C8.05937 30.4308 8.0973 30.6198 8.17096 30.7958C8.24461 30.9719 8.35252 31.1315 8.48841 31.2655C8.6243 31.3995 8.78547 31.5051 8.96254 31.5763C9.13962 31.6474 9.32907 31.6827 9.51988 31.68H15.2799C15.4707 31.6827 15.6602 31.6474 15.8372 31.5763C16.0143 31.5051 16.1755 31.3995 16.3114 31.2655C16.4473 31.1315 16.5552 30.9719 16.6288 30.7958C16.7025 30.6198 16.7404 30.4308 16.7404 30.24C16.7404 30.0492 16.7025 29.8602 16.6288 29.6842C16.5552 29.5081 16.4473 29.3485 16.3114 29.2145C16.1755 29.0805 16.0143 28.9749 15.8372 28.9037C15.6602 28.8326 15.4707 28.7973 15.2799 28.8H9.51988ZM46.9599 28.8C46.7691 28.7973 46.5796 28.8326 46.4025 28.9037C46.2255 28.9749 46.0643 29.0805 45.9284 29.2145C45.7925 29.3485 45.6846 29.5081 45.611 29.6842C45.5373 29.8602 45.4994 30.0492 45.4994 30.24C45.4994 30.4308 45.5373 30.6198 45.611 30.7958C45.6846 30.9719 45.7925 31.1315 45.9284 31.2655C46.0643 31.3995 46.2255 31.5051 46.4025 31.5763C46.5796 31.6474 46.7691 31.6827 46.9599 31.68H52.7199C52.9107 31.6827 53.1002 31.6474 53.2772 31.5763C53.4543 31.5051 53.6155 31.3995 53.7514 31.2655C53.8872 31.1315 53.9952 30.9719 54.0688 30.7958C54.1425 30.6198 54.1804 30.4308 54.1804 30.24C54.1804 30.0492 54.1425 29.8602 54.0688 29.6842C53.9952 29.5081 53.8872 29.3485 53.7514 29.2145C53.6155 29.0805 53.4543 28.9749 53.2772 28.9037C53.1002 28.8326 52.9107 28.7973 52.7199 28.8H46.9599ZM18.728 38.2697C18.3539 38.2808 17.9988 38.4372 17.738 38.7056L13.6655 42.7781C13.5273 42.9108 13.417 43.0697 13.341 43.2456C13.265 43.4215 13.2248 43.6107 13.2229 43.8023C13.2209 43.9939 13.2572 44.1839 13.3296 44.3613C13.4021 44.5387 13.5091 44.6998 13.6446 44.8353C13.7801 44.9707 13.9412 45.0778 14.1186 45.1502C14.296 45.2227 14.486 45.259 14.6776 45.257C14.8691 45.2551 15.0584 45.2149 15.2343 45.1389C15.4101 45.0629 15.5691 44.9526 15.7018 44.8144L19.7743 40.7419C19.9823 40.5396 20.1245 40.2792 20.182 39.9948C20.2396 39.7103 20.2098 39.4152 20.0967 39.1479C19.9836 38.8807 19.7924 38.6538 19.5482 38.4971C19.304 38.3404 19.0181 38.2611 18.728 38.2697ZM43.4696 38.2697C43.1831 38.2698 42.9032 38.3553 42.6656 38.5153C42.4279 38.6753 42.2435 38.9025 42.1357 39.1679C42.0279 39.4333 42.0017 39.7248 42.0604 40.0052C42.1192 40.2856 42.2602 40.5421 42.4655 40.7419L46.538 44.8144C46.6707 44.9526 46.8296 45.0629 47.0055 45.1389C47.1814 45.2149 47.3706 45.2551 47.5622 45.257C47.7538 45.259 47.9438 45.2227 48.1212 45.1502C48.2985 45.0778 48.4597 44.9707 48.5952 44.8353C48.7306 44.6998 48.8377 44.5387 48.9101 44.3613C48.9825 44.1839 49.0188 43.9939 49.0169 43.8023C49.0149 43.6107 48.9748 43.4215 48.8988 43.2456C48.8228 43.0697 48.7125 42.9108 48.5743 42.7781L44.5018 38.7056C44.3676 38.5677 44.2071 38.458 44.0298 38.3832C43.8525 38.3083 43.662 38.2697 43.4696 38.2697ZM28.2399 46.08H33.9999V48.3328C33.9999 48.6963 33.7362 48.96 33.3727 48.96H28.8671C28.5036 48.96 28.2399 48.6963 28.2399 48.3328V46.08Z" fill="#0092D6"/>
</svg>
