<svg width="32" height="33" viewBox="0 0 32 33" fill="none" xmlns="http://www.w3.org/2000/svg">
<path d="M27 0.5H5C2.23858 0.5 0 2.73858 0 5.5V27.5C0 30.2614 2.23858 32.5 5 32.5H27C29.7614 32.5 32 30.2614 32 27.5V5.5C32 2.73858 29.7614 0.5 27 0.5Z" fill="#FF0000"/>
<path d="M23.6 12.5999C23.4 11.8999 22.9 11.3999 22.2 11.1999C21 10.8999 15.9 10.8999 15.9 10.8999C15.9 10.8999 10.9 10.8999 9.60001 11.1999C8.90001 11.3999 8.4 11.8999 8.2 12.5999C8 13.8999 8 16.4999 8 16.4999C8 16.4999 8 19.0999 8.3 20.3999C8.5 21.0999 9 21.5999 9.7 21.7999C10.9 22.0999 16 22.0999 16 22.0999C16 22.0999 21 22.0999 22.3 21.7999C23 21.5999 23.5 21.0999 23.7 20.3999C24 19.0999 24 16.4999 24 16.4999C24 16.4999 24 13.8999 23.6 12.5999ZM14.4 18.8999V14.0999L18.6 16.4999L14.4 18.8999Z" fill="white"/>
</svg>
